sahlnaskh-bold.sfdir
StartChar: exclam
Encoding: 33 33 753
Width: 782
GlyphClass: 2
Flags: W
LayerCount: 2
Fore
SplineSet
213 1462 m 1,0,-1
 569 1462 l 1,1,-1
 449 467 l 1,2,-1
 334 467 l 1,3,-1
 213 1462 l 1,0,-1
225 147 m 0,4,5
 225 194 225 194 238 225.5 c 128,-1,6
 251 257 251 257 273.5 276 c 128,-1,7
 296 295 296 295 327 303 c 128,-1,8
 358 311 358 311 393 311 c 0,9,10
 427 311 427 311 457.5 303 c 128,-1,11
 488 295 488 295 511 276 c 128,-1,12
 534 257 534 257 547.5 225.5 c 128,-1,13
 561 194 561 194 561 147 c 0,14,15
 561 101 561 101 547.5 70 c 128,-1,16
 534 39 534 39 511 20 c 128,-1,17
 488 1 488 1 457.5 -7.5 c 128,-1,18
 427 -16 427 -16 393 -16 c 0,19,20
 358 -16 358 -16 327 -7.5 c 128,-1,21
 296 1 296 1 273.5 20 c 128,-1,22
 251 39 251 39 238 70 c 128,-1,23
 225 101 225 101 225 147 c 0,4,5
EndSplineSet
EndChar
StartChar: quotedbl
Encoding: 34 34 754
Width: 1040
GlyphClass: 2
Flags: W
LayerCount: 2
Fore
SplineSet
584 1462 m 1,0,-1
 903 1462 l 1,1,-1
 831 899 l 1,2,-1
 696 899 l 1,3,-1
 584 1462 l 1,0,-1
137 1462 m 1,4,-1
 457 1462 l 1,5,-1
 365 899 l 1,6,-1
 229 899 l 1,7,-1
 137 1462 l 1,4,-1
EndSplineSet
EndChar
StartChar: numbersign
Encoding: 35 35 755
Width: 1145
GlyphClass: 2
Flags: W
LayerCount: 2
Fore
SplineSet
1022 551 m 1,0,-1
 1022 410 l 1,1,-1
 766 410 l 1,2,-1
 690 0 l 1,3,-1
 545 0 l 1,4,-1
 621 410 l 1,5,-1
 408 410 l 1,6,-1
 330 0 l 1,7,-1
 184 0 l 1,8,-1
 262 410 l 1,9,-1
 57 410 l 1,10,-1
 57 551 l 1,11,-1
 289 551 l 1,12,-1
 360 922 l 1,13,-1
 123 922 l 1,14,-1
 123 1065 l 1,15,-1
 387 1065 l 1,16,-1
 459 1462 l 1,17,-1
 606 1462 l 1,18,-1
 532 1065 l 1,19,-1
 745 1065 l 1,20,-1
 821 1462 l 1,21,-1
 967 1462 l 1,22,-1
 891 1065 l 1,23,-1
 1087 1065 l 1,24,-1
 1087 922 l 1,25,-1
 864 922 l 1,26,-1
 795 551 l 1,27,-1
 1022 551 l 1,0,-1
434 551 m 1,28,-1
 649 551 l 1,29,-1
 721 922 l 1,30,-1
 506 922 l 1,31,-1
 434 551 l 1,28,-1
EndSplineSet
EndChar
StartChar: dollar
Encoding: 36 36 756
Width: 1145
GlyphClass: 2
Flags: W
LayerCount: 2
Fore
SplineSet
639 1556 m 1,0,-1
 639 1401 l 1,1,2
 730 1398 730 1398 796 1381 c 128,-1,3
 862 1364 862 1364 905 1336.5 c 128,-1,4
 948 1309 948 1309 968.5 1273 c 128,-1,5
 989 1237 989 1237 989 1196 c 0,6,7
 989 1131 989 1131 933 1089 c 128,-1,8
 877 1047 877 1047 764 1047 c 1,9,10
 764 1077 764 1077 757 1112 c 128,-1,11
 750 1147 750 1147 735 1179.5 c 128,-1,12
 720 1212 720 1212 696.5 1238.5 c 128,-1,13
 673 1265 673 1265 639 1280 c 1,14,-1
 639 881 l 1,15,16
 645 878 645 878 662 871.5 c 128,-1,17
 679 865 679 865 690 860 c 0,18,19
 784 823 784 823 851 784 c 128,-1,20
 918 745 918 745 960.5 699 c 128,-1,21
 1003 653 1003 653 1022.5 599.5 c 128,-1,22
 1042 546 1042 546 1042 481 c 0,23,24
 1042 403 1042 403 1014.5 336.5 c 128,-1,25
 987 270 987 270 935.5 219 c 128,-1,26
 884 168 884 168 809 135.5 c 128,-1,27
 734 103 734 103 639 92 c 1,28,-1
 639 -162 l 1,29,-1
 524 -162 l 1,30,-1
 524 88 l 1,31,32
 407 91 407 91 326 118 c 128,-1,33
 245 145 245 145 194.5 186 c 128,-1,34
 144 227 144 227 122 277 c 128,-1,35
 100 327 100 327 100 375 c 0,36,37
 100 420 100 420 116.5 451 c 128,-1,38
 133 482 133 482 160 501.5 c 128,-1,39
 187 521 187 521 221.5 530 c 128,-1,40
 256 539 256 539 293 539 c 1,41,42
 293 462 293 462 309.5 402 c 128,-1,43
 326 342 326 342 356.5 299.5 c 128,-1,44
 387 257 387 257 429.5 231 c 128,-1,45
 472 205 472 205 524 197 c 1,46,-1
 524 639 l 1,47,-1
 489 653 l 2,48,49
 391 693 391 693 325.5 734 c 128,-1,50
 260 775 260 775 219.5 821.5 c 128,-1,51
 179 868 179 868 162 922 c 128,-1,52
 145 976 145 976 145 1042 c 0,53,54
 145 1116 145 1116 173 1177.5 c 128,-1,55
 201 1239 201 1239 251 1285 c 128,-1,56
 301 1331 301 1331 370.5 1360.5 c 128,-1,57
 440 1390 440 1390 524 1399 c 1,58,-1
 524 1556 l 1,59,-1
 639 1556 l 1,0,-1
799 389 m 0,60,61
 799 454 799 454 759 500 c 128,-1,62
 719 546 719 546 639 588 c 1,63,-1
 639 201 l 1,64,65
 716 218 716 218 757.5 269 c 128,-1,66
 799 320 799 320 799 389 c 0,60,61
385 1128 m 0,67,68
 385 1101 385 1101 391 1076 c 128,-1,69
 397 1051 397 1051 413 1027.5 c 128,-1,70
 429 1004 429 1004 456 981.5 c 128,-1,71
 483 959 483 959 524 936 c 1,72,-1
 524 1290 l 1,73,74
 464 1279 464 1279 424.5 1238.5 c 128,-1,75
 385 1198 385 1198 385 1128 c 0,67,68
EndSplineSet
EndChar
StartChar: percent
Encoding: 37 37 757
Width: 1855
GlyphClass: 2
Flags: W
LayerCount: 2
Fore
SplineSet
807 1030 m 256,0,1
 807 927 807 927 784 843 c 128,-1,2
 761 759 761 759 715.5 699 c 128,-1,3
 670 639 670 639 600.5 606 c 128,-1,4
 531 573 531 573 438 573 c 0,5,6
 341 573 341 573 271 606 c 128,-1,7
 201 639 201 639 156.5 699 c 128,-1,8
 112 759 112 759 91 843 c 128,-1,9
 70 927 70 927 70 1030 c 256,10,11
 70 1133 70 1133 91 1216.5 c 128,-1,12
 112 1300 112 1300 157 1359.5 c 128,-1,13
 202 1419 202 1419 272 1451 c 128,-1,14
 342 1483 342 1483 440 1483 c 0,15,16
 532 1483 532 1483 601 1451 c 128,-1,17
 670 1419 670 1419 716 1359.5 c 128,-1,18
 762 1300 762 1300 784.5 1216.5 c 128,-1,19
 807 1133 807 1133 807 1030 c 256,0,1
301 1030 m 0,20,21
 301 946 301 946 308.5 880.5 c 128,-1,22
 316 815 316 815 332 769.5 c 128,-1,23
 348 724 348 724 374.5 700 c 128,-1,24
 401 676 401 676 438 676 c 0,25,26
 477 676 477 676 502.5 700 c 128,-1,27
 528 724 528 724 544 769.5 c 128,-1,28
 560 815 560 815 566.5 880.5 c 128,-1,29
 573 946 573 946 573 1030 c 0,30,31
 573 1112 573 1112 566.5 1176.5 c 128,-1,32
 560 1241 560 1241 544.5 1286 c 128,-1,33
 529 1331 529 1331 503.5 1354.5 c 128,-1,34
 478 1378 478 1378 440 1378 c 256,35,36
 402 1378 402 1378 375.5 1354.5 c 128,-1,37
 349 1331 349 1331 332.5 1286 c 128,-1,38
 316 1241 316 1241 308.5 1176.5 c 128,-1,39
 301 1112 301 1112 301 1030 c 0,20,21
651 0 m 1,40,-1
 492 0 l 1,41,-1
 1198 1462 l 1,42,-1
 1356 1462 l 1,43,-1
 651 0 l 1,40,-1
1786 436 m 256,44,45
 1786 333 1786 333 1763 249 c 128,-1,46
 1740 165 1740 165 1694.5 105 c 128,-1,47
 1649 45 1649 45 1579.5 12.5 c 128,-1,48
 1510 -20 1510 -20 1417 -20 c 0,49,50
 1320 -20 1320 -20 1250 12.5 c 128,-1,51
 1180 45 1180 45 1135.5 105 c 128,-1,52
 1091 165 1091 165 1070 249 c 128,-1,53
 1049 333 1049 333 1049 436 c 256,54,55
 1049 539 1049 539 1070 622.5 c 128,-1,56
 1091 706 1091 706 1136 765.5 c 128,-1,57
 1181 825 1181 825 1251 857 c 128,-1,58
 1321 889 1321 889 1419 889 c 0,59,60
 1511 889 1511 889 1580 857 c 128,-1,61
 1649 825 1649 825 1695 765.5 c 128,-1,62
 1741 706 1741 706 1763.5 622.5 c 128,-1,63
 1786 539 1786 539 1786 436 c 256,44,45
1280 436 m 0,64,65
 1280 352 1280 352 1287.5 286.5 c 128,-1,66
 1295 221 1295 221 1311 175.5 c 128,-1,67
 1327 130 1327 130 1353.5 106 c 128,-1,68
 1380 82 1380 82 1417 82 c 0,69,70
 1456 82 1456 82 1481.5 106 c 128,-1,71
 1507 130 1507 130 1523 175.5 c 128,-1,72
 1539 221 1539 221 1545.5 286.5 c 128,-1,73
 1552 352 1552 352 1552 436 c 0,74,75
 1552 518 1552 518 1545.5 582.5 c 128,-1,76
 1539 647 1539 647 1523.5 692 c 128,-1,77
 1508 737 1508 737 1482.5 760.5 c 128,-1,78
 1457 784 1457 784 1419 784 c 256,79,80
 1381 784 1381 784 1354.5 760.5 c 128,-1,81
 1328 737 1328 737 1311.5 692 c 128,-1,82
 1295 647 1295 647 1287.5 582.5 c 128,-1,83
 1280 518 1280 518 1280 436 c 0,64,65
EndSplineSet
EndChar
StartChar: ampersand
Encoding: 38 38 758
Width: 1640
GlyphClass: 2
Flags: W
LayerCount: 2
Fore
SplineSet
1208 0 m 1,0,-1
 1067 150 l 1,1,2
 1029 112 1029 112 982.5 81 c 128,-1,3
 936 50 936 50 880 27.5 c 128,-1,4
 824 5 824 5 758.5 -7.5 c 128,-1,5
 693 -20 693 -20 616 -20 c 0,6,7
 490 -20 490 -20 393 9.5 c 128,-1,8
 296 39 296 39 230 95 c 128,-1,9
 164 151 164 151 130 232 c 128,-1,10
 96 313 96 313 96 416 c 0,11,12
 96 506 96 506 124.5 569.5 c 128,-1,13
 153 633 153 633 201 679.5 c 128,-1,14
 249 726 249 726 312.5 758.5 c 128,-1,15
 376 791 376 791 446 819 c 1,16,17
 406 867 406 867 376.5 910.5 c 128,-1,18
 347 954 347 954 328 997 c 128,-1,19
 309 1040 309 1040 300 1085 c 128,-1,20
 291 1130 291 1130 291 1182 c 0,21,22
 291 1250 291 1250 317 1305 c 128,-1,23
 343 1360 343 1360 394.5 1400 c 128,-1,24
 446 1440 446 1440 523 1461.5 c 128,-1,25
 600 1483 600 1483 702 1483 c 0,26,27
 801 1483 801 1483 874.5 1460 c 128,-1,28
 948 1437 948 1437 996.5 1397 c 128,-1,29
 1045 1357 1045 1357 1069.5 1304 c 128,-1,30
 1094 1251 1094 1251 1094 1192 c 0,31,32
 1094 1130 1094 1130 1075 1080 c 128,-1,33
 1056 1030 1056 1030 1017.5 987.5 c 128,-1,34
 979 945 979 945 920.5 908 c 128,-1,35
 862 871 862 871 782 834 c 1,36,37
 787 826 787 826 797 819 c 1,38,-1
 1087 514 l 1,39,40
 1100 585 1100 585 1104 654.5 c 128,-1,41
 1108 724 1108 724 1108 782 c 2,42,-1
 1108 872 l 1,43,-1
 1556 872 l 1,44,-1
 1556 764 l 1,45,-1
 1524 764 l 2,46,47
 1490 764 1490 764 1457.5 760 c 128,-1,48
 1425 756 1425 756 1397 741.5 c 128,-1,49
 1369 727 1369 727 1347.5 699.5 c 128,-1,50
 1326 672 1326 672 1313 625 c 0,51,52
 1297 568 1297 568 1275.5 503.5 c 128,-1,53
 1254 439 1254 439 1223 373 c 1,54,-1
 1427 160 l 2,55,56
 1456 129 1456 129 1498 119 c 128,-1,57
 1540 109 1540 109 1595 109 c 2,58,-1
 1614 109 l 1,59,-1
 1614 0 l 1,60,-1
 1208 0 l 1,0,-1
397 406 m 0,61,62
 397 345 397 345 416.5 292.5 c 128,-1,63
 436 240 436 240 471 201 c 128,-1,64
 506 162 506 162 556.5 139.5 c 128,-1,65
 607 117 607 117 668 117 c 0,66,67
 777 117 777 117 852 152.5 c 128,-1,68
 927 188 927 188 977 248 c 1,69,-1
 539 715 l 1,70,71
 496 684 496 684 468.5 649.5 c 128,-1,72
 441 615 441 615 425 576.5 c 128,-1,73
 409 538 409 538 403 495.5 c 128,-1,74
 397 453 397 453 397 406 c 0,61,62
846 1190 m 0,75,76
 846 1226 846 1226 839.5 1257 c 128,-1,77
 833 1288 833 1288 817 1311 c 128,-1,78
 801 1334 801 1334 773 1347 c 128,-1,79
 745 1360 745 1360 702 1360 c 0,80,81
 668 1360 668 1360 642.5 1347 c 128,-1,82
 617 1334 617 1334 601 1311 c 128,-1,83
 585 1288 585 1288 577 1256.5 c 128,-1,84
 569 1225 569 1225 569 1188 c 0,85,86
 569 1153 569 1153 577 1121 c 128,-1,87
 585 1089 585 1089 600.5 1057.5 c 128,-1,88
 616 1026 616 1026 640 994 c 128,-1,89
 664 962 664 962 696 926 c 1,90,91
 739 950 739 950 768 977 c 128,-1,92
 797 1004 797 1004 814 1035.5 c 128,-1,93
 831 1067 831 1067 838.5 1105 c 128,-1,94
 846 1143 846 1143 846 1190 c 0,75,76
EndSplineSet
EndChar
StartChar: parenleft
Encoding: 40 40 760
Width: 819
GlyphClass: 2
Flags: W
LayerCount: 2
Fore
SplineSet
446 651 m 256,0,1
 446 529 446 529 458.5 411.5 c 128,-1,2
 471 294 471 294 505 189.5 c 128,-1,3
 539 85 539 85 599 -3 c 128,-1,4
 659 -91 659 -91 754 -154 c 1,5,-1
 754 -285 l 1,6,7
 583 -216 583 -216 462 -123.5 c 128,-1,8
 341 -31 341 -31 264.5 86 c 128,-1,9
 188 203 188 203 152.5 344 c 128,-1,10
 117 485 117 485 117 651 c 0,11,12
 117 816 117 816 152.5 956.5 c 128,-1,13
 188 1097 188 1097 264.5 1213 c 128,-1,14
 341 1329 341 1329 462 1421 c 128,-1,15
 583 1513 583 1513 754 1581 c 1,16,-1
 754 1452 l 1,17,18
 659 1389 659 1389 599 1301.5 c 128,-1,19
 539 1214 539 1214 505 1110 c 128,-1,20
 471 1006 471 1006 458.5 889.5 c 128,-1,21
 446 773 446 773 446 651 c 256,0,1
EndSplineSet
EndChar
StartChar: parenright
Encoding: 41 41 761
Width: 819
GlyphClass: 2
Flags: W
LayerCount: 2
Fore
SplineSet
373 651 m 256,0,1
 373 773 373 773 360.5 889.5 c 128,-1,2
 348 1006 348 1006 314.5 1110 c 128,-1,3
 281 1214 281 1214 221 1301.5 c 128,-1,4
 161 1389 161 1389 66 1452 c 1,5,-1
 66 1581 l 1,6,7
 237 1513 237 1513 358 1421 c 128,-1,8
 479 1329 479 1329 555.5 1213 c 128,-1,9
 632 1097 632 1097 667 956.5 c 128,-1,10
 702 816 702 816 702 651 c 0,11,12
 702 485 702 485 667 344 c 128,-1,13
 632 203 632 203 555.5 86 c 128,-1,14
 479 -31 479 -31 358 -123.5 c 128,-1,15
 237 -216 237 -216 66 -285 c 1,16,-1
 66 -154 l 1,17,18
 161 -91 161 -91 221 -3 c 128,-1,19
 281 85 281 85 314.5 189.5 c 128,-1,20
 348 294 348 294 360.5 411.5 c 128,-1,21
 373 529 373 529 373 651 c 256,0,1
EndSplineSet
EndChar
StartChar: asterisk
Encoding: 42 42 762
Width: 1028
GlyphClass: 2
Flags: W
LayerCount: 2
Fore
SplineSet
72 1237 m 1,0,-1
 164 1444 l 1,1,-1
 469 1223 l 1,2,-1
 401 1556 l 1,3,-1
 631 1556 l 1,4,-1
 557 1227 l 1,5,-1
 864 1440 l 1,6,-1
 956 1235 l 1,7,-1
 637 1155 l 1,8,-1
 956 1073 l 1,9,-1
 864 870 l 1,10,-1
 557 1083 l 1,11,-1
 629 752 l 1,12,-1
 401 752 l 1,13,-1
 467 1085 l 1,14,-1
 164 868 l 1,15,-1
 72 1071 l 1,16,-1
 391 1155 l 1,17,-1
 72 1237 l 1,0,-1
EndSplineSet
EndChar
StartChar: plus
Encoding: 43 43 763
Width: 1145
GlyphClass: 2
Flags: W
LayerCount: 2
Fore
SplineSet
645 659 m 1,0,-1
 645 293 l 1,1,-1
 498 293 l 1,2,-1
 498 659 l 1,3,-1
 133 659 l 1,4,-1
 133 805 l 1,5,-1
 498 805 l 1,6,-1
 498 1171 l 1,7,-1
 645 1171 l 1,8,-1
 645 805 l 1,9,-1
 1012 805 l 1,10,-1
 1012 659 l 1,11,-1
 645 659 l 1,0,-1
EndSplineSet
EndChar
StartChar: hyphen
Encoding: 45 45 765
Width: 635
GlyphClass: 2
Flags: W
LayerCount: 2
Fore
SplineSet
51 451 m 1,0,-1
 51 666 l 1,1,-1
 584 666 l 1,2,-1
 584 451 l 1,3,-1
 51 451 l 1,0,-1
EndSplineSet
EndChar
StartChar: period
Encoding: 46 46 766
Width: 623
GlyphClass: 2
Flags: W
LayerCount: 2
Fore
SplineSet
143 147 m 0,0,1
 143 194 143 194 156 225.5 c 128,-1,2
 169 257 169 257 191.5 276 c 128,-1,3
 214 295 214 295 245 303 c 128,-1,4
 276 311 276 311 311 311 c 0,5,6
 345 311 345 311 375.5 303 c 128,-1,7
 406 295 406 295 429 276 c 128,-1,8
 452 257 452 257 465.5 225.5 c 128,-1,9
 479 194 479 194 479 147 c 0,10,11
 479 101 479 101 465.5 70 c 128,-1,12
 452 39 452 39 429 20 c 128,-1,13
 406 1 406 1 375.5 -7.5 c 128,-1,14
 345 -16 345 -16 311 -16 c 0,15,16
 276 -16 276 -16 245 -7.5 c 128,-1,17
 214 1 214 1 191.5 20 c 128,-1,18
 169 39 169 39 156 70 c 128,-1,19
 143 101 143 101 143 147 c 0,0,1
EndSplineSet
EndChar
StartChar: slash
Encoding: 47 47 767
Width: 590
GlyphClass: 2
Flags: W
LayerCount: 2
Fore
SplineSet
147 -250 m 1,0,-1
 0 -248 l 1,1,-1
 446 1556 l 1,2,-1
 590 1556 l 1,3,-1
 147 -250 l 1,0,-1
EndSplineSet
EndChar
StartChar: zero
Encoding: 48 48 768
Width: 1145
GlyphClass: 2
Flags: W
LayerCount: 2
Fore
SplineSet
1075 733 m 0,0,1
 1075 564 1075 564 1047 425 c 128,-1,2
 1019 286 1019 286 958 187 c 128,-1,3
 897 88 897 88 802 34 c 128,-1,4
 707 -20 707 -20 573 -20 c 0,5,6
 433 -20 433 -20 337 34 c 128,-1,7
 241 88 241 88 181.5 187 c 128,-1,8
 122 286 122 286 96 425.5 c 128,-1,9
 70 565 70 565 70 735 c 256,10,11
 70 905 70 905 96 1043 c 128,-1,12
 122 1181 122 1181 181.5 1279 c 128,-1,13
 241 1377 241 1377 337.5 1430 c 128,-1,14
 434 1483 434 1483 575 1483 c 0,15,16
 708 1483 708 1483 803 1430 c 128,-1,17
 898 1377 898 1377 958.5 1279 c 128,-1,18
 1019 1181 1019 1181 1047 1042.5 c 128,-1,19
 1075 904 1075 904 1075 733 c 0,0,1
387 733 m 256,20,21
 387 586 387 586 395 471 c 128,-1,22
 403 356 403 356 423.5 276.5 c 128,-1,23
 444 197 444 197 480 155 c 128,-1,24
 516 113 516 113 573 113 c 256,25,26
 630 113 630 113 666 155 c 128,-1,27
 702 197 702 197 722.5 276.5 c 128,-1,28
 743 356 743 356 750.5 471 c 128,-1,29
 758 586 758 586 758 733 c 256,30,31
 758 880 758 880 750.5 994.5 c 128,-1,32
 743 1109 743 1109 723 1188 c 128,-1,33
 703 1267 703 1267 667 1308.5 c 128,-1,34
 631 1350 631 1350 575 1350 c 0,35,36
 518 1350 518 1350 481.5 1308.5 c 128,-1,37
 445 1267 445 1267 424 1188 c 128,-1,38
 403 1109 403 1109 395 994.5 c 128,-1,39
 387 880 387 880 387 733 c 256,20,21
EndSplineSet
EndChar
StartChar: one
Encoding: 49 49 769
Width: 1145
GlyphClass: 2
Flags: W
LayerCount: 2
Fore
SplineSet
199 0 m 1,0,-1
 199 109 l 1,1,-1
 367 109 l 2,2,3
 393 109 393 109 412 115.5 c 128,-1,4
 431 122 431 122 444 137 c 128,-1,5
 457 152 457 152 463 177.5 c 128,-1,6
 469 203 469 203 469 242 c 2,7,-1
 469 1268 l 1,8,9
 430 1220 430 1220 395.5 1181 c 128,-1,10
 361 1142 361 1142 329 1114 c 128,-1,11
 297 1086 297 1086 266.5 1070.5 c 128,-1,12
 236 1055 236 1055 205 1055 c 0,13,14
 180 1055 180 1055 158.5 1065.5 c 128,-1,15
 137 1076 137 1076 121 1096 c 128,-1,16
 105 1116 105 1116 95.5 1144 c 128,-1,17
 86 1172 86 1172 86 1206 c 1,18,19
 117 1214 117 1214 151 1225.5 c 128,-1,20
 185 1237 185 1237 223.5 1255.5 c 128,-1,21
 262 1274 262 1274 306 1300.5 c 128,-1,22
 350 1327 350 1327 401 1364 c 2,23,-1
 545 1470 l 1,24,-1
 774 1470 l 1,25,-1
 774 242 l 2,26,27
 774 210 774 210 778.5 185 c 128,-1,28
 783 160 783 160 794.5 143 c 128,-1,29
 806 126 806 126 826.5 117.5 c 128,-1,30
 847 109 847 109 879 109 c 2,31,-1
 1044 109 l 1,32,-1
 1044 0 l 1,33,-1
 199 0 l 1,0,-1
EndSplineSet
EndChar
StartChar: two
Encoding: 50 50 770
Width: 1145
GlyphClass: 2
Flags: W
LayerCount: 2
Fore
SplineSet
999 1143 m 0,0,1
 999 1095 999 1095 988.5 1050 c 128,-1,2
 978 1005 978 1005 953.5 957 c 128,-1,3
 929 909 929 909 889 855.5 c 128,-1,4
 849 802 849 802 790 737.5 c 128,-1,5
 731 673 731 673 652.5 595 c 128,-1,6
 574 517 574 517 471 420 c 2,7,-1
 266 225 l 1,8,-1
 743 225 l 2,9,10
 806 225 806 225 850.5 261.5 c 128,-1,11
 895 298 895 298 913 367 c 2,12,-1
 930 430 l 1,13,-1
 1051 430 l 1,14,-1
 1040 0 l 1,15,-1
 72 0 l 1,16,-1
 72 211 l 1,17,-1
 375 520 l 2,18,19
 470 617 470 617 531 695 c 128,-1,20
 592 773 592 773 627 844 c 128,-1,21
 662 915 662 915 676 984.5 c 128,-1,22
 690 1054 690 1054 690 1133 c 0,23,24
 690 1250 690 1250 647.5 1304 c 128,-1,25
 605 1358 605 1358 530 1358 c 0,26,27
 426 1358 426 1358 384 1268.5 c 128,-1,28
 342 1179 342 1179 342 1004 c 1,29,30
 284 1004 284 1004 235.5 1015 c 128,-1,31
 187 1026 187 1026 152.5 1050 c 128,-1,32
 118 1074 118 1074 99 1112.5 c 128,-1,33
 80 1151 80 1151 80 1206 c 0,34,35
 80 1262 80 1262 108.5 1312 c 128,-1,36
 137 1362 137 1362 193 1400 c 128,-1,37
 249 1438 249 1438 333.5 1460.5 c 128,-1,38
 418 1483 418 1483 530 1483 c 0,39,40
 645 1483 645 1483 732.5 1459.5 c 128,-1,41
 820 1436 820 1436 879.5 1392 c 128,-1,42
 939 1348 939 1348 969 1285 c 128,-1,43
 999 1222 999 1222 999 1143 c 0,0,1
EndSplineSet
EndChar
StartChar: three
Encoding: 51 51 771
Width: 1145
GlyphClass: 2
Flags: W
LayerCount: 2
Fore
SplineSet
498 -20 m 0,0,1
 382 -20 382 -20 298.5 0 c 128,-1,2
 215 20 215 20 161.5 54 c 128,-1,3
 108 88 108 88 82.5 132.5 c 128,-1,4
 57 177 57 177 57 225 c 0,5,6
 57 264 57 264 71 294 c 128,-1,7
 85 324 85 324 109 344.5 c 128,-1,8
 133 365 133 365 164.5 375 c 128,-1,9
 196 385 196 385 231 385 c 1,10,11
 231 320 231 320 249.5 271 c 128,-1,12
 268 222 268 222 301 189 c 128,-1,13
 334 156 334 156 380.5 139.5 c 128,-1,14
 427 123 427 123 483 123 c 0,15,16
 533 123 533 123 578.5 137 c 128,-1,17
 624 151 624 151 659 185 c 128,-1,18
 694 219 694 219 714.5 277.5 c 128,-1,19
 735 336 735 336 735 424 c 0,20,21
 735 483 735 483 714.5 532 c 128,-1,22
 694 581 694 581 653.5 616.5 c 128,-1,23
 613 652 613 652 554 672 c 128,-1,24
 495 692 495 692 418 692 c 2,25,-1
 291 692 l 1,26,-1
 291 819 l 1,27,-1
 426 819 l 2,28,29
 492 819 492 819 541 840.5 c 128,-1,30
 590 862 590 862 622 902 c 128,-1,31
 654 942 654 942 670 997.5 c 128,-1,32
 686 1053 686 1053 686 1120 c 0,33,34
 686 1232 686 1232 643 1295 c 128,-1,35
 600 1358 600 1358 516 1358 c 0,36,37
 461 1358 461 1358 426.5 1331 c 128,-1,38
 392 1304 392 1304 373 1259 c 128,-1,39
 354 1214 354 1214 347 1157 c 128,-1,40
 340 1100 340 1100 340 1040 c 1,41,42
 212 1040 212 1040 143 1084.5 c 128,-1,43
 74 1129 74 1129 74 1223 c 0,44,45
 74 1277 74 1277 102.5 1324.5 c 128,-1,46
 131 1372 131 1372 188 1407.5 c 128,-1,47
 245 1443 245 1443 329.5 1463 c 128,-1,48
 414 1483 414 1483 526 1483 c 0,49,50
 635 1483 635 1483 722.5 1461 c 128,-1,51
 810 1439 810 1439 871.5 1396 c 128,-1,52
 933 1353 933 1353 966 1291 c 128,-1,53
 999 1229 999 1229 999 1149 c 0,54,55
 999 1080 999 1080 975 1022 c 128,-1,56
 951 964 951 964 909 918 c 128,-1,57
 867 872 867 872 810 837.5 c 128,-1,58
 753 803 753 803 686 780 c 1,59,60
 748 769 748 769 812.5 744.5 c 128,-1,61
 877 720 877 720 930 678 c 128,-1,62
 983 636 983 636 1017 573 c 128,-1,63
 1051 510 1051 510 1051 422 c 0,64,65
 1051 297 1051 297 1004.5 212 c 128,-1,66
 958 127 958 127 880.5 75.5 c 128,-1,67
 803 24 803 24 703.5 2 c 128,-1,68
 604 -20 604 -20 498 -20 c 0,0,1
EndSplineSet
EndChar
StartChar: four
Encoding: 52 52 772
Width: 1145
GlyphClass: 2
Flags: W
LayerCount: 2
Fore
SplineSet
893 381 m 1,0,-1
 893 256 l 2,1,2
 893 208 893 208 906.5 179 c 128,-1,3
 920 150 920 150 942.5 134.5 c 128,-1,4
 965 119 965 119 996 114 c 128,-1,5
 1027 109 1027 109 1061 109 c 2,6,-1
 1087 109 l 1,7,-1
 1087 0 l 1,8,-1
 369 0 l 1,9,-1
 369 109 l 1,10,-1
 426 109 l 2,11,12
 461 109 461 109 491.5 114 c 128,-1,13
 522 119 522 119 544.5 134.5 c 128,-1,14
 567 150 567 150 580.5 179 c 128,-1,15
 594 208 594 208 594 256 c 2,16,-1
 594 381 l 1,17,-1
 27 381 l 1,18,-1
 27 506 l 1,19,-1
 608 1462 l 1,20,-1
 893 1462 l 1,21,-1
 893 516 l 1,22,-1
 1106 516 l 1,23,-1
 1106 381 l 1,24,-1
 893 381 l 1,0,-1
594 874 m 2,25,26
 594 964 594 964 597 1068 c 128,-1,27
 600 1172 600 1172 608 1268 c 1,28,29
 598 1244 598 1244 576 1202 c 128,-1,30
 554 1160 554 1160 529 1115.5 c 128,-1,31
 504 1071 504 1071 481 1031.5 c 128,-1,32
 458 992 458 992 446 973 c 2,33,-1
 170 516 l 1,34,-1
 594 516 l 1,35,-1
 594 874 l 2,25,26
EndSplineSet
EndChar
StartChar: five
Encoding: 53 53 773
Width: 1145
GlyphClass: 2
Flags: W
LayerCount: 2
Fore
SplineSet
471 123 m 0,0,1
 522 123 522 123 567.5 139 c 128,-1,2
 613 155 613 155 647.5 192.5 c 128,-1,3
 682 230 682 230 702.5 293.5 c 128,-1,4
 723 357 723 357 723 451 c 0,5,6
 723 604 723 604 650 679 c 128,-1,7
 577 754 577 754 444 754 c 0,8,9
 405 754 405 754 373.5 751 c 128,-1,10
 342 748 342 748 315 742.5 c 128,-1,11
 288 737 288 737 264 730.5 c 128,-1,12
 240 724 240 724 217 717 c 1,13,-1
 123 754 l 1,14,-1
 188 1462 l 1,15,-1
 963 1462 l 1,16,-1
 973 1090 l 1,17,-1
 856 1090 l 1,18,-1
 840 1159 l 2,19,20
 835 1177 835 1177 829 1191.5 c 128,-1,21
 823 1206 823 1206 812.5 1216 c 128,-1,22
 802 1226 802 1226 786 1231.5 c 128,-1,23
 770 1237 770 1237 745 1237 c 2,24,-1
 319 1237 l 1,25,26
 319 1236 319 1236 317.5 1219.5 c 128,-1,27
 316 1203 316 1203 314 1176 c 128,-1,28
 312 1149 312 1149 309 1115 c 128,-1,29
 306 1081 306 1081 303 1046 c 2,30,-1
 287 858 l 1,31,32
 303 864 303 864 328.5 869.5 c 128,-1,33
 354 875 354 875 384 879.5 c 128,-1,34
 414 884 414 884 447.5 886.5 c 128,-1,35
 481 889 481 889 512 889 c 0,36,37
 631 889 631 889 727.5 861.5 c 128,-1,38
 824 834 824 834 892.5 779.5 c 128,-1,39
 961 725 961 725 998.5 643 c 128,-1,40
 1036 561 1036 561 1036 451 c 0,41,42
 1036 318 1036 318 987.5 227.5 c 128,-1,43
 939 137 939 137 862 82 c 128,-1,44
 785 27 785 27 690 3.5 c 128,-1,45
 595 -20 595 -20 502 -20 c 0,46,47
 387 -20 387 -20 307 0.5 c 128,-1,48
 227 21 227 21 177 55.5 c 128,-1,49
 127 90 127 90 104.5 134.5 c 128,-1,50
 82 179 82 179 82 227 c 0,51,52
 82 299 82 299 126.5 334 c 128,-1,53
 171 369 171 369 246 369 c 1,54,55
 246 325 246 325 257.5 281 c 128,-1,56
 269 237 269 237 295.5 202 c 128,-1,57
 322 167 322 167 365 145 c 128,-1,58
 408 123 408 123 471 123 c 0,0,1
EndSplineSet
EndChar
StartChar: six
Encoding: 54 54 774
Width: 1145
GlyphClass: 2
Flags: W
LayerCount: 2
Fore
SplineSet
657 1362 m 0,0,1
 597 1362 597 1362 548.5 1326 c 128,-1,2
 500 1290 500 1290 464.5 1221 c 128,-1,3
 429 1152 429 1152 408 1051.5 c 128,-1,4
 387 951 387 951 381 821 c 1,5,6
 402 835 402 835 429 848.5 c 128,-1,7
 456 862 456 862 490.5 873 c 128,-1,8
 525 884 525 884 568.5 890.5 c 128,-1,9
 612 897 612 897 664 897 c 0,10,11
 757 897 757 897 832.5 868 c 128,-1,12
 908 839 908 839 961.5 784.5 c 128,-1,13
 1015 730 1015 730 1044 651.5 c 128,-1,14
 1073 573 1073 573 1073 473 c 0,15,16
 1073 363 1073 363 1043 272.5 c 128,-1,17
 1013 182 1013 182 953.5 117 c 128,-1,18
 894 52 894 52 805.5 16 c 128,-1,19
 717 -20 717 -20 600 -20 c 0,20,21
 486 -20 486 -20 392.5 21.5 c 128,-1,22
 299 63 299 63 232.5 149 c 128,-1,23
 166 235 166 235 129 366 c 128,-1,24
 92 497 92 497 92 676 c 0,25,26
 92 845 92 845 127.5 992 c 128,-1,27
 163 1139 163 1139 235.5 1248 c 128,-1,28
 308 1357 308 1357 418 1420 c 128,-1,29
 528 1483 528 1483 676 1483 c 0,30,31
 775 1483 775 1483 844 1464 c 128,-1,32
 913 1445 913 1445 956 1413.5 c 128,-1,33
 999 1382 999 1382 1018.5 1341.5 c 128,-1,34
 1038 1301 1038 1301 1038 1257 c 0,35,36
 1038 1226 1038 1226 1025 1197 c 128,-1,37
 1012 1168 1012 1168 983 1146 c 128,-1,38
 954 1124 954 1124 907.5 1111 c 128,-1,39
 861 1098 861 1098 793 1098 c 1,40,41
 793 1144 793 1144 787 1191 c 128,-1,42
 781 1238 781 1238 766 1276 c 128,-1,43
 751 1314 751 1314 724.5 1338 c 128,-1,44
 698 1362 698 1362 657 1362 c 0,0,1
588 772 m 0,45,46
 560 772 560 772 529 763.5 c 128,-1,47
 498 755 498 755 469.5 741 c 128,-1,48
 441 727 441 727 417.5 709.5 c 128,-1,49
 394 692 394 692 381 674 c 1,50,51
 382 527 382 527 399.5 421 c 128,-1,52
 417 315 417 315 447.5 247 c 128,-1,53
 478 179 478 179 518.5 147 c 128,-1,54
 559 115 559 115 606 115 c 0,55,56
 685 115 685 115 730.5 195.5 c 128,-1,57
 776 276 776 276 776 453 c 0,58,59
 776 619 776 619 726 695.5 c 128,-1,60
 676 772 676 772 588 772 c 0,45,46
EndSplineSet
EndChar
StartChar: seven
Encoding: 55 55 775
Width: 1145
GlyphClass: 2
Flags: W
LayerCount: 2
Fore
SplineSet
338 0 m 1,0,-1
 883 1239 l 1,1,-1
 344 1239 l 2,2,3
 288 1239 288 1239 259.5 1212.5 c 128,-1,4
 231 1186 231 1186 225 1135 c 2,5,-1
 213 1032 l 1,6,-1
 90 1032 l 1,7,-1
 100 1462 l 1,8,-1
 1077 1462 l 1,9,-1
 1077 1362 l 1,10,-1
 512 0 l 1,11,-1
 338 0 l 1,0,-1
EndSplineSet
EndChar
StartChar: eight
Encoding: 56 56 776
Width: 1145
GlyphClass: 2
Flags: W
LayerCount: 2
Fore
SplineSet
61 373 m 0,0,1
 61 439 61 439 82.5 492 c 128,-1,2
 104 545 104 545 144 588.5 c 128,-1,3
 184 632 184 632 239.5 668.5 c 128,-1,4
 295 705 295 705 362 739 c 1,5,6
 240 810 240 810 174.5 900 c 128,-1,7
 109 990 109 990 109 1110 c 0,8,9
 109 1181 109 1181 133.5 1248.5 c 128,-1,10
 158 1316 158 1316 214 1368 c 128,-1,11
 270 1420 270 1420 361 1451.5 c 128,-1,12
 452 1483 452 1483 584 1483 c 0,13,14
 692 1483 692 1483 773.5 1456 c 128,-1,15
 855 1429 855 1429 910 1381 c 128,-1,16
 965 1333 965 1333 992.5 1267.5 c 128,-1,17
 1020 1202 1020 1202 1020 1124 c 0,18,19
 1020 1063 1020 1063 1000.5 1016 c 128,-1,20
 981 969 981 969 945 930.5 c 128,-1,21
 909 892 909 892 858 859 c 128,-1,22
 807 826 807 826 743 793 c 1,23,24
 835 748 835 748 900 702.5 c 128,-1,25
 965 657 965 657 1005.5 607.5 c 128,-1,26
 1046 558 1046 558 1064.5 503.5 c 128,-1,27
 1083 449 1083 449 1083 387 c 0,28,29
 1083 290 1083 290 1047.5 214.5 c 128,-1,30
 1012 139 1012 139 944.5 87 c 128,-1,31
 877 35 877 35 780 7.5 c 128,-1,32
 683 -20 683 -20 559 -20 c 0,33,34
 431 -20 431 -20 337 11 c 128,-1,35
 243 42 243 42 181.5 95 c 128,-1,36
 120 148 120 148 90.5 220 c 128,-1,37
 61 292 61 292 61 373 c 0,0,1
569 96 m 0,38,39
 622 96 622 96 664.5 115 c 128,-1,40
 707 134 707 134 737 168 c 128,-1,41
 767 202 767 202 783 249 c 128,-1,42
 799 296 799 296 799 352 c 0,43,44
 799 402 799 402 782 442.5 c 128,-1,45
 765 483 765 483 728.5 518.5 c 128,-1,46
 692 554 692 554 635.5 587.5 c 128,-1,47
 579 621 579 621 500 657 c 1,48,49
 466 635 466 635 436 606.5 c 128,-1,50
 406 578 406 578 384.5 542.5 c 128,-1,51
 363 507 363 507 350.5 463 c 128,-1,52
 338 419 338 419 338 365 c 0,53,54
 338 305 338 305 354.5 255.5 c 128,-1,55
 371 206 371 206 401.5 170.5 c 128,-1,56
 432 135 432 135 474.5 115.5 c 128,-1,57
 517 96 517 96 569 96 c 0,38,39
762 1128 m 0,58,59
 762 1172 762 1172 749.5 1214.5 c 128,-1,60
 737 1257 737 1257 713 1290 c 128,-1,61
 689 1323 689 1323 653.5 1343.5 c 128,-1,62
 618 1364 618 1364 571 1364 c 0,63,64
 529 1364 529 1364 496.5 1346.5 c 128,-1,65
 464 1329 464 1329 442 1298.5 c 128,-1,66
 420 1268 420 1268 408.5 1226 c 128,-1,67
 397 1184 397 1184 397 1135 c 0,68,69
 397 1082 397 1082 411.5 1042 c 128,-1,70
 426 1002 426 1002 454 970 c 128,-1,71
 482 938 482 938 523 912.5 c 128,-1,72
 564 887 564 887 618 862 c 1,73,74
 656 884 656 884 683 909 c 128,-1,75
 710 934 710 934 727.5 966 c 128,-1,76
 745 998 745 998 753.5 1037.5 c 128,-1,77
 762 1077 762 1077 762 1128 c 0,58,59
EndSplineSet
EndChar
StartChar: nine
Encoding: 57 57 777
Width: 1145
GlyphClass: 2
Flags: W
LayerCount: 2
Fore
SplineSet
465 -20 m 0,0,1
 372 -20 372 -20 308 -0.5 c 128,-1,2
 244 19 244 19 204 51.5 c 128,-1,3
 164 84 164 84 146.5 125.5 c 128,-1,4
 129 167 129 167 129 211 c 0,5,6
 129 256 129 256 153 286.5 c 128,-1,7
 177 317 177 317 229 328 c 1,8,9
 244 282 244 282 265 242 c 128,-1,10
 286 202 286 202 315.5 172.5 c 128,-1,11
 345 143 345 143 384.5 126 c 128,-1,12
 424 109 424 109 475 109 c 0,13,14
 613 109 613 109 687.5 258 c 128,-1,15
 762 407 762 407 772 702 c 1,16,17
 748 672 748 672 718.5 647 c 128,-1,18
 689 622 689 622 652 603 c 128,-1,19
 615 584 615 584 570.5 573.5 c 128,-1,20
 526 563 526 563 473 563 c 0,21,22
 385 563 385 563 311.5 590.5 c 128,-1,23
 238 618 238 618 184.5 671.5 c 128,-1,24
 131 725 131 725 101.5 804.5 c 128,-1,25
 72 884 72 884 72 987 c 0,26,27
 72 1098 72 1098 104 1189 c 128,-1,28
 136 1280 136 1280 196.5 1345.5 c 128,-1,29
 257 1411 257 1411 344 1447 c 128,-1,30
 431 1483 431 1483 541 1483 c 0,31,32
 652 1483 652 1483 746 1443 c 128,-1,33
 840 1403 840 1403 908.5 1319 c 128,-1,34
 977 1235 977 1235 1015 1105 c 128,-1,35
 1053 975 1053 975 1053 795 c 0,36,37
 1053 626 1053 626 1020 477.5 c 128,-1,38
 987 329 987 329 916.5 218.5 c 128,-1,39
 846 108 846 108 734.5 44 c 128,-1,40
 623 -20 623 -20 465 -20 c 0,0,1
561 711 m 0,41,42
 635 711 635 711 688 748.5 c 128,-1,43
 741 786 741 786 772 848 c 1,44,45
 771 979 771 979 754.5 1073 c 128,-1,46
 738 1167 738 1167 709.5 1227.5 c 128,-1,47
 681 1288 681 1288 641 1317 c 128,-1,48
 601 1346 601 1346 553 1346 c 0,49,50
 465 1346 465 1346 417 1259.5 c 128,-1,51
 369 1173 369 1173 369 999 c 0,52,53
 369 857 369 857 417 784 c 128,-1,54
 465 711 465 711 561 711 c 0,41,42
EndSplineSet
EndChar
StartChar: colon
Encoding: 58 58 778
Width: 623
GlyphClass: 2
Flags: W
LayerCount: 2
Fore
SplineSet
143 147 m 0,0,1
 143 194 143 194 156 225.5 c 128,-1,2
 169 257 169 257 191.5 276 c 128,-1,3
 214 295 214 295 245 303 c 128,-1,4
 276 311 276 311 311 311 c 0,5,6
 345 311 345 311 375.5 303 c 128,-1,7
 406 295 406 295 429 276 c 128,-1,8
 452 257 452 257 465.5 225.5 c 128,-1,9
 479 194 479 194 479 147 c 0,10,11
 479 101 479 101 465.5 70 c 128,-1,12
 452 39 452 39 429 20 c 128,-1,13
 406 1 406 1 375.5 -7.5 c 128,-1,14
 345 -16 345 -16 311 -16 c 0,15,16
 276 -16 276 -16 245 -7.5 c 128,-1,17
 214 1 214 1 191.5 20 c 128,-1,18
 169 39 169 39 156 70 c 128,-1,19
 143 101 143 101 143 147 c 0,0,1
143 952 m 0,20,21
 143 999 143 999 156 1030.5 c 128,-1,22
 169 1062 169 1062 191.5 1081 c 128,-1,23
 214 1100 214 1100 245 1108 c 128,-1,24
 276 1116 276 1116 311 1116 c 0,25,26
 345 1116 345 1116 375.5 1108 c 128,-1,27
 406 1100 406 1100 429 1081 c 128,-1,28
 452 1062 452 1062 465.5 1030.5 c 128,-1,29
 479 999 479 999 479 952 c 0,30,31
 479 906 479 906 465.5 874.5 c 128,-1,32
 452 843 452 843 429 824 c 128,-1,33
 406 805 406 805 375.5 796.5 c 128,-1,34
 345 788 345 788 311 788 c 0,35,36
 276 788 276 788 245 796.5 c 128,-1,37
 214 805 214 805 191.5 824 c 128,-1,38
 169 843 169 843 156 874.5 c 128,-1,39
 143 906 143 906 143 952 c 0,20,21
EndSplineSet
EndChar
StartChar: semicolon
Encoding: 59 59 779
Width: 602
GlyphClass: 2
Flags: W
LayerCount: 2
Fore
SplineSet
459 86 m 0,0,1
 459 21 459 21 439 -40 c 128,-1,2
 419 -101 419 -101 375 -153 c 128,-1,3
 331 -205 331 -205 261.5 -246.5 c 128,-1,4
 192 -288 192 -288 92 -315 c 1,5,-1
 92 -209 l 1,6,7
 137 -193 137 -193 170.5 -177 c 128,-1,8
 204 -161 204 -161 226.5 -142.5 c 128,-1,9
 249 -124 249 -124 260.5 -101.5 c 128,-1,10
 272 -79 272 -79 272 -49 c 0,11,12
 272 -30 272 -30 261 -17.5 c 128,-1,13
 250 -5 250 -5 233.5 6 c 128,-1,14
 217 17 217 17 197.5 28.5 c 128,-1,15
 178 40 178 40 161.5 58 c 128,-1,16
 145 76 145 76 134 102.5 c 128,-1,17
 123 129 123 129 123 170 c 0,18,19
 123 239 123 239 165 275 c 128,-1,20
 207 311 207 311 270 311 c 0,21,22
 357 311 357 311 408 251 c 128,-1,23
 459 191 459 191 459 86 c 0,0,1
143 952 m 0,24,25
 143 999 143 999 156 1030.5 c 128,-1,26
 169 1062 169 1062 191.5 1081 c 128,-1,27
 214 1100 214 1100 245 1108 c 128,-1,28
 276 1116 276 1116 311 1116 c 0,29,30
 345 1116 345 1116 375.5 1108 c 128,-1,31
 406 1100 406 1100 429 1081 c 128,-1,32
 452 1062 452 1062 465.5 1030.5 c 128,-1,33
 479 999 479 999 479 952 c 0,34,35
 479 906 479 906 465.5 874.5 c 128,-1,36
 452 843 452 843 429 824 c 128,-1,37
 406 805 406 805 375.5 796.5 c 128,-1,38
 345 788 345 788 311 788 c 0,39,40
 276 788 276 788 245 796.5 c 128,-1,41
 214 805 214 805 191.5 824 c 128,-1,42
 169 843 169 843 156 874.5 c 128,-1,43
 143 906 143 906 143 952 c 0,24,25
EndSplineSet
EndChar
StartChar: less
Encoding: 60 60 780
Width: 1145
GlyphClass: 2
Flags: W
LayerCount: 2
Fore
SplineSet
133 690 m 1,0,-1
 133 774 l 1,1,-1
 1012 1253 l 1,2,-1
 1012 1092 l 1,3,-1
 352 731 l 1,4,-1
 1012 375 l 1,5,-1
 1012 213 l 1,6,-1
 133 690 l 1,0,-1
EndSplineSet
EndChar
StartChar: equal
Encoding: 61 61 781
Width: 1145
GlyphClass: 2
Flags: W
LayerCount: 2
Fore
SplineSet
1016 604 m 1,0,-1
 1016 461 l 1,1,-1
 129 461 l 1,2,-1
 129 604 l 1,3,-1
 1016 604 l 1,0,-1
1016 1001 m 1,4,-1
 1016 858 l 1,5,-1
 129 858 l 1,6,-1
 129 1001 l 1,7,-1
 1016 1001 l 1,4,-1
EndSplineSet
EndChar
StartChar: greater
Encoding: 62 62 782
Width: 1145
GlyphClass: 2
Flags: W
LayerCount: 2
Fore
SplineSet
133 213 m 1,0,-1
 133 375 l 1,1,-1
 793 731 l 1,2,-1
 133 1092 l 1,3,-1
 133 1253 l 1,4,-1
 1012 774 l 1,5,-1
 1012 690 l 1,6,-1
 133 213 l 1,0,-1
EndSplineSet
EndChar
StartChar: question
Encoding: 63 63 783
Width: 1126
GlyphClass: 2
Flags: W
LayerCount: 2
Fore
SplineSet
1014 1106 m 0,0,1
 1014 1024 1014 1024 988.5 959 c 128,-1,2
 963 894 963 894 912 840 c 128,-1,3
 861 786 861 786 784.5 740.5 c 128,-1,4
 708 695 708 695 606 653 c 1,5,-1
 565 467 l 1,6,-1
 440 467 l 1,7,-1
 399 719 l 1,8,9
 487 754 487 754 543 801.5 c 128,-1,10
 599 849 599 849 631.5 903.5 c 128,-1,11
 664 958 664 958 676 1018 c 128,-1,12
 688 1078 688 1078 688 1139 c 0,13,14
 688 1188 688 1188 679 1228.5 c 128,-1,15
 670 1269 670 1269 650.5 1298.5 c 128,-1,16
 631 1328 631 1328 600.5 1344 c 128,-1,17
 570 1360 570 1360 528 1360 c 0,18,19
 482 1360 482 1360 451 1339 c 128,-1,20
 420 1318 420 1318 401 1283 c 128,-1,21
 382 1248 382 1248 373.5 1201 c 128,-1,22
 365 1154 365 1154 365 1102 c 1,23,24
 302 1102 302 1102 249 1111 c 128,-1,25
 196 1120 196 1120 157.5 1137.5 c 128,-1,26
 119 1155 119 1155 97.5 1182 c 128,-1,27
 76 1209 76 1209 76 1245 c 0,28,29
 76 1295 76 1295 102 1338.5 c 128,-1,30
 128 1382 128 1382 181.5 1414 c 128,-1,31
 235 1446 235 1446 317 1464.5 c 128,-1,32
 399 1483 399 1483 512 1483 c 0,33,34
 620 1483 620 1483 712 1457.5 c 128,-1,35
 804 1432 804 1432 871 1383.5 c 128,-1,36
 938 1335 938 1335 976 1265 c 128,-1,37
 1014 1195 1014 1195 1014 1106 c 0,0,1
332 147 m 0,38,39
 332 194 332 194 345 225.5 c 128,-1,40
 358 257 358 257 380.5 276 c 128,-1,41
 403 295 403 295 434 303 c 128,-1,42
 465 311 465 311 500 311 c 0,43,44
 534 311 534 311 564.5 303 c 128,-1,45
 595 295 595 295 618 276 c 128,-1,46
 641 257 641 257 654.5 225.5 c 128,-1,47
 668 194 668 194 668 147 c 0,48,49
 668 101 668 101 654.5 70 c 128,-1,50
 641 39 641 39 618 20 c 128,-1,51
 595 1 595 1 564.5 -7.5 c 128,-1,52
 534 -16 534 -16 500 -16 c 0,53,54
 465 -16 465 -16 434 -7.5 c 128,-1,55
 403 1 403 1 380.5 20 c 128,-1,56
 358 39 358 39 345 70 c 128,-1,57
 332 101 332 101 332 147 c 0,38,39
EndSplineSet
EndChar
StartChar: at
Encoding: 64 64 784
Width: 1886
GlyphClass: 2
Flags: W
LayerCount: 2
Fore
SplineSet
1806 803 m 0,0,1
 1806 650 1806 650 1769 530 c 128,-1,2
 1732 410 1732 410 1672 327.5 c 128,-1,3
 1612 245 1612 245 1536.5 201.5 c 128,-1,4
 1461 158 1461 158 1384 158 c 0,5,6
 1293 158 1293 158 1230 202.5 c 128,-1,7
 1167 247 1167 247 1133 350 c 1,8,-1
 1120 350 l 1,9,10
 1099 310 1099 310 1072 275 c 128,-1,11
 1045 240 1045 240 1011 214 c 128,-1,12
 977 188 977 188 934.5 173 c 128,-1,13
 892 158 892 158 838 158 c 0,14,15
 774 158 774 158 715.5 179 c 128,-1,16
 657 200 657 200 612.5 243 c 128,-1,17
 568 286 568 286 542 352 c 128,-1,18
 516 418 516 418 516 508 c 0,19,20
 516 563 516 563 529 627 c 128,-1,21
 542 691 542 691 570.5 754.5 c 128,-1,22
 599 818 599 818 642.5 877.5 c 128,-1,23
 686 937 686 937 747.5 982.5 c 128,-1,24
 809 1028 809 1028 888.5 1055.5 c 128,-1,25
 968 1083 968 1083 1067 1083 c 0,26,27
 1138 1083 1138 1083 1189 1065 c 128,-1,28
 1240 1047 1240 1047 1272 1022 c 1,29,-1
 1358 1065 l 1,30,-1
 1407 1065 l 1,31,-1
 1321 553 l 2,32,33
 1319 541 1319 541 1316.5 522 c 128,-1,34
 1314 503 1314 503 1312 483 c 128,-1,35
 1310 463 1310 463 1308.5 444.5 c 128,-1,36
 1307 426 1307 426 1307 414 c 0,37,38
 1307 372 1307 372 1316 345 c 128,-1,39
 1325 318 1325 318 1339 302.5 c 128,-1,40
 1353 287 1353 287 1370.5 281.5 c 128,-1,41
 1388 276 1388 276 1405 276 c 0,42,43
 1446 276 1446 276 1487.5 310 c 128,-1,44
 1529 344 1529 344 1563 409.5 c 128,-1,45
 1597 475 1597 475 1618.5 572 c 128,-1,46
 1640 669 1640 669 1640 795 c 0,47,48
 1640 935 1640 935 1597.5 1040.5 c 128,-1,49
 1555 1146 1555 1146 1479.5 1216.5 c 128,-1,50
 1404 1287 1404 1287 1299.5 1322.5 c 128,-1,51
 1195 1358 1195 1358 1071 1358 c 0,52,53
 974 1358 974 1358 879.5 1331 c 128,-1,54
 785 1304 785 1304 699.5 1252 c 128,-1,55
 614 1200 614 1200 542 1124.5 c 128,-1,56
 470 1049 470 1049 417 952.5 c 128,-1,57
 364 856 364 856 334.5 739 c 128,-1,58
 305 622 305 622 305 487 c 0,59,60
 305 306 305 306 359 178 c 128,-1,61
 413 50 413 50 505.5 -31 c 128,-1,62
 598 -112 598 -112 721.5 -149 c 128,-1,63
 845 -186 845 -186 983 -186 c 0,64,65
 1066 -186 1066 -186 1145 -171 c 128,-1,66
 1224 -156 1224 -156 1295 -132 c 128,-1,67
 1366 -108 1366 -108 1427 -77 c 128,-1,68
 1488 -46 1488 -46 1536 -14 c 1,69,-1
 1585 -92 l 1,70,71
 1531 -133 1531 -133 1462.5 -169 c 128,-1,72
 1394 -205 1394 -205 1313.5 -232 c 128,-1,73
 1233 -259 1233 -259 1142.5 -275 c 128,-1,74
 1052 -291 1052 -291 954 -291 c 0,75,76
 837 -291 837 -291 729 -269.5 c 128,-1,77
 621 -248 621 -248 526.5 -204 c 128,-1,78
 432 -160 432 -160 354 -94.5 c 128,-1,79
 276 -29 276 -29 220.5 59 c 128,-1,80
 165 147 165 147 134.5 257 c 128,-1,81
 104 367 104 367 104 500 c 0,82,83
 104 637 104 637 137.5 762 c 128,-1,84
 171 887 171 887 232.5 993.5 c 128,-1,85
 294 1100 294 1100 382 1186.5 c 128,-1,86
 470 1273 470 1273 579 1334.5 c 128,-1,87
 688 1396 688 1396 815.5 1429 c 128,-1,88
 943 1462 943 1462 1085 1462 c 0,89,90
 1263 1462 1263 1462 1398 1411 c 128,-1,91
 1533 1360 1533 1360 1623.5 1271.5 c 128,-1,92
 1714 1183 1714 1183 1760 1062.5 c 128,-1,93
 1806 942 1806 942 1806 803 c 0,0,1
768 487 m 0,94,95
 768 385 768 385 804 330.5 c 128,-1,96
 840 276 840 276 899 276 c 0,97,98
 943 276 943 276 974.5 297 c 128,-1,99
 1006 318 1006 318 1027.5 352.5 c 128,-1,100
 1049 387 1049 387 1063 430 c 128,-1,101
 1077 473 1077 473 1085 518 c 2,102,-1
 1167 936 l 1,103,104
 1161 950 1161 950 1149.5 960.5 c 128,-1,105
 1138 971 1138 971 1123 978.5 c 128,-1,106
 1108 986 1108 986 1091.5 989.5 c 128,-1,107
 1075 993 1075 993 1059 993 c 0,108,109
 1007 993 1007 993 965.5 967 c 128,-1,110
 924 941 924 941 891.5 898.5 c 128,-1,111
 859 856 859 856 836 801.5 c 128,-1,112
 813 747 813 747 797.5 691 c 128,-1,113
 782 635 782 635 775 581.5 c 128,-1,114
 768 528 768 528 768 487 c 0,94,95
EndSplineSet
EndChar
StartChar: A
Encoding: 65 65 785
Width: 1542
GlyphClass: 2
Flags: W
LayerCount: 2
Fore
SplineSet
446 481 m 1,0,-1
 387 305 l 2,1,2
 379 280 379 280 370.5 246.5 c 128,-1,3
 362 213 362 213 362 188 c 0,4,5
 362 168 362 168 370 153 c 128,-1,6
 378 138 378 138 391 128.5 c 128,-1,7
 404 119 404 119 420.5 114 c 128,-1,8
 437 109 437 109 455 109 c 2,9,-1
 541 109 l 1,10,-1
 541 0 l 1,11,-1
 8 0 l 1,12,-1
 8 109 l 1,13,-1
 33 109 l 2,14,15
 60 109 60 109 82.5 115 c 128,-1,16
 105 121 105 121 124.5 137.5 c 128,-1,17
 144 154 144 154 161.5 183 c 128,-1,18
 179 212 179 212 197 258 c 2,19,-1
 641 1462 l 1,20,-1
 922 1462 l 1,21,-1
 1350 256 l 2,22,23
 1365 213 1365 213 1381.5 184.5 c 128,-1,24
 1398 156 1398 156 1417.5 139.5 c 128,-1,25
 1437 123 1437 123 1459 116 c 128,-1,26
 1481 109 1481 109 1505 109 c 2,27,-1
 1542 109 l 1,28,-1
 1542 0 l 1,29,-1
 866 0 l 1,30,-1
 866 109 l 1,31,-1
 946 109 l 2,32,33
 961 109 961 109 977 113.5 c 128,-1,34
 993 118 993 118 1005.5 127.5 c 128,-1,35
 1018 137 1018 137 1026 152 c 128,-1,36
 1034 167 1034 167 1034 188 c 0,37,38
 1034 213 1034 213 1028 236 c 128,-1,39
 1022 259 1022 259 1016 276 c 2,40,-1
 944 481 l 1,41,-1
 446 481 l 1,0,-1
795 942 m 2,42,43
 784 977 784 977 772.5 1015.5 c 128,-1,44
 761 1054 761 1054 749.5 1094 c 128,-1,45
 738 1134 738 1134 727.5 1173.5 c 128,-1,46
 717 1213 717 1213 709 1249 c 1,47,48
 700 1218 700 1218 688 1181 c 128,-1,49
 676 1144 676 1144 662.5 1105 c 128,-1,50
 649 1066 649 1066 635.5 1027 c 128,-1,51
 622 988 622 988 610 952 c 2,52,-1
 489 606 l 1,53,-1
 903 606 l 1,54,-1
 795 942 l 2,42,43
EndSplineSet
EndChar
StartChar: B
Encoding: 66 66 786
Width: 1376
GlyphClass: 2
Flags: W
LayerCount: 2
Fore
SplineSet
1241 1090 m 0,0,1
 1241 1022 1241 1022 1222.5 971.5 c 128,-1,2
 1204 921 1204 921 1170 884.5 c 128,-1,3
 1136 848 1136 848 1088.5 822 c 128,-1,4
 1041 796 1041 796 983 778 c 1,5,-1
 983 768 l 1,6,7
 1054 750 1054 750 1112.5 718.5 c 128,-1,8
 1171 687 1171 687 1213.5 641.5 c 128,-1,9
 1256 596 1256 596 1279.5 536 c 128,-1,10
 1303 476 1303 476 1303 401 c 0,11,12
 1303 199 1303 199 1156 99.5 c 128,-1,13
 1009 0 1009 0 717 0 c 2,14,-1
 57 0 l 1,15,-1
 57 109 l 1,16,-1
 141 109 l 2,17,18
 164 109 164 109 183.5 113.5 c 128,-1,19
 203 118 203 118 217 132 c 128,-1,20
 231 146 231 146 239.5 172 c 128,-1,21
 248 198 248 198 248 242 c 2,22,-1
 248 1223 l 2,23,24
 248 1264 248 1264 239.5 1289.5 c 128,-1,25
 231 1315 231 1315 216.5 1329 c 128,-1,26
 202 1343 202 1343 182.5 1348.5 c 128,-1,27
 163 1354 163 1354 141 1354 c 2,28,-1
 57 1354 l 1,29,-1
 57 1462 l 1,30,-1
 655 1462 l 2,31,32
 947 1462 947 1462 1094 1372 c 128,-1,33
 1241 1282 1241 1282 1241 1090 c 0,0,1
571 125 m 1,34,-1
 707 125 l 2,35,36
 775 125 775 125 823 140 c 128,-1,37
 871 155 871 155 901 188.5 c 128,-1,38
 931 222 931 222 944.5 276 c 128,-1,39
 958 330 958 330 958 408 c 0,40,41
 958 483 958 483 946 538.5 c 128,-1,42
 934 594 934 594 905 630 c 128,-1,43
 876 666 876 666 829 684 c 128,-1,44
 782 702 782 702 711 702 c 2,45,-1
 571 702 l 1,46,-1
 571 125 l 1,34,-1
571 827 m 1,47,-1
 649 827 l 2,48,49
 721 827 721 827 768.5 842 c 128,-1,50
 816 857 816 857 844.5 888.5 c 128,-1,51
 873 920 873 920 885 970 c 128,-1,52
 897 1020 897 1020 897 1090 c 256,53,54
 897 1160 897 1160 883.5 1207 c 128,-1,55
 870 1254 870 1254 840 1283 c 128,-1,56
 810 1312 810 1312 762 1324.5 c 128,-1,57
 714 1337 714 1337 645 1337 c 2,58,-1
 571 1337 l 1,59,-1
 571 827 l 1,47,-1
EndSplineSet
EndChar
StartChar: C
Encoding: 67 67 787
Width: 1368
GlyphClass: 2
Flags: W
LayerCount: 2
Fore
SplineSet
870 143 m 0,0,1
 945 143 945 143 1003.5 160.5 c 128,-1,2
 1062 178 1062 178 1108 206 c 128,-1,3
 1154 234 1154 234 1188.5 269 c 128,-1,4
 1223 304 1223 304 1249 338 c 1,5,6
 1265 326 1265 326 1274.5 301 c 128,-1,7
 1284 276 1284 276 1284 250 c 0,8,9
 1284 207 1284 207 1261 159.5 c 128,-1,10
 1238 112 1238 112 1184 72 c 128,-1,11
 1130 32 1130 32 1041 6 c 128,-1,12
 952 -20 952 -20 821 -20 c 0,13,14
 643 -20 643 -20 510 34 c 128,-1,15
 377 88 377 88 289 187 c 128,-1,16
 201 286 201 286 157 425 c 128,-1,17
 113 564 113 564 113 733 c 0,18,19
 113 899 113 899 158 1037 c 128,-1,20
 203 1175 203 1175 291.5 1274 c 128,-1,21
 380 1373 380 1373 512.5 1428 c 128,-1,22
 645 1483 645 1483 819 1483 c 0,23,24
 937 1483 937 1483 1024.5 1464.5 c 128,-1,25
 1112 1446 1112 1446 1170 1414 c 128,-1,26
 1228 1382 1228 1382 1257 1338.5 c 128,-1,27
 1286 1295 1286 1295 1286 1245 c 0,28,29
 1286 1207 1286 1207 1269.5 1174.5 c 128,-1,30
 1253 1142 1253 1142 1220.5 1118 c 128,-1,31
 1188 1094 1188 1094 1140 1080.5 c 128,-1,32
 1092 1067 1092 1067 1030 1067 c 1,33,34
 1030 1118 1030 1118 1019 1168.5 c 128,-1,35
 1008 1219 1008 1219 981.5 1260 c 128,-1,36
 955 1301 955 1301 912 1326.5 c 128,-1,37
 869 1352 869 1352 805 1352 c 0,38,39
 708 1352 708 1352 641 1311 c 128,-1,40
 574 1270 574 1270 533.5 1191 c 128,-1,41
 493 1112 493 1112 475 996.5 c 128,-1,42
 457 881 457 881 457 733 c 256,43,44
 457 585 457 585 479 474 c 128,-1,45
 501 363 501 363 550 289.5 c 128,-1,46
 599 216 599 216 677.5 179.5 c 128,-1,47
 756 143 756 143 870 143 c 0,0,1
EndSplineSet
EndChar
StartChar: E
Encoding: 69 69 789
Width: 1337
GlyphClass: 2
Flags: W
LayerCount: 2
Fore
SplineSet
573 125 m 1,0,-1
 983 125 l 2,1,2
 1014 125 1014 125 1036 136.5 c 128,-1,3
 1058 148 1058 148 1074 169 c 128,-1,4
 1090 190 1090 190 1099.5 218.5 c 128,-1,5
 1109 247 1109 247 1114 281 c 2,6,-1
 1130 377 l 1,7,-1
 1272 377 l 1,8,-1
 1257 0 l 1,9,-1
 57 0 l 1,10,-1
 57 109 l 1,11,-1
 143 109 l 2,12,13
 165 109 165 109 184 113 c 128,-1,14
 203 117 203 117 217.5 129.5 c 128,-1,15
 232 142 232 142 240 166.5 c 128,-1,16
 248 191 248 191 248 231 c 2,17,-1
 248 1221 l 2,18,19
 248 1265 248 1265 240 1291 c 128,-1,20
 232 1317 232 1317 218 1331 c 128,-1,21
 204 1345 204 1345 185 1349.5 c 128,-1,22
 166 1354 166 1354 143 1354 c 2,23,-1
 57 1354 l 1,24,-1
 57 1462 l 1,25,-1
 1194 1462 l 1,26,-1
 1202 1085 l 1,27,-1
 1059 1085 l 1,28,-1
 1049 1182 l 2,29,30
 1041 1257 1041 1257 1011 1297 c 128,-1,31
 981 1337 981 1337 918 1337 c 2,32,-1
 573 1337 l 1,33,-1
 573 825 l 1,34,-1
 1059 825 l 1,35,-1
 1059 702 l 1,36,-1
 573 702 l 1,37,-1
 573 125 l 1,0,-1
EndSplineSet
EndChar
StartChar: F
Encoding: 70 70 790
Width: 1272
GlyphClass: 2
Flags: W
LayerCount: 2
Fore
SplineSet
1059 1085 m 1,0,-1
 1049 1184 l 1,1,2
 1039 1265 1039 1265 999.5 1301 c 128,-1,3
 960 1337 960 1337 897 1337 c 2,4,-1
 571 1337 l 1,5,-1
 571 778 l 1,6,-1
 1057 778 l 1,7,-1
 1057 657 l 1,8,-1
 571 657 l 1,9,-1
 571 242 l 2,10,11
 571 198 571 198 579.5 172 c 128,-1,12
 588 146 588 146 602 132 c 128,-1,13
 616 118 616 118 636 113.5 c 128,-1,14
 656 109 656 109 678 109 c 2,15,-1
 805 109 l 1,16,-1
 805 0 l 1,17,-1
 57 0 l 1,18,-1
 57 109 l 1,19,-1
 143 109 l 2,20,21
 165 109 165 109 184 113 c 128,-1,22
 203 117 203 117 217.5 129.5 c 128,-1,23
 232 142 232 142 240 166.5 c 128,-1,24
 248 191 248 191 248 231 c 2,25,-1
 248 1229 l 2,26,27
 248 1270 248 1270 240 1294.5 c 128,-1,28
 232 1319 232 1319 217.5 1332 c 128,-1,29
 203 1345 203 1345 184 1349.5 c 128,-1,30
 165 1354 165 1354 143 1354 c 2,31,-1
 57 1354 l 1,32,-1
 57 1462 l 1,33,-1
 1192 1462 l 1,34,-1
 1202 1085 l 1,35,-1
 1059 1085 l 1,0,-1
EndSplineSet
EndChar
StartChar: G
Encoding: 71 71 791
Width: 1575
GlyphClass: 2
Flags: W
LayerCount: 2
Fore
SplineSet
866 -20 m 0,0,1
 676 -20 676 -20 534.5 34 c 128,-1,2
 393 88 393 88 299 187 c 128,-1,3
 205 286 205 286 159 425 c 128,-1,4
 113 564 113 564 113 733 c 0,5,6
 113 899 113 899 162 1037 c 128,-1,7
 211 1175 211 1175 307 1274 c 128,-1,8
 403 1373 403 1373 546 1428 c 128,-1,9
 689 1483 689 1483 877 1483 c 0,10,11
 1005 1483 1005 1483 1100.5 1464.5 c 128,-1,12
 1196 1446 1196 1446 1260.5 1414 c 128,-1,13
 1325 1382 1325 1382 1357 1338.5 c 128,-1,14
 1389 1295 1389 1295 1389 1245 c 0,15,16
 1389 1209 1389 1209 1372 1177.5 c 128,-1,17
 1355 1146 1355 1146 1321 1122 c 128,-1,18
 1287 1098 1287 1098 1238 1084.5 c 128,-1,19
 1189 1071 1189 1071 1124 1071 c 1,20,21
 1124 1133 1124 1133 1109 1185 c 128,-1,22
 1094 1237 1094 1237 1062.5 1274 c 128,-1,23
 1031 1311 1031 1311 983 1331.5 c 128,-1,24
 935 1352 935 1352 870 1352 c 0,25,26
 758 1352 758 1352 679.5 1311 c 128,-1,27
 601 1270 601 1270 551.5 1191 c 128,-1,28
 502 1112 502 1112 479.5 996.5 c 128,-1,29
 457 881 457 881 457 733 c 256,30,31
 457 585 457 585 480.5 470.5 c 128,-1,32
 504 356 504 356 556.5 278 c 128,-1,33
 609 200 609 200 692.5 159.5 c 128,-1,34
 776 119 776 119 897 119 c 0,35,36
 935 119 935 119 973 122 c 128,-1,37
 1011 125 1011 125 1047 133 c 1,38,-1
 1047 434 l 2,39,40
 1047 516 1047 516 1010 548 c 128,-1,41
 973 580 973 580 901 580 c 2,42,-1
 874 580 l 1,43,-1
 874 688 l 1,44,-1
 1518 688 l 1,45,-1
 1518 580 l 1,46,-1
 1491 580 l 2,47,48
 1460 580 1460 580 1437 572.5 c 128,-1,49
 1414 565 1414 565 1399 547 c 128,-1,50
 1384 529 1384 529 1377 499.5 c 128,-1,51
 1370 470 1370 470 1370 426 c 2,52,-1
 1370 90 l 1,53,54
 1250 35 1250 35 1128 7.5 c 128,-1,55
 1006 -20 1006 -20 866 -20 c 0,0,1
EndSplineSet
EndChar
StartChar: H
Encoding: 72 72 792
Width: 1677
GlyphClass: 2
Flags: W
LayerCount: 2
Fore
SplineSet
913 0 m 1,0,-1
 913 109 l 1,1,-1
 1001 109 l 2,2,3
 1023 109 1023 109 1042 113.5 c 128,-1,4
 1061 118 1061 118 1075.5 132 c 128,-1,5
 1090 146 1090 146 1098 172 c 128,-1,6
 1106 198 1106 198 1106 242 c 2,7,-1
 1106 700 l 1,8,-1
 571 700 l 1,9,-1
 571 242 l 2,10,11
 571 198 571 198 579.5 172 c 128,-1,12
 588 146 588 146 602 132 c 128,-1,13
 616 118 616 118 635 113.5 c 128,-1,14
 654 109 654 109 676 109 c 2,15,-1
 764 109 l 1,16,-1
 764 0 l 1,17,-1
 57 0 l 1,18,-1
 57 109 l 1,19,-1
 143 109 l 2,20,21
 165 109 165 109 184 113.5 c 128,-1,22
 203 118 203 118 217.5 132 c 128,-1,23
 232 146 232 146 240 172 c 128,-1,24
 248 198 248 198 248 242 c 2,25,-1
 248 1228 l 2,26,27
 248 1269 248 1269 239.5 1293.5 c 128,-1,28
 231 1318 231 1318 216.5 1331 c 128,-1,29
 202 1344 202 1344 183 1348.5 c 128,-1,30
 164 1353 164 1353 143 1353 c 2,31,-1
 57 1353 l 1,32,-1
 57 1462 l 1,33,-1
 764 1462 l 1,34,-1
 764 1353 l 1,35,-1
 676 1353 l 2,36,37
 654 1353 654 1353 635 1348.5 c 128,-1,38
 616 1344 616 1344 602 1330 c 128,-1,39
 588 1316 588 1316 579.5 1290 c 128,-1,40
 571 1264 571 1264 571 1220 c 2,41,-1
 571 825 l 1,42,-1
 1106 825 l 1,43,-1
 1106 1220 l 2,44,45
 1106 1264 1106 1264 1098 1290 c 128,-1,46
 1090 1316 1090 1316 1075.5 1330 c 128,-1,47
 1061 1344 1061 1344 1042 1348.5 c 128,-1,48
 1023 1353 1023 1353 1001 1353 c 2,49,-1
 913 1353 l 1,50,-1
 913 1462 l 1,51,-1
 1620 1462 l 1,52,-1
 1620 1353 l 1,53,-1
 1534 1353 l 2,54,55
 1513 1353 1513 1353 1494 1348.5 c 128,-1,56
 1475 1344 1475 1344 1460.5 1330 c 128,-1,57
 1446 1316 1446 1316 1438 1290 c 128,-1,58
 1430 1264 1430 1264 1430 1220 c 2,59,-1
 1430 231 l 2,60,61
 1430 191 1430 191 1438.5 166.5 c 128,-1,62
 1447 142 1447 142 1461.5 129.5 c 128,-1,63
 1476 117 1476 117 1494.5 113 c 128,-1,64
 1513 109 1513 109 1534 109 c 2,65,-1
 1620 109 l 1,66,-1
 1620 0 l 1,67,-1
 913 0 l 1,0,-1
EndSplineSet
EndChar
StartChar: I
Encoding: 73 73 793
Width: 821
GlyphClass: 2
Flags: W
LayerCount: 2
Fore
SplineSet
57 0 m 1,0,-1
 57 109 l 1,1,-1
 143 109 l 2,2,3
 166 109 166 109 185 113.5 c 128,-1,4
 204 118 204 118 218 132 c 128,-1,5
 232 146 232 146 240 172 c 128,-1,6
 248 198 248 198 248 242 c 2,7,-1
 248 1220 l 2,8,9
 248 1264 248 1264 240 1290 c 128,-1,10
 232 1316 232 1316 218 1330 c 128,-1,11
 204 1344 204 1344 185 1348.5 c 128,-1,12
 166 1353 166 1353 143 1353 c 2,13,-1
 57 1353 l 1,14,-1
 57 1462 l 1,15,-1
 764 1462 l 1,16,-1
 764 1353 l 1,17,-1
 678 1353 l 2,18,19
 656 1353 656 1353 636.5 1348.5 c 128,-1,20
 617 1344 617 1344 603 1330 c 128,-1,21
 589 1316 589 1316 581 1290 c 128,-1,22
 573 1264 573 1264 573 1220 c 2,23,-1
 573 242 l 2,24,25
 573 198 573 198 581 172 c 128,-1,26
 589 146 589 146 603 132 c 128,-1,27
 617 118 617 118 636.5 113.5 c 128,-1,28
 656 109 656 109 678 109 c 2,29,-1
 764 109 l 1,30,-1
 764 0 l 1,31,-1
 57 0 l 1,0,-1
EndSplineSet
EndChar
StartChar: J
Encoding: 74 74 794
Width: 754
GlyphClass: 2
Flags: W
LayerCount: 2
Fore
SplineSet
731 1354 m 1,0,-1
 645 1354 l 2,1,2
 623 1354 623 1354 603.5 1349.5 c 128,-1,3
 584 1345 584 1345 570 1331 c 128,-1,4
 556 1317 556 1317 547.5 1291 c 128,-1,5
 539 1265 539 1265 539 1221 c 2,6,-1
 539 -4 l 2,7,8
 539 -97 539 -97 518 -169 c 128,-1,9
 497 -241 497 -241 460 -295.5 c 128,-1,10
 423 -350 423 -350 371.5 -387.5 c 128,-1,11
 320 -425 320 -425 259.5 -448 c 128,-1,12
 199 -471 199 -471 131.5 -481.5 c 128,-1,13
 64 -492 64 -492 -6 -492 c 2,14,-1
 -80 -492 l 1,15,-1
 -80 -373 l 1,16,-1
 -43 -373 l 2,17,18
 6 -373 6 -373 52.5 -354.5 c 128,-1,19
 99 -336 99 -336 135 -293 c 128,-1,20
 171 -250 171 -250 193 -179.5 c 128,-1,21
 215 -109 215 -109 215 -6 c 2,22,-1
 215 1229 l 2,23,24
 215 1270 215 1270 207 1294.5 c 128,-1,25
 199 1319 199 1319 184.5 1332 c 128,-1,26
 170 1345 170 1345 151 1349.5 c 128,-1,27
 132 1354 132 1354 111 1354 c 2,28,-1
 25 1354 l 1,29,-1
 25 1462 l 1,30,-1
 731 1462 l 1,31,-1
 731 1354 l 1,0,-1
EndSplineSet
EndChar
StartChar: K
Encoding: 75 75 795
Width: 1503
GlyphClass: 2
Flags: W
LayerCount: 2
Fore
SplineSet
889 1090 m 2,0,1
 922 1125 922 1125 944.5 1153.5 c 128,-1,2
 967 1182 967 1182 980.5 1206.5 c 128,-1,3
 994 1231 994 1231 1000 1253 c 128,-1,4
 1006 1275 1006 1275 1006 1296 c 0,5,6
 1006 1330 1006 1330 980 1343 c 128,-1,7
 954 1356 954 1356 891 1356 c 1,8,-1
 891 1462 l 1,9,-1
 1446 1462 l 1,10,-1
 1446 1356 l 1,11,12
 1404 1356 1404 1356 1366.5 1343 c 128,-1,13
 1329 1330 1329 1330 1293 1306 c 128,-1,14
 1257 1282 1257 1282 1222 1249 c 128,-1,15
 1187 1216 1187 1216 1151 1176 c 2,16,-1
 881 879 l 1,17,-1
 1262 274 l 2,18,19
 1292 226 1292 226 1319.5 194.5 c 128,-1,20
 1347 163 1347 163 1375 144 c 128,-1,21
 1403 125 1403 125 1432 117 c 128,-1,22
 1461 109 1461 109 1495 109 c 2,23,-1
 1503 109 l 1,24,-1
 1503 0 l 1,25,-1
 1393 0 l 2,26,27
 1315 0 1315 0 1256 5 c 128,-1,28
 1197 10 1197 10 1152.5 20 c 128,-1,29
 1108 30 1108 30 1076 45.5 c 128,-1,30
 1044 61 1044 61 1020 82 c 128,-1,31
 996 103 996 103 976.5 129.5 c 128,-1,32
 957 156 957 156 938 188 c 2,33,-1
 662 659 l 1,34,-1
 571 588 l 1,35,-1
 571 242 l 2,36,37
 571 198 571 198 579.5 172 c 128,-1,38
 588 146 588 146 602 132 c 128,-1,39
 616 118 616 118 636 113.5 c 128,-1,40
 656 109 656 109 678 109 c 2,41,-1
 764 109 l 1,42,-1
 764 0 l 1,43,-1
 57 0 l 1,44,-1
 57 109 l 1,45,-1
 143 109 l 2,46,47
 165 109 165 109 184 113 c 128,-1,48
 203 117 203 117 217.5 129.5 c 128,-1,49
 232 142 232 142 240 166.5 c 128,-1,50
 248 191 248 191 248 231 c 2,51,-1
 248 1229 l 2,52,53
 248 1270 248 1270 240 1294.5 c 128,-1,54
 232 1319 232 1319 217.5 1332 c 128,-1,55
 203 1345 203 1345 184 1349.5 c 128,-1,56
 165 1354 165 1354 143 1354 c 2,57,-1
 57 1354 l 1,58,-1
 57 1462 l 1,59,-1
 764 1462 l 1,60,-1
 764 1354 l 1,61,-1
 678 1354 l 2,62,63
 656 1354 656 1354 636 1349.5 c 128,-1,64
 616 1345 616 1345 602 1331 c 128,-1,65
 588 1317 588 1317 579.5 1291 c 128,-1,66
 571 1265 571 1265 571 1221 c 2,67,-1
 571 743 l 1,68,-1
 889 1090 l 2,0,1
EndSplineSet
EndChar
StartChar: L
Encoding: 76 76 796
Width: 1339
GlyphClass: 2
Flags: W
LayerCount: 2
Fore
SplineSet
57 0 m 1,0,-1
 57 109 l 1,1,-1
 143 109 l 2,2,3
 166 109 166 109 185 113.5 c 128,-1,4
 204 118 204 118 218 132 c 128,-1,5
 232 146 232 146 240 172 c 128,-1,6
 248 198 248 198 248 242 c 2,7,-1
 248 1221 l 2,8,9
 248 1265 248 1265 240 1291 c 128,-1,10
 232 1317 232 1317 218 1331 c 128,-1,11
 204 1345 204 1345 185 1349.5 c 128,-1,12
 166 1354 166 1354 143 1354 c 2,13,-1
 57 1354 l 1,14,-1
 57 1462 l 1,15,-1
 764 1462 l 1,16,-1
 764 1354 l 1,17,-1
 678 1354 l 2,18,19
 657 1354 657 1354 637.5 1349.5 c 128,-1,20
 618 1345 618 1345 604 1332 c 128,-1,21
 590 1319 590 1319 581.5 1294.5 c 128,-1,22
 573 1270 573 1270 573 1229 c 2,23,-1
 573 125 l 1,24,-1
 954 125 l 2,25,26
 1026 125 1026 125 1066 170.5 c 128,-1,27
 1106 216 1106 216 1124 303 c 2,28,-1
 1157 457 l 1,29,-1
 1272 457 l 1,30,-1
 1257 0 l 1,31,-1
 57 0 l 1,0,-1
EndSplineSet
EndChar
StartChar: M
Encoding: 77 77 797
Width: 1950
GlyphClass: 2
Flags: W
LayerCount: 2
Fore
SplineSet
1237 0 m 1,0,-1
 1237 109 l 1,1,-1
 1257 109 l 2,2,3
 1289 109 1289 109 1313.5 113 c 128,-1,4
 1338 117 1338 117 1354 129 c 128,-1,5
 1370 141 1370 141 1378 163.5 c 128,-1,6
 1386 186 1386 186 1386 223 c 2,7,-1
 1386 1260 l 1,8,-1
 973 0 l 1,9,-1
 834 0 l 1,10,-1
 401 1260 l 1,11,-1
 401 242 l 2,12,13
 401 198 401 198 411.5 172 c 128,-1,14
 422 146 422 146 441.5 132 c 128,-1,15
 461 118 461 118 489 113.5 c 128,-1,16
 517 109 517 109 553 109 c 2,17,-1
 565 109 l 1,18,-1
 565 0 l 1,19,-1
 57 0 l 1,20,-1
 57 109 l 1,21,-1
 143 109 l 2,22,23
 165 109 165 109 184 113 c 128,-1,24
 203 117 203 117 217.5 129.5 c 128,-1,25
 232 142 232 142 240 166.5 c 128,-1,26
 248 191 248 191 248 231 c 2,27,-1
 248 1229 l 2,28,29
 248 1270 248 1270 240 1294.5 c 128,-1,30
 232 1319 232 1319 217.5 1332 c 128,-1,31
 203 1345 203 1345 184 1349.5 c 128,-1,32
 165 1354 165 1354 143 1354 c 2,33,-1
 57 1354 l 1,34,-1
 57 1462 l 1,35,-1
 647 1462 l 1,36,-1
 987 473 l 1,37,-1
 1313 1462 l 1,38,-1
 1892 1462 l 1,39,-1
 1892 1354 l 1,40,-1
 1806 1354 l 2,41,42
 1784 1354 1784 1354 1765 1349.5 c 128,-1,43
 1746 1345 1746 1345 1732 1331 c 128,-1,44
 1718 1317 1718 1317 1710 1291 c 128,-1,45
 1702 1265 1702 1265 1702 1221 c 2,46,-1
 1702 242 l 2,47,48
 1702 198 1702 198 1710 172 c 128,-1,49
 1718 146 1718 146 1732 132 c 128,-1,50
 1746 118 1746 118 1765 113.5 c 128,-1,51
 1784 109 1784 109 1806 109 c 2,52,-1
 1892 109 l 1,53,-1
 1892 0 l 1,54,-1
 1237 0 l 1,0,-1
EndSplineSet
EndChar
StartChar: N
Encoding: 78 78 798
Width: 1614
GlyphClass: 2
Flags: W
LayerCount: 2
Fore
SplineSet
1200 0 m 1,0,-1
 401 1128 l 1,1,-1
 401 242 l 2,2,3
 401 198 401 198 409.5 172 c 128,-1,4
 418 146 418 146 432 132 c 128,-1,5
 446 118 446 118 465.5 113.5 c 128,-1,6
 485 109 485 109 506 109 c 2,7,-1
 592 109 l 1,8,-1
 592 0 l 1,9,-1
 57 0 l 1,10,-1
 57 109 l 1,11,-1
 143 109 l 2,12,13
 165 109 165 109 184 113.5 c 128,-1,14
 203 118 203 118 217.5 132 c 128,-1,15
 232 146 232 146 240 172 c 128,-1,16
 248 198 248 198 248 242 c 2,17,-1
 248 1229 l 2,18,19
 248 1270 248 1270 239.5 1294.5 c 128,-1,20
 231 1319 231 1319 216.5 1332 c 128,-1,21
 202 1345 202 1345 183 1349.5 c 128,-1,22
 164 1354 164 1354 143 1354 c 2,23,-1
 57 1354 l 1,24,-1
 57 1462 l 1,25,-1
 512 1462 l 1,26,-1
 1235 440 l 1,27,-1
 1235 1229 l 2,28,29
 1235 1270 1235 1270 1226.5 1294.5 c 128,-1,30
 1218 1319 1218 1319 1203.5 1332 c 128,-1,31
 1189 1345 1189 1345 1170 1349.5 c 128,-1,32
 1151 1354 1151 1354 1130 1354 c 2,33,-1
 1044 1354 l 1,34,-1
 1044 1462 l 1,35,-1
 1579 1462 l 1,36,-1
 1579 1354 l 1,37,-1
 1493 1354 l 2,38,39
 1472 1354 1472 1354 1453 1349.5 c 128,-1,40
 1434 1345 1434 1345 1419.5 1331 c 128,-1,41
 1405 1317 1405 1317 1397 1291 c 128,-1,42
 1389 1265 1389 1265 1389 1221 c 2,43,-1
 1389 0 l 1,44,-1
 1200 0 l 1,0,-1
EndSplineSet
EndChar
StartChar: O
Encoding: 79 79 799
Width: 1612
GlyphClass: 2
Flags: W
LayerCount: 2
Fore
SplineSet
1499 733 m 0,0,1
 1499 564 1499 564 1453.5 425 c 128,-1,2
 1408 286 1408 286 1319.5 187 c 128,-1,3
 1231 88 1231 88 1102.5 34 c 128,-1,4
 974 -20 974 -20 807 -20 c 0,5,6
 632 -20 632 -20 501.5 34 c 128,-1,7
 371 88 371 88 285 187 c 128,-1,8
 199 286 199 286 156 425.5 c 128,-1,9
 113 565 113 565 113 735 c 256,10,11
 113 905 113 905 156 1043.5 c 128,-1,12
 199 1182 199 1182 285.5 1280 c 128,-1,13
 372 1378 372 1378 502.5 1431.5 c 128,-1,14
 633 1485 633 1485 809 1485 c 0,15,16
 975 1485 975 1485 1103.5 1431.5 c 128,-1,17
 1232 1378 1232 1378 1320 1279.5 c 128,-1,18
 1408 1181 1408 1181 1453.5 1042.5 c 128,-1,19
 1499 904 1499 904 1499 733 c 0,0,1
457 733 m 256,20,21
 457 586 457 586 476 471 c 128,-1,22
 495 356 495 356 537 276.5 c 128,-1,23
 579 197 579 197 645.5 155 c 128,-1,24
 712 113 712 113 807 113 c 0,25,26
 903 113 903 113 969.5 155 c 128,-1,27
 1036 197 1036 197 1077 276.5 c 128,-1,28
 1118 356 1118 356 1136.5 471 c 128,-1,29
 1155 586 1155 586 1155 733 c 256,30,31
 1155 880 1155 880 1136.5 995 c 128,-1,32
 1118 1110 1118 1110 1077 1189.5 c 128,-1,33
 1036 1269 1036 1269 970 1310.5 c 128,-1,34
 904 1352 904 1352 809 1352 c 0,35,36
 713 1352 713 1352 646 1310.5 c 128,-1,37
 579 1269 579 1269 537 1189.5 c 128,-1,38
 495 1110 495 1110 476 995 c 128,-1,39
 457 880 457 880 457 733 c 256,20,21
EndSplineSet
EndChar
StartChar: P
Encoding: 80 80 800
Width: 1307
GlyphClass: 2
Flags: W
LayerCount: 2
Fore
SplineSet
1245 1028 m 0,0,1
 1245 936 1245 936 1213 851 c 128,-1,2
 1181 766 1181 766 1109 701 c 128,-1,3
 1037 636 1037 636 922 597.5 c 128,-1,4
 807 559 807 559 641 559 c 2,5,-1
 571 559 l 1,6,-1
 571 231 l 2,7,8
 571 191 571 191 580 166.5 c 128,-1,9
 589 142 589 142 604 129.5 c 128,-1,10
 619 117 619 117 639 113 c 128,-1,11
 659 109 659 109 680 109 c 2,12,-1
 805 109 l 1,13,-1
 805 0 l 1,14,-1
 57 0 l 1,15,-1
 57 109 l 1,16,-1
 143 109 l 2,17,18
 166 109 166 109 185 113.5 c 128,-1,19
 204 118 204 118 218 132 c 128,-1,20
 232 146 232 146 240 172 c 128,-1,21
 248 198 248 198 248 242 c 2,22,-1
 248 1229 l 2,23,24
 248 1270 248 1270 240 1294.5 c 128,-1,25
 232 1319 232 1319 217.5 1332 c 128,-1,26
 203 1345 203 1345 184 1349.5 c 128,-1,27
 165 1354 165 1354 143 1354 c 2,28,-1
 57 1354 l 1,29,-1
 57 1462 l 1,30,-1
 686 1462 l 2,31,32
 828 1462 828 1462 933 1432 c 128,-1,33
 1038 1402 1038 1402 1107.5 1345.5 c 128,-1,34
 1177 1289 1177 1289 1211 1209 c 128,-1,35
 1245 1129 1245 1129 1245 1028 c 0,0,1
571 678 m 1,36,-1
 621 678 l 2,37,38
 697 678 697 678 750 697 c 128,-1,39
 803 716 803 716 836.5 757 c 128,-1,40
 870 798 870 798 885.5 863 c 128,-1,41
 901 928 901 928 901 1020 c 0,42,43
 901 1102 901 1102 887.5 1162.5 c 128,-1,44
 874 1223 874 1223 844.5 1262.5 c 128,-1,45
 815 1302 815 1302 767.5 1321.5 c 128,-1,46
 720 1341 720 1341 651 1341 c 2,47,-1
 571 1341 l 1,48,-1
 571 678 l 1,36,-1
EndSplineSet
EndChar
StartChar: Q
Encoding: 81 81 801
Width: 1612
GlyphClass: 2
Flags: W
LayerCount: 2
Fore
SplineSet
1499 733 m 0,0,1
 1499 589 1499 589 1466.5 467.5 c 128,-1,2
 1434 346 1434 346 1371 252 c 128,-1,3
 1308 158 1308 158 1215 93.5 c 128,-1,4
 1122 29 1122 29 1001 0 c 1,5,6
 1010 -113 1010 -113 1038 -185.5 c 128,-1,7
 1066 -258 1066 -258 1106.5 -299.5 c 128,-1,8
 1147 -341 1147 -341 1196 -357 c 128,-1,9
 1245 -373 1245 -373 1296 -373 c 2,10,-1
 1329 -373 l 1,11,-1
 1329 -492 l 1,12,-1
 1182 -492 l 2,13,14
 1090 -492 1090 -492 1000.5 -465 c 128,-1,15
 911 -438 911 -438 838.5 -379.5 c 128,-1,16
 766 -321 766 -321 717.5 -229.5 c 128,-1,17
 669 -138 669 -138 659 -8 c 1,18,19
 521 13 521 13 418.5 75.5 c 128,-1,20
 316 138 316 138 248 234 c 128,-1,21
 180 330 180 330 146.5 457 c 128,-1,22
 113 584 113 584 113 735 c 0,23,24
 113 905 113 905 156 1043.5 c 128,-1,25
 199 1182 199 1182 285.5 1280 c 128,-1,26
 372 1378 372 1378 502.5 1431.5 c 128,-1,27
 633 1485 633 1485 809 1485 c 0,28,29
 975 1485 975 1485 1103.5 1431.5 c 128,-1,30
 1232 1378 1232 1378 1320 1279.5 c 128,-1,31
 1408 1181 1408 1181 1453.5 1042.5 c 128,-1,32
 1499 904 1499 904 1499 733 c 0,0,1
457 733 m 256,33,34
 457 586 457 586 476 471 c 128,-1,35
 495 356 495 356 537 276.5 c 128,-1,36
 579 197 579 197 645.5 155 c 128,-1,37
 712 113 712 113 807 113 c 0,38,39
 903 113 903 113 969.5 155 c 128,-1,40
 1036 197 1036 197 1077 276.5 c 128,-1,41
 1118 356 1118 356 1136.5 471 c 128,-1,42
 1155 586 1155 586 1155 733 c 256,43,44
 1155 880 1155 880 1136.5 995 c 128,-1,45
 1118 1110 1118 1110 1077 1189.5 c 128,-1,46
 1036 1269 1036 1269 970 1310.5 c 128,-1,47
 904 1352 904 1352 809 1352 c 0,48,49
 713 1352 713 1352 646 1310.5 c 128,-1,50
 579 1269 579 1269 537 1189.5 c 128,-1,51
 495 1110 495 1110 476 995 c 128,-1,52
 457 880 457 880 457 733 c 256,33,34
EndSplineSet
EndChar
StartChar: R
Encoding: 82 82 802
Width: 1448
GlyphClass: 2
Flags: W
LayerCount: 2
Fore
SplineSet
57 109 m 1,0,-1
 143 109 l 2,1,2
 164 109 164 109 183 113 c 128,-1,3
 202 117 202 117 216.5 129.5 c 128,-1,4
 231 142 231 142 239.5 166.5 c 128,-1,5
 248 191 248 191 248 231 c 2,6,-1
 248 1229 l 2,7,8
 248 1270 248 1270 239.5 1294.5 c 128,-1,9
 231 1319 231 1319 216.5 1332 c 128,-1,10
 202 1345 202 1345 183 1349.5 c 128,-1,11
 164 1354 164 1354 143 1354 c 2,12,-1
 57 1354 l 1,13,-1
 57 1462 l 1,14,-1
 717 1462 l 2,15,16
 1007 1462 1007 1462 1142.5 1365 c 128,-1,17
 1278 1268 1278 1268 1278 1083 c 0,18,19
 1278 1002 1278 1002 1254 939 c 128,-1,20
 1230 876 1230 876 1190.5 829 c 128,-1,21
 1151 782 1151 782 1101 749.5 c 128,-1,22
 1051 717 1051 717 999 696 c 1,23,-1
 1243 276 l 2,24,25
 1269 232 1269 232 1293.5 200.5 c 128,-1,26
 1318 169 1318 169 1342.5 148.5 c 128,-1,27
 1367 128 1367 128 1393 118.5 c 128,-1,28
 1419 109 1419 109 1448 109 c 2,29,-1
 1456 109 l 1,30,-1
 1456 0 l 1,31,-1
 1389 0 l 2,32,33
 1297 0 1297 0 1228.5 7 c 128,-1,34
 1160 14 1160 14 1108.5 34.5 c 128,-1,35
 1057 55 1057 55 1019.5 91 c 128,-1,36
 982 127 982 127 950 184 c 1,37,-1
 707 635 l 1,38,-1
 571 635 l 1,39,-1
 571 231 l 2,40,41
 571 191 571 191 579.5 166.5 c 128,-1,42
 588 142 588 142 602.5 129.5 c 128,-1,43
 617 117 617 117 636 113 c 128,-1,44
 655 109 655 109 676 109 c 2,45,-1
 764 109 l 1,46,-1
 764 0 l 1,47,-1
 57 0 l 1,48,-1
 57 109 l 1,0,-1
571 754 m 1,49,-1
 686 754 l 2,50,51
 757 754 757 754 804.5 773 c 128,-1,52
 852 792 852 792 880.5 829.5 c 128,-1,53
 909 867 909 867 921.5 923.5 c 128,-1,54
 934 980 934 980 934 1055 c 0,55,56
 934 1133 934 1133 920 1187 c 128,-1,57
 906 1241 906 1241 876 1275.5 c 128,-1,58
 846 1310 846 1310 798 1325.5 c 128,-1,59
 750 1341 750 1341 682 1341 c 2,60,-1
 571 1341 l 1,61,-1
 571 754 l 1,49,-1
EndSplineSet
EndChar
StartChar: S
Encoding: 83 83 803
Width: 1200
GlyphClass: 2
Flags: W
LayerCount: 2
Fore
SplineSet
541 -20 m 0,0,1
 403 -20 403 -20 311 6 c 128,-1,2
 219 32 219 32 163.5 73 c 128,-1,3
 108 114 108 114 84.5 165 c 128,-1,4
 61 216 61 216 61 266 c 0,5,6
 61 319 61 319 80.5 355 c 128,-1,7
 100 391 100 391 132.5 414 c 128,-1,8
 165 437 165 437 206.5 447 c 128,-1,9
 248 457 248 457 293 457 c 1,10,11
 293 369 293 369 314 302.5 c 128,-1,12
 335 236 335 236 372 191.5 c 128,-1,13
 409 147 409 147 460.5 124.5 c 128,-1,14
 512 102 512 102 573 102 c 0,15,16
 633 102 633 102 680 119 c 128,-1,17
 727 136 727 136 760 166 c 128,-1,18
 793 196 793 196 810 236.5 c 128,-1,19
 827 277 827 277 827 324 c 0,20,21
 827 376 827 376 806 416.5 c 128,-1,22
 785 457 785 457 742.5 491.5 c 128,-1,23
 700 526 700 526 635.5 557.5 c 128,-1,24
 571 589 571 589 485 625 c 0,25,26
 378 669 378 669 304.5 715.5 c 128,-1,27
 231 762 231 762 186 816 c 128,-1,28
 141 870 141 870 121.5 933 c 128,-1,29
 102 996 102 996 102 1071 c 0,30,31
 102 1165 102 1165 140 1241 c 128,-1,32
 178 1317 178 1317 245 1371 c 128,-1,33
 312 1425 312 1425 404 1454 c 128,-1,34
 496 1483 496 1483 604 1483 c 0,35,36
 717 1483 717 1483 799 1464.5 c 128,-1,37
 881 1446 881 1446 934.5 1414 c 128,-1,38
 988 1382 988 1382 1014 1338.5 c 128,-1,39
 1040 1295 1040 1295 1040 1245 c 0,40,41
 1040 1209 1040 1209 1024.5 1178 c 128,-1,42
 1009 1147 1009 1147 977.5 1124 c 128,-1,43
 946 1101 946 1101 898.5 1088 c 128,-1,44
 851 1075 851 1075 788 1075 c 1,45,46
 788 1118 788 1118 776.5 1167.5 c 128,-1,47
 765 1217 765 1217 739 1259.5 c 128,-1,48
 713 1302 713 1302 671.5 1330 c 128,-1,49
 630 1358 630 1358 571 1358 c 0,50,51
 530 1358 530 1358 493 1346 c 128,-1,52
 456 1334 456 1334 428.5 1310 c 128,-1,53
 401 1286 401 1286 385 1250.5 c 128,-1,54
 369 1215 369 1215 369 1169 c 0,55,56
 369 1126 369 1126 383 1088 c 128,-1,57
 397 1050 397 1050 434.5 1013.5 c 128,-1,58
 472 977 472 977 537.5 940.5 c 128,-1,59
 603 904 603 904 707 862 c 0,60,61
 812 819 812 819 886 774 c 128,-1,62
 960 729 960 729 1007.5 677.5 c 128,-1,63
 1055 626 1055 626 1076.5 564.5 c 128,-1,64
 1098 503 1098 503 1098 428 c 0,65,66
 1098 329 1098 329 1059 246.5 c 128,-1,67
 1020 164 1020 164 947 105 c 128,-1,68
 874 46 874 46 771.5 13 c 128,-1,69
 669 -20 669 -20 541 -20 c 0,0,1
EndSplineSet
EndChar
StartChar: T
Encoding: 84 84 804
Width: 1337
GlyphClass: 2
Flags: W
LayerCount: 2
Fore
SplineSet
831 242 m 2,0,1
 831 198 831 198 839 172 c 128,-1,2
 847 146 847 146 861.5 132 c 128,-1,3
 876 118 876 118 895 113.5 c 128,-1,4
 914 109 914 109 936 109 c 2,5,-1
 1022 109 l 1,6,-1
 1022 0 l 1,7,-1
 315 0 l 1,8,-1
 315 109 l 1,9,-1
 401 109 l 2,10,11
 424 109 424 109 443 113.5 c 128,-1,12
 462 118 462 118 476 132 c 128,-1,13
 490 146 490 146 498 172 c 128,-1,14
 506 198 506 198 506 242 c 2,15,-1
 506 1337 l 1,16,-1
 342 1337 l 2,17,18
 296 1337 296 1337 265 1327 c 128,-1,19
 234 1317 234 1317 214.5 1298.5 c 128,-1,20
 195 1280 195 1280 185.5 1253 c 128,-1,21
 176 1226 176 1226 172 1192 c 2,22,-1
 158 1065 l 1,23,-1
 20 1065 l 1,24,-1
 31 1462 l 1,25,-1
 1307 1462 l 1,26,-1
 1317 1065 l 1,27,-1
 1180 1065 l 1,28,-1
 1165 1192 l 2,29,30
 1161 1226 1161 1226 1151.5 1253 c 128,-1,31
 1142 1280 1142 1280 1122.5 1298.5 c 128,-1,32
 1103 1317 1103 1317 1072 1327 c 128,-1,33
 1041 1337 1041 1337 995 1337 c 2,34,-1
 831 1337 l 1,35,-1
 831 242 l 2,0,1
EndSplineSet
EndChar
StartChar: U
Encoding: 85 85 805
Width: 1530
GlyphClass: 2
Flags: W
LayerCount: 2
Fore
SplineSet
1497 1354 m 1,0,-1
 1409 1354 l 2,1,2
 1388 1354 1388 1354 1369 1349.5 c 128,-1,3
 1350 1345 1350 1345 1335.5 1331 c 128,-1,4
 1321 1317 1321 1317 1313 1291 c 128,-1,5
 1305 1265 1305 1265 1305 1221 c 2,6,-1
 1305 422 l 2,7,8
 1305 319 1305 319 1275.5 237 c 128,-1,9
 1246 155 1246 155 1183.5 98 c 128,-1,10
 1121 41 1121 41 1024 10.5 c 128,-1,11
 927 -20 927 -20 793 -20 c 256,12,13
 659 -20 659 -20 553.5 5.5 c 128,-1,14
 448 31 448 31 375 87 c 128,-1,15
 302 143 302 143 263.5 231.5 c 128,-1,16
 225 320 225 320 225 446 c 2,17,-1
 225 1229 l 2,18,19
 225 1270 225 1270 216.5 1294.5 c 128,-1,20
 208 1319 208 1319 193.5 1332 c 128,-1,21
 179 1345 179 1345 160.5 1349.5 c 128,-1,22
 142 1354 142 1354 121 1354 c 2,23,-1
 33 1354 l 1,24,-1
 33 1462 l 1,25,-1
 739 1462 l 1,26,-1
 739 1354 l 1,27,-1
 653 1354 l 2,28,29
 632 1354 632 1354 613 1349.5 c 128,-1,30
 594 1345 594 1345 579.5 1331 c 128,-1,31
 565 1317 565 1317 557 1291 c 128,-1,32
 549 1265 549 1265 549 1221 c 2,33,-1
 549 430 l 2,34,35
 549 344 549 344 570.5 285.5 c 128,-1,36
 592 227 592 227 632 191.5 c 128,-1,37
 672 156 672 156 728 140.5 c 128,-1,38
 784 125 784 125 854 125 c 0,39,40
 922 125 922 125 977 142.5 c 128,-1,41
 1032 160 1032 160 1070.5 197 c 128,-1,42
 1109 234 1109 234 1130 291 c 128,-1,43
 1151 348 1151 348 1151 426 c 2,44,-1
 1151 1229 l 2,45,46
 1151 1270 1151 1270 1143 1294.5 c 128,-1,47
 1135 1319 1135 1319 1120.5 1332 c 128,-1,48
 1106 1345 1106 1345 1087 1349.5 c 128,-1,49
 1068 1354 1068 1354 1047 1354 c 2,50,-1
 961 1354 l 1,51,-1
 961 1462 l 1,52,-1
 1497 1462 l 1,53,-1
 1497 1354 l 1,0,-1
EndSplineSet
EndChar
StartChar: V
Encoding: 86 86 806
Width: 1430
GlyphClass: 2
Flags: W
LayerCount: 2
Fore
SplineSet
1430 1354 m 1,0,-1
 1331 1354 l 2,1,2
 1317 1354 1317 1354 1306 1348 c 128,-1,3
 1295 1342 1295 1342 1284 1325.5 c 128,-1,4
 1273 1309 1273 1309 1261 1280 c 128,-1,5
 1249 1251 1249 1251 1233 1204 c 2,6,-1
 815 0 l 1,7,-1
 610 0 l 1,8,-1
 174 1255 l 2,9,10
 164 1284 164 1284 148.5 1303.5 c 128,-1,11
 133 1323 133 1323 115.5 1334 c 128,-1,12
 98 1345 98 1345 80 1349.5 c 128,-1,13
 62 1354 62 1354 47 1354 c 2,14,-1
 0 1354 l 1,15,-1
 0 1462 l 1,16,-1
 676 1462 l 1,17,-1
 676 1354 l 1,18,-1
 582 1354 l 2,19,20
 567 1354 567 1354 553 1350.5 c 128,-1,21
 539 1347 539 1347 527.5 1339 c 128,-1,22
 516 1331 516 1331 509 1318 c 128,-1,23
 502 1305 502 1305 502 1286 c 0,24,25
 502 1266 502 1266 508 1240.5 c 128,-1,26
 514 1215 514 1215 520 1198 c 2,27,-1
 729 567 l 2,28,29
 737 544 737 544 745.5 513 c 128,-1,30
 754 482 754 482 762 448 c 128,-1,31
 770 414 770 414 776.5 380.5 c 128,-1,32
 783 347 783 347 786 319 c 1,33,34
 789 336 789 336 796.5 365.5 c 128,-1,35
 804 395 804 395 814 429.5 c 128,-1,36
 824 464 824 464 834.5 498.5 c 128,-1,37
 845 533 845 533 854 561 c 2,38,-1
 1065 1184 l 2,39,40
 1069 1195 1069 1195 1073.5 1208.5 c 128,-1,41
 1078 1222 1078 1222 1081.5 1236 c 128,-1,42
 1085 1250 1085 1250 1087.5 1263 c 128,-1,43
 1090 1276 1090 1276 1090 1284 c 0,44,45
 1090 1318 1090 1318 1067.5 1336 c 128,-1,46
 1045 1354 1045 1354 1008 1354 c 2,47,-1
 901 1354 l 1,48,-1
 901 1462 l 1,49,-1
 1430 1462 l 1,50,-1
 1430 1354 l 1,0,-1
EndSplineSet
EndChar
StartChar: W
Encoding: 87 87 807
Width: 2185
GlyphClass: 2
Flags: W
LayerCount: 2
Fore
SplineSet
1237 1448 m 1,0,-1
 1520 666 l 2,1,2
 1538 618 1538 618 1553.5 568.5 c 128,-1,3
 1569 519 1569 519 1582 474 c 128,-1,4
 1595 429 1595 429 1605 391 c 128,-1,5
 1615 353 1615 353 1620 326 c 1,6,7
 1628 363 1628 363 1637 408 c 128,-1,8
 1646 453 1646 453 1656.5 502.5 c 128,-1,9
 1667 552 1667 552 1678.5 604 c 128,-1,10
 1690 656 1690 656 1702 705 c 2,11,-1
 1810 1147 l 2,12,13
 1813 1159 1813 1159 1816.5 1175 c 128,-1,14
 1820 1191 1820 1191 1823 1206.5 c 128,-1,15
 1826 1222 1826 1222 1827.5 1235.5 c 128,-1,16
 1829 1249 1829 1249 1829 1257 c 0,17,18
 1829 1310 1829 1310 1797.5 1332 c 128,-1,19
 1766 1354 1766 1354 1698 1354 c 2,20,-1
 1651 1354 l 1,21,-1
 1651 1462 l 1,22,-1
 2185 1462 l 1,23,-1
 2185 1354 l 1,24,-1
 2146 1354 l 2,25,26
 2116 1354 2116 1354 2093 1348 c 128,-1,27
 2070 1342 2070 1342 2052 1324.5 c 128,-1,28
 2034 1307 2034 1307 2019.5 1276 c 128,-1,29
 2005 1245 2005 1245 1991 1194 c 2,30,-1
 1673 0 l 1,31,-1
 1440 0 l 1,32,-1
 1096 961 l 1,33,-1
 801 0 l 1,34,-1
 547 0 l 1,35,-1
 172 1245 l 2,36,37
 163 1277 163 1277 150 1298 c 128,-1,38
 137 1319 137 1319 119.5 1331.5 c 128,-1,39
 102 1344 102 1344 79.5 1349 c 128,-1,40
 57 1354 57 1354 27 1354 c 2,41,-1
 0 1354 l 1,42,-1
 0 1462 l 1,43,-1
 684 1462 l 1,44,-1
 684 1354 l 1,45,-1
 637 1354 l 2,46,47
 575 1354 575 1354 544.5 1330 c 128,-1,48
 514 1306 514 1306 514 1255 c 0,49,50
 514 1238 514 1238 520.5 1205.5 c 128,-1,51
 527 1173 527 1173 535 1145 c 2,52,-1
 672 672 l 2,53,54
 683 633 683 633 695.5 587.5 c 128,-1,55
 708 542 708 542 719 495.5 c 128,-1,56
 730 449 730 449 739 406 c 128,-1,57
 748 363 748 363 752 330 c 1,58,59
 766 396 766 396 782.5 453.5 c 128,-1,60
 799 511 799 511 817 571 c 2,61,-1
 1087 1448 l 1,62,-1
 1237 1448 l 1,0,-1
EndSplineSet
EndChar
StartChar: X
Encoding: 88 88 808
Width: 1499
GlyphClass: 2
Flags: W
LayerCount: 2
Fore
SplineSet
1071 1294 m 0,0,1
 1071 1312 1071 1312 1062 1324 c 128,-1,2
 1053 1336 1053 1336 1037.5 1342.5 c 128,-1,3
 1022 1349 1022 1349 1001 1351.5 c 128,-1,4
 980 1354 980 1354 956 1354 c 2,5,-1
 950 1354 l 1,6,-1
 950 1462 l 1,7,-1
 1430 1462 l 1,8,-1
 1430 1354 l 1,9,-1
 1411 1354 l 2,10,11
 1381 1354 1381 1354 1357 1346.5 c 128,-1,12
 1333 1339 1333 1339 1309.5 1321.5 c 128,-1,13
 1286 1304 1286 1304 1262 1276 c 128,-1,14
 1238 1248 1238 1248 1208 1206 c 2,15,-1
 911 801 l 1,16,-1
 1288 217 l 2,17,18
 1328 154 1328 154 1371 131.5 c 128,-1,19
 1414 109 1414 109 1452 109 c 2,20,-1
 1479 109 l 1,21,-1
 1479 0 l 1,22,-1
 803 0 l 1,23,-1
 803 109 l 1,24,-1
 813 109 l 2,25,26
 936 109 936 109 936 176 c 0,27,28
 936 188 936 188 934 199 c 128,-1,29
 932 210 932 210 924.5 225 c 128,-1,30
 917 240 917 240 904 262 c 128,-1,31
 891 284 891 284 868 317 c 1,32,-1
 680 602 l 1,33,-1
 459 303 l 2,34,35
 440 277 440 277 423 243.5 c 128,-1,36
 406 210 406 210 406 178 c 0,37,38
 406 144 406 144 434 126.5 c 128,-1,39
 462 109 462 109 530 109 c 2,40,-1
 537 109 l 1,41,-1
 537 0 l 1,42,-1
 20 0 l 1,43,-1
 20 109 l 1,44,-1
 33 109 l 2,45,46
 70 109 70 109 98 119 c 128,-1,47
 126 129 126 129 150.5 147.5 c 128,-1,48
 175 166 175 166 198 192.5 c 128,-1,49
 221 219 221 219 246 252 c 2,50,-1
 604 719 l 1,51,-1
 266 1245 l 2,52,53
 249 1272 249 1272 232.5 1292.5 c 128,-1,54
 216 1313 216 1313 195.5 1326.5 c 128,-1,55
 175 1340 175 1340 150 1347 c 128,-1,56
 125 1354 125 1354 90 1354 c 2,57,-1
 63 1354 l 1,58,-1
 63 1462 l 1,59,-1
 741 1462 l 1,60,-1
 741 1354 l 1,61,-1
 735 1354 l 2,62,63
 700 1354 700 1354 676.5 1349.5 c 128,-1,64
 653 1345 653 1345 639 1336.5 c 128,-1,65
 625 1328 625 1328 619.5 1317 c 128,-1,66
 614 1306 614 1306 614 1294 c 0,67,68
 614 1273 614 1273 629.5 1241 c 128,-1,69
 645 1209 645 1209 668 1174 c 2,70,-1
 838 920 l 1,71,-1
 1016 1169 l 1,72,73
 1034 1197 1034 1197 1052.5 1231.5 c 128,-1,74
 1071 1266 1071 1266 1071 1294 c 0,0,1
EndSplineSet
EndChar
StartChar: Y
Encoding: 89 89 809
Width: 1419
GlyphClass: 2
Flags: W
LayerCount: 2
Fore
SplineSet
336 0 m 1,0,-1
 336 109 l 1,1,-1
 432 109 l 2,2,3
 457 109 457 109 478.5 112 c 128,-1,4
 500 115 500 115 516 127.5 c 128,-1,5
 532 140 532 140 541.5 165 c 128,-1,6
 551 190 551 190 551 233 c 2,7,-1
 551 518 l 1,8,-1
 172 1245 l 2,9,10
 157 1275 157 1275 143.5 1296 c 128,-1,11
 130 1317 130 1317 114 1329.5 c 128,-1,12
 98 1342 98 1342 77.5 1348 c 128,-1,13
 57 1354 57 1354 27 1354 c 2,14,-1
 0 1354 l 1,15,-1
 0 1462 l 1,16,-1
 686 1462 l 1,17,-1
 686 1354 l 1,18,-1
 651 1354 l 2,19,20
 589 1354 589 1354 558.5 1329 c 128,-1,21
 528 1304 528 1304 528 1262 c 0,22,23
 528 1236 528 1236 537.5 1205.5 c 128,-1,24
 547 1175 547 1175 559 1149 c 1,25,-1
 711 848 l 2,26,27
 743 783 743 783 763.5 733 c 128,-1,28
 784 683 784 683 801 635 c 1,29,30
 822 689 822 689 849.5 752.5 c 128,-1,31
 877 816 877 816 911 885 c 2,32,-1
 1030 1130 l 2,33,34
 1052 1175 1052 1175 1058.5 1205.5 c 128,-1,35
 1065 1236 1065 1236 1065 1253 c 0,36,37
 1065 1306 1065 1306 1031.5 1330 c 128,-1,38
 998 1354 998 1354 930 1354 c 2,39,-1
 883 1354 l 1,40,-1
 883 1462 l 1,41,-1
 1419 1462 l 1,42,-1
 1419 1354 l 1,43,-1
 1380 1354 l 2,44,45
 1354 1354 1354 1354 1335.5 1347 c 128,-1,46
 1317 1340 1317 1340 1300.5 1322 c 128,-1,47
 1284 1304 1284 1304 1266.5 1273 c 128,-1,48
 1249 1242 1249 1242 1225 1194 c 2,49,-1
 877 516 l 1,50,-1
 877 236 l 2,51,52
 877 191 877 191 886 166 c 128,-1,53
 895 141 895 141 910.5 128 c 128,-1,54
 926 115 926 115 946.5 112 c 128,-1,55
 967 109 967 109 991 109 c 2,56,-1
 1092 109 l 1,57,-1
 1092 0 l 1,58,-1
 336 0 l 1,0,-1
EndSplineSet
EndChar
StartChar: Z
Encoding: 90 90 810
Width: 1364
GlyphClass: 2
Flags: W
LayerCount: 2
Fore
SplineSet
1229 1358 m 1,0,-1
 459 125 l 1,1,-1
 901 125 l 2,2,3
 964 125 964 125 1004 142.5 c 128,-1,4
 1044 160 1044 160 1067.5 189 c 128,-1,5
 1091 218 1091 218 1101.5 254.5 c 128,-1,6
 1112 291 1112 291 1116 330 c 2,7,-1
 1126 422 l 1,8,-1
 1274 422 l 1,9,-1
 1264 0 l 1,10,-1
 86 0 l 1,11,-1
 86 102 l 1,12,-1
 854 1337 l 1,13,-1
 451 1337 l 2,14,15
 403 1337 403 1337 372 1324 c 128,-1,16
 341 1311 341 1311 322.5 1286.5 c 128,-1,17
 304 1262 304 1262 295.5 1227.5 c 128,-1,18
 287 1193 287 1193 283 1151 c 2,19,-1
 272 1040 l 1,20,-1
 125 1040 l 1,21,-1
 135 1462 l 1,22,-1
 1229 1462 l 1,23,-1
 1229 1358 l 1,0,-1
EndSplineSet
EndChar
StartChar: bracketleft
Encoding: 91 91 811
Width: 848
GlyphClass: 2
Flags: W
LayerCount: 2
Fore
SplineSet
205 -262 m 1,0,-1
 205 1556 l 1,1,-1
 772 1556 l 1,2,-1
 772 1448 l 1,3,-1
 684 1448 l 2,4,5
 650 1448 650 1448 619 1443 c 128,-1,6
 588 1438 588 1438 565.5 1422.5 c 128,-1,7
 543 1407 543 1407 529.5 1378 c 128,-1,8
 516 1349 516 1349 516 1300 c 2,9,-1
 516 -6 l 2,10,11
 516 -54 516 -54 529.5 -83.5 c 128,-1,12
 543 -113 543 -113 565.5 -128.5 c 128,-1,13
 588 -144 588 -144 619 -149 c 128,-1,14
 650 -154 650 -154 684 -154 c 2,15,-1
 772 -154 l 1,16,-1
 772 -262 l 1,17,-1
 205 -262 l 1,0,-1
EndSplineSet
EndChar
StartChar: backslash
Encoding: 92 92 812
Width: 590
GlyphClass: 2
Flags: W
LayerCount: 2
Fore
SplineSet
0 1556 m 1,0,-1
 145 1556 l 1,1,-1
 590 -248 l 1,2,-1
 442 -248 l 1,3,-1
 0 1556 l 1,0,-1
EndSplineSet
EndChar
StartChar: bracketright
Encoding: 93 93 813
Width: 848
GlyphClass: 2
Flags: W
LayerCount: 2
Fore
SplineSet
643 1556 m 1,0,-1
 643 -262 l 1,1,-1
 76 -262 l 1,2,-1
 76 -154 l 1,3,-1
 164 -154 l 2,4,5
 199 -154 199 -154 229.5 -149 c 128,-1,6
 260 -144 260 -144 282.5 -128.5 c 128,-1,7
 305 -113 305 -113 318.5 -83.5 c 128,-1,8
 332 -54 332 -54 332 -6 c 2,9,-1
 332 1300 l 2,10,11
 332 1349 332 1349 318.5 1378 c 128,-1,12
 305 1407 305 1407 282.5 1422.5 c 128,-1,13
 260 1438 260 1438 229.5 1443 c 128,-1,14
 199 1448 199 1448 164 1448 c 2,15,-1
 76 1448 l 1,16,-1
 76 1556 l 1,17,-1
 643 1556 l 1,0,-1
EndSplineSet
EndChar
StartChar: asciicircum
Encoding: 94 94 814
Width: 1145
GlyphClass: 2
Flags: W
LayerCount: 2
Fore
SplineSet
526 1462 m 1,0,-1
 614 1462 l 1,1,-1
 1049 537 l 1,2,-1
 889 537 l 1,3,-1
 569 1239 l 1,4,-1
 254 537 l 1,5,-1
 94 537 l 1,6,-1
 526 1462 l 1,0,-1
EndSplineSet
EndChar
StartChar: grave
Encoding: 96 96 816
Width: 1182
GlyphClass: 2
Flags: W
LayerCount: 2
Fore
SplineSet
713 1241 m 1,0,1
 665 1269 665 1269 606.5 1310.5 c 128,-1,2
 548 1352 548 1352 493.5 1396 c 128,-1,3
 439 1440 439 1440 395 1480.5 c 128,-1,4
 351 1521 351 1521 332 1548 c 1,5,-1
 332 1569 l 1,6,-1
 653 1569 l 1,7,8
 669 1535 669 1535 694 1494.5 c 128,-1,9
 719 1454 719 1454 746.5 1413.5 c 128,-1,10
 774 1373 774 1373 802 1335 c 128,-1,11
 830 1297 830 1297 852 1268 c 1,12,-1
 852 1241 l 1,13,-1
 713 1241 l 1,0,1
EndSplineSet
EndChar
StartChar: a
Encoding: 97 97 817
Width: 1227
GlyphClass: 2
Flags: W
LayerCount: 2
Fore
SplineSet
410 305 m 0,0,1
 410 217 410 217 438 173 c 128,-1,2
 466 129 466 129 526 129 c 0,3,4
 570 129 570 129 605.5 147.5 c 128,-1,5
 641 166 641 166 666.5 200 c 128,-1,6
 692 234 692 234 705.5 282.5 c 128,-1,7
 719 331 719 331 719 391 c 2,8,-1
 719 545 l 1,9,-1
 627 539 l 2,10,11
 566 536 566 536 524 519.5 c 128,-1,12
 482 503 482 503 457 474 c 128,-1,13
 432 445 432 445 421 403 c 128,-1,14
 410 361 410 361 410 305 c 0,0,1
592 999 m 0,15,16
 553 999 553 999 526.5 982.5 c 128,-1,17
 500 966 500 966 484 936.5 c 128,-1,18
 468 907 468 907 461.5 866.5 c 128,-1,19
 455 826 455 826 455 778 c 1,20,21
 317 778 317 778 247.5 809 c 128,-1,22
 178 840 178 840 178 915 c 0,23,24
 178 971 178 971 211.5 1011 c 128,-1,25
 245 1051 245 1051 302.5 1076 c 128,-1,26
 360 1101 360 1101 436.5 1112.5 c 128,-1,27
 513 1124 513 1124 600 1124 c 0,28,29
 708 1124 708 1124 788.5 1105.5 c 128,-1,30
 869 1087 869 1087 922.5 1046 c 128,-1,31
 976 1005 976 1005 1003 938.5 c 128,-1,32
 1030 872 1030 872 1030 776 c 2,33,-1
 1030 254 l 2,34,35
 1030 212 1030 212 1036.5 184 c 128,-1,36
 1043 156 1043 156 1057 139.5 c 128,-1,37
 1071 123 1071 123 1095 116 c 128,-1,38
 1119 109 1119 109 1153 109 c 2,39,-1
 1161 109 l 1,40,-1
 1161 0 l 1,41,-1
 780 0 l 1,42,-1
 737 141 l 1,43,-1
 719 141 l 1,44,45
 685 100 685 100 655 69.5 c 128,-1,46
 625 39 625 39 591 19 c 128,-1,47
 557 -1 557 -1 514.5 -10.5 c 128,-1,48
 472 -20 472 -20 414 -20 c 0,49,50
 346 -20 346 -20 287.5 0 c 128,-1,51
 229 20 229 20 185.5 61.5 c 128,-1,52
 142 103 142 103 117 165.5 c 128,-1,53
 92 228 92 228 92 313 c 0,54,55
 92 480 92 480 206.5 560 c 128,-1,56
 321 640 321 640 551 647 c 1,57,-1
 719 653 l 1,58,-1
 719 766 l 2,59,60
 719 817 719 817 715 860 c 128,-1,61
 711 903 711 903 698 934 c 128,-1,62
 685 965 685 965 659.5 982 c 128,-1,63
 634 999 634 999 592 999 c 0,15,16
EndSplineSet
EndChar
StartChar: b
Encoding: 98 98 818
Width: 1329
GlyphClass: 2
Flags: W
LayerCount: 2
Fore
SplineSet
1233 553 m 0,0,1
 1233 404 1233 404 1205.5 296 c 128,-1,2
 1178 188 1178 188 1125 117.5 c 128,-1,3
 1072 47 1072 47 993.5 13.5 c 128,-1,4
 915 -20 915 -20 813 -20 c 0,5,6
 754 -20 754 -20 706 -7 c 128,-1,7
 658 6 658 6 619.5 30 c 128,-1,8
 581 54 581 54 551.5 87 c 128,-1,9
 522 120 522 120 500 160 c 1,10,-1
 481 160 l 1,11,-1
 424 0 l 1,12,-1
 35 0 l 1,13,-1
 35 109 l 1,14,-1
 49 109 l 2,15,16
 78 109 78 109 106 114 c 128,-1,17
 134 119 134 119 156 134 c 128,-1,18
 178 149 178 149 191.5 177 c 128,-1,19
 205 205 205 205 205 252 c 2,20,-1
 205 1311 l 2,21,22
 205 1355 205 1355 192 1381.5 c 128,-1,23
 179 1408 179 1408 157 1423 c 128,-1,24
 135 1438 135 1438 105.5 1443 c 128,-1,25
 76 1448 76 1448 43 1448 c 2,26,-1
 35 1448 l 1,27,-1
 35 1556 l 1,28,-1
 516 1556 l 1,29,-1
 516 1206 l 2,30,31
 516 1174 516 1174 513.5 1131 c 128,-1,32
 511 1088 511 1088 508 1050 c 0,33,34
 504 1005 504 1005 500 958 c 1,35,-1
 514 958 l 1,36,37
 558 1034 558 1034 631.5 1078 c 128,-1,38
 705 1122 705 1122 821 1122 c 0,39,40
 921 1122 921 1122 997.5 1088.5 c 128,-1,41
 1074 1055 1074 1055 1126.5 985.5 c 128,-1,42
 1179 916 1179 916 1206 808.5 c 128,-1,43
 1233 701 1233 701 1233 553 c 0,0,1
725 971 m 0,44,45
 664 971 664 971 624 945.5 c 128,-1,46
 584 920 584 920 560 868 c 128,-1,47
 536 816 536 816 526 737.5 c 128,-1,48
 516 659 516 659 516 553 c 0,49,50
 516 452 516 452 526 373.5 c 128,-1,51
 536 295 536 295 560 241.5 c 128,-1,52
 584 188 584 188 625 160.5 c 128,-1,53
 666 133 666 133 727 133 c 0,54,55
 828 133 828 133 873 242 c 128,-1,56
 918 351 918 351 918 555 c 0,57,58
 918 764 918 764 873 867.5 c 128,-1,59
 828 971 828 971 725 971 c 0,44,45
EndSplineSet
EndChar
StartChar: c
Encoding: 99 99 819
Width: 1079
GlyphClass: 2
Flags: W
LayerCount: 2
Fore
SplineSet
604 -20 m 0,0,1
 491 -20 491 -20 397.5 9 c 128,-1,2
 304 38 304 38 237 105 c 128,-1,3
 170 172 170 172 133 280 c 128,-1,4
 96 388 96 388 96 545 c 0,5,6
 96 711 96 711 134.5 822 c 128,-1,7
 173 933 173 933 240.5 1000 c 128,-1,8
 308 1067 308 1067 400 1095.5 c 128,-1,9
 492 1124 492 1124 598 1124 c 0,10,11
 697 1124 697 1124 773 1107.5 c 128,-1,12
 849 1091 849 1091 900 1062 c 128,-1,13
 951 1033 951 1033 977.5 993.5 c 128,-1,14
 1004 954 1004 954 1004 909 c 0,15,16
 1004 876 1004 876 992.5 844.5 c 128,-1,17
 981 813 981 813 951.5 789 c 128,-1,18
 922 765 922 765 870.5 750 c 128,-1,19
 819 735 819 735 739 735 c 1,20,21
 739 788 739 788 732.5 836 c 128,-1,22
 726 884 726 884 711 920 c 128,-1,23
 696 956 696 956 670.5 977.5 c 128,-1,24
 645 999 645 999 606 999 c 0,25,26
 561 999 561 999 525.5 977.5 c 128,-1,27
 490 956 490 956 464.5 904 c 128,-1,28
 439 852 439 852 425.5 765 c 128,-1,29
 412 678 412 678 412 547 c 0,30,31
 412 339 412 339 469 236 c 128,-1,32
 526 133 526 133 655 133 c 0,33,34
 708 133 708 133 754.5 145.5 c 128,-1,35
 801 158 801 158 839 180.5 c 128,-1,36
 877 203 877 203 905.5 233.5 c 128,-1,37
 934 264 934 264 952 299 c 1,38,39
 977 284 977 284 989 258.5 c 128,-1,40
 1001 233 1001 233 1001 205 c 0,41,42
 1001 166 1001 166 978 126 c 128,-1,43
 955 86 955 86 906.5 53.5 c 128,-1,44
 858 21 858 21 783 0.5 c 128,-1,45
 708 -20 708 -20 604 -20 c 0,0,1
EndSplineSet
EndChar
StartChar: d
Encoding: 100 100 820
Width: 1329
GlyphClass: 2
Flags: W
LayerCount: 2
Fore
SplineSet
1122 252 m 2,0,1
 1122 205 1122 205 1136 177 c 128,-1,2
 1150 149 1150 149 1173.5 134 c 128,-1,3
 1197 119 1197 119 1227.5 114 c 128,-1,4
 1258 109 1258 109 1292 109 c 2,5,-1
 1300 109 l 1,6,-1
 1300 0 l 1,7,-1
 903 0 l 1,8,-1
 846 160 l 1,9,-1
 827 160 l 1,10,11
 804 118 804 118 774.5 85 c 128,-1,12
 745 52 745 52 706.5 28.5 c 128,-1,13
 668 5 668 5 620 -7.5 c 128,-1,14
 572 -20 572 -20 512 -20 c 0,15,16
 412 -20 412 -20 334 13.5 c 128,-1,17
 256 47 256 47 202.5 116.5 c 128,-1,18
 149 186 149 186 121.5 293 c 128,-1,19
 94 400 94 400 94 547 c 0,20,21
 94 695 94 695 121.5 803.5 c 128,-1,22
 149 912 149 912 202 982.5 c 128,-1,23
 255 1053 255 1053 332 1087.5 c 128,-1,24
 409 1122 409 1122 508 1122 c 0,25,26
 566 1122 566 1122 612.5 1109.5 c 128,-1,27
 659 1097 659 1097 696.5 1075.5 c 128,-1,28
 734 1054 734 1054 763 1024 c 128,-1,29
 792 994 792 994 813 958 c 1,30,-1
 827 958 l 1,31,32
 823 1015 823 1015 819 1065 c 0,33,34
 818 1086 818 1086 816.5 1108 c 128,-1,35
 815 1130 815 1130 813.5 1149.5 c 128,-1,36
 812 1169 812 1169 811.5 1184 c 128,-1,37
 811 1199 811 1199 811 1208 c 2,38,-1
 811 1321 l 2,39,40
 811 1363 811 1363 797.5 1388.5 c 128,-1,41
 784 1414 784 1414 761.5 1427 c 128,-1,42
 739 1440 739 1440 709 1444 c 128,-1,43
 679 1448 679 1448 645 1448 c 2,44,-1
 629 1448 l 1,45,-1
 629 1556 l 1,46,-1
 1122 1556 l 1,47,-1
 1122 252 l 2,0,1
600 133 m 0,48,49
 661 133 661 133 701.5 158.5 c 128,-1,50
 742 184 742 184 766.5 236 c 128,-1,51
 791 288 791 288 801 366.5 c 128,-1,52
 811 445 811 445 811 551 c 0,53,54
 811 652 811 652 801 730.5 c 128,-1,55
 791 809 791 809 766.5 862.5 c 128,-1,56
 742 916 742 916 701.5 943.5 c 128,-1,57
 661 971 661 971 600 971 c 0,58,59
 549 971 549 971 512.5 943.5 c 128,-1,60
 476 916 476 916 453.5 862 c 128,-1,61
 431 808 431 808 420.5 729.5 c 128,-1,62
 410 651 410 651 410 549 c 0,63,64
 410 340 410 340 453.5 236.5 c 128,-1,65
 497 133 497 133 600 133 c 0,48,49
EndSplineSet
EndChar
StartChar: e
Encoding: 101 101 821
Width: 1169
GlyphClass: 2
Flags: W
LayerCount: 2
Fore
SplineSet
608 991 m 0,0,1
 522 991 522 991 471.5 906 c 128,-1,2
 421 821 421 821 416 657 c 1,3,-1
 770 657 l 1,4,5
 770 735 770 735 761 797 c 128,-1,6
 752 859 752 859 732.5 902 c 128,-1,7
 713 945 713 945 682.5 968 c 128,-1,8
 652 991 652 991 608 991 c 0,0,1
627 -20 m 0,9,10
 497 -20 497 -20 397.5 18 c 128,-1,11
 298 56 298 56 231 128 c 128,-1,12
 164 200 164 200 130 304.5 c 128,-1,13
 96 409 96 409 96 543 c 0,14,15
 96 687 96 687 130 796 c 128,-1,16
 164 905 164 905 229 978 c 128,-1,17
 294 1051 294 1051 388.5 1087.5 c 128,-1,18
 483 1124 483 1124 604 1124 c 0,19,20
 715 1124 715 1124 804 1092.5 c 128,-1,21
 893 1061 893 1061 955 999 c 128,-1,22
 1017 937 1017 937 1050 845 c 128,-1,23
 1083 753 1083 753 1083 631 c 2,24,-1
 1083 526 l 1,25,-1
 412 526 l 1,26,27
 415 423 415 423 434.5 349 c 128,-1,28
 454 275 454 275 488.5 227 c 128,-1,29
 523 179 523 179 572.5 156 c 128,-1,30
 622 133 622 133 686 133 c 0,31,32
 739 133 739 133 784 145.5 c 128,-1,33
 829 158 829 158 865.5 180.5 c 128,-1,34
 902 203 902 203 929.5 233.5 c 128,-1,35
 957 264 957 264 975 299 c 1,36,37
 1030 269 1030 269 1030 199 c 0,38,39
 1030 155 1030 155 1006 115.5 c 128,-1,40
 982 76 982 76 932 46 c 128,-1,41
 882 16 882 16 806.5 -2 c 128,-1,42
 731 -20 731 -20 627 -20 c 0,9,10
EndSplineSet
EndChar
StartChar: f
Encoding: 102 102 822
Width: 834
GlyphClass: 2
Flags: W
LayerCount: 2
Fore
SplineSet
39 0 m 1,0,-1
 39 109 l 1,1,-1
 84 109 l 2,2,3
 106 109 106 109 131.5 113.5 c 128,-1,4
 157 118 157 118 178.5 132 c 128,-1,5
 200 146 200 146 214.5 172 c 128,-1,6
 229 198 229 198 229 242 c 2,7,-1
 229 958 l 1,8,-1
 47 958 l 1,9,-1
 47 1098 l 1,10,-1
 229 1098 l 1,11,-1
 229 1174 l 2,12,13
 229 1269 229 1269 253.5 1343.5 c 128,-1,14
 278 1418 278 1418 329.5 1469.5 c 128,-1,15
 381 1521 381 1521 460 1548 c 128,-1,16
 539 1575 539 1575 647 1575 c 0,17,18
 746 1575 746 1575 812 1563.5 c 128,-1,19
 878 1552 878 1552 917 1531.5 c 128,-1,20
 956 1511 956 1511 972.5 1484 c 128,-1,21
 989 1457 989 1457 989 1425 c 0,22,23
 989 1356 989 1356 926.5 1324 c 128,-1,24
 864 1292 864 1292 737 1292 c 1,25,26
 737 1317 737 1317 732 1346 c 128,-1,27
 727 1375 727 1375 715 1400 c 128,-1,28
 703 1425 703 1425 683.5 1441.5 c 128,-1,29
 664 1458 664 1458 635 1458 c 0,30,31
 610 1458 610 1458 592 1444.5 c 128,-1,32
 574 1431 574 1431 562.5 1401.5 c 128,-1,33
 551 1372 551 1372 546 1325 c 128,-1,34
 541 1278 541 1278 541 1210 c 2,35,-1
 541 1098 l 1,36,-1
 823 1098 l 1,37,-1
 823 958 l 1,38,-1
 541 958 l 1,39,-1
 541 242 l 2,40,41
 541 198 541 198 555.5 172 c 128,-1,42
 570 146 570 146 591.5 132 c 128,-1,43
 613 118 613 118 638.5 113.5 c 128,-1,44
 664 109 664 109 686 109 c 2,45,-1
 782 109 l 1,46,-1
 782 0 l 1,47,-1
 39 0 l 1,0,-1
EndSplineSet
EndChar
StartChar: g
Encoding: 103 103 823
Width: 1147
GlyphClass: 2
Flags: W
LayerCount: 2
Fore
SplineSet
1137 1059 m 0,0,1
 1137 1036 1137 1036 1130 1014.5 c 128,-1,2
 1123 993 1123 993 1106.5 977 c 128,-1,3
 1090 961 1090 961 1061.5 951.5 c 128,-1,4
 1033 942 1033 942 991 942 c 1,5,6
 991 963 991 963 984.5 979 c 128,-1,7
 978 995 978 995 967 1006 c 128,-1,8
 956 1017 956 1017 942 1022.5 c 128,-1,9
 928 1028 928 1028 913 1028 c 0,10,11
 896 1028 896 1028 876.5 1021 c 128,-1,12
 857 1014 857 1014 846 1006 c 1,13,14
 867 983 867 983 885 953.5 c 128,-1,15
 903 924 903 924 916.5 890 c 128,-1,16
 930 856 930 856 938 819.5 c 128,-1,17
 946 783 946 783 946 745 c 0,18,19
 946 668 946 668 921.5 602.5 c 128,-1,20
 897 537 897 537 846 489 c 128,-1,21
 795 441 795 441 717 414 c 128,-1,22
 639 387 639 387 532 387 c 0,23,24
 521 387 521 387 504 387.5 c 128,-1,25
 487 388 487 388 470 388.5 c 128,-1,26
 453 389 453 389 437.5 390.5 c 128,-1,27
 422 392 422 392 414 393 c 1,28,29
 401 386 401 386 387.5 375.5 c 128,-1,30
 374 365 374 365 363.5 352 c 128,-1,31
 353 339 353 339 346.5 323 c 128,-1,32
 340 307 340 307 340 289 c 0,33,34
 340 255 340 255 366.5 239 c 128,-1,35
 393 223 393 223 436 223 c 2,36,-1
 684 223 l 2,37,38
 786 223 786 223 860 201.5 c 128,-1,39
 934 180 934 180 982.5 140 c 128,-1,40
 1031 100 1031 100 1054 41.5 c 128,-1,41
 1077 -17 1077 -17 1077 -90 c 0,42,43
 1077 -185 1077 -185 1041 -259.5 c 128,-1,44
 1005 -334 1005 -334 931.5 -385.5 c 128,-1,45
 858 -437 858 -437 746.5 -464.5 c 128,-1,46
 635 -492 635 -492 483 -492 c 0,47,48
 241 -492 241 -492 122.5 -419.5 c 128,-1,49
 4 -347 4 -347 4 -207 c 0,50,51
 4 -97 4 -97 75 -38.5 c 128,-1,52
 146 20 146 20 281 31 c 1,53,54
 253 42 253 42 226 58 c 128,-1,55
 199 74 199 74 178 96.5 c 128,-1,56
 157 119 157 119 144 148 c 128,-1,57
 131 177 131 177 131 213 c 0,58,59
 131 247 131 247 144.5 276 c 128,-1,60
 158 305 158 305 182 331.5 c 128,-1,61
 206 358 206 358 239.5 381.5 c 128,-1,62
 273 405 273 405 313 428 c 1,63,64
 268 444 268 444 229.5 472.5 c 128,-1,65
 191 501 191 501 163.5 541 c 128,-1,66
 136 581 136 581 120 632 c 128,-1,67
 104 683 104 683 104 745 c 0,68,69
 104 925 104 925 208.5 1024.5 c 128,-1,70
 313 1124 313 1124 532 1124 c 0,71,72
 605 1124 605 1124 667.5 1105.5 c 128,-1,73
 730 1087 730 1087 776 1061 c 1,74,75
 793 1079 793 1079 813.5 1099.5 c 128,-1,76
 834 1120 834 1120 860 1137 c 128,-1,77
 886 1154 886 1154 918 1165 c 128,-1,78
 950 1176 950 1176 989 1176 c 0,79,80
 1026 1176 1026 1176 1053.5 1166.5 c 128,-1,81
 1081 1157 1081 1157 1099.5 1141 c 128,-1,82
 1118 1125 1118 1125 1127.5 1104 c 128,-1,83
 1137 1083 1137 1083 1137 1059 c 0,0,1
246 -203 m 0,84,85
 246 -288 246 -288 307.5 -328.5 c 128,-1,86
 369 -369 369 -369 487 -369 c 0,87,88
 667 -369 667 -369 749 -317 c 128,-1,89
 831 -265 831 -265 831 -164 c 0,90,91
 831 -99 831 -99 790 -73 c 128,-1,92
 749 -47 749 -47 666 -47 c 2,93,-1
 428 -47 l 2,94,95
 397 -47 397 -47 365 -52.5 c 128,-1,96
 333 -58 333 -58 306.5 -75 c 128,-1,97
 280 -92 280 -92 263 -122.5 c 128,-1,98
 246 -153 246 -153 246 -203 c 0,84,85
383 745 m 0,99,100
 383 691 383 691 390.5 647.5 c 128,-1,101
 398 604 398 604 415 573 c 128,-1,102
 432 542 432 542 459 525 c 128,-1,103
 486 508 486 508 526 508 c 0,104,105
 567 508 567 508 594 524.5 c 128,-1,106
 621 541 621 541 637 572.5 c 128,-1,107
 653 604 653 604 659.5 648.5 c 128,-1,108
 666 693 666 693 666 748 c 0,109,110
 666 805 666 805 659 851.5 c 128,-1,111
 652 898 652 898 635.5 931 c 128,-1,112
 619 964 619 964 592 982.5 c 128,-1,113
 565 1001 565 1001 524 1001 c 0,114,115
 484 1001 484 1001 457 982 c 128,-1,116
 430 963 430 963 413.5 929 c 128,-1,117
 397 895 397 895 390 848 c 128,-1,118
 383 801 383 801 383 745 c 0,99,100
EndSplineSet
EndChar
StartChar: h
Encoding: 104 104 824
Width: 1366
GlyphClass: 2
Flags: W
LayerCount: 2
Fore
SplineSet
858 0 m 1,0,-1
 858 674 l 2,1,2
 858 740 858 740 849.5 791.5 c 128,-1,3
 841 843 841 843 821.5 878 c 128,-1,4
 802 913 802 913 770.5 931.5 c 128,-1,5
 739 950 739 950 694 950 c 0,6,7
 643 950 643 950 609 924 c 128,-1,8
 575 898 575 898 554.5 854.5 c 128,-1,9
 534 811 534 811 525 753.5 c 128,-1,10
 516 696 516 696 516 633 c 2,11,-1
 516 242 l 2,12,13
 516 199 516 199 526.5 173 c 128,-1,14
 537 147 537 147 556 132.5 c 128,-1,15
 575 118 575 118 602.5 113.5 c 128,-1,16
 630 109 630 109 664 109 c 2,17,-1
 670 109 l 1,18,-1
 670 0 l 1,19,-1
 41 0 l 1,20,-1
 41 109 l 1,21,-1
 45 109 l 2,22,23
 80 109 80 109 109 113.5 c 128,-1,24
 138 118 138 118 159.5 133 c 128,-1,25
 181 148 181 148 193 176 c 128,-1,26
 205 204 205 204 205 250 c 2,27,-1
 205 1323 l 2,28,29
 205 1364 205 1364 190.5 1388.5 c 128,-1,30
 176 1413 176 1413 154 1426.5 c 128,-1,31
 132 1440 132 1440 106.5 1444 c 128,-1,32
 81 1448 81 1448 59 1448 c 2,33,-1
 35 1448 l 1,34,-1
 35 1556 l 1,35,-1
 516 1556 l 1,36,-1
 516 1219 l 2,37,38
 516 1179 516 1179 513.5 1133 c 128,-1,39
 511 1087 511 1087 508 1048 c 0,40,41
 504 1002 504 1002 500 958 c 1,42,-1
 518 958 l 1,43,44
 549 1016 549 1016 583.5 1049 c 128,-1,45
 618 1082 618 1082 657 1098.5 c 128,-1,46
 696 1115 696 1115 739.5 1119.5 c 128,-1,47
 783 1124 783 1124 831 1124 c 0,48,49
 910 1124 910 1124 973 1101 c 128,-1,50
 1036 1078 1036 1078 1079.5 1030 c 128,-1,51
 1123 982 1123 982 1146 907.5 c 128,-1,52
 1169 833 1169 833 1169 729 c 2,53,-1
 1169 254 l 2,54,55
 1169 206 1169 206 1177.5 177.5 c 128,-1,56
 1186 149 1186 149 1203 134 c 128,-1,57
 1220 119 1220 119 1246 114 c 128,-1,58
 1272 109 1272 109 1307 109 c 2,59,-1
 1313 109 l 1,60,-1
 1313 0 l 1,61,-1
 858 0 l 1,0,-1
EndSplineSet
EndChar
StartChar: i
Encoding: 105 105 825
Width: 721
GlyphClass: 2
Flags: W
LayerCount: 2
Fore
SplineSet
176 1430 m 0,0,1
 176 1469 176 1469 189.5 1497 c 128,-1,2
 203 1525 203 1525 226.5 1542.5 c 128,-1,3
 250 1560 250 1560 281.5 1568.5 c 128,-1,4
 313 1577 313 1577 350 1577 c 0,5,6
 385 1577 385 1577 417 1568.5 c 128,-1,7
 449 1560 449 1560 473 1542.5 c 128,-1,8
 497 1525 497 1525 511.5 1497 c 128,-1,9
 526 1469 526 1469 526 1430 c 0,10,11
 526 1392 526 1392 511.5 1364 c 128,-1,12
 497 1336 497 1336 473 1318 c 128,-1,13
 449 1300 449 1300 417 1291 c 128,-1,14
 385 1282 385 1282 350 1282 c 0,15,16
 313 1282 313 1282 281.5 1291 c 128,-1,17
 250 1300 250 1300 226.5 1318 c 128,-1,18
 203 1336 203 1336 189.5 1364 c 128,-1,19
 176 1392 176 1392 176 1430 c 0,0,1
59 109 m 2,20,21
 82 109 82 109 107.5 113.5 c 128,-1,22
 133 118 133 118 154.5 132 c 128,-1,23
 176 146 176 146 190.5 172 c 128,-1,24
 205 198 205 198 205 242 c 2,25,-1
 205 864 l 2,26,27
 205 905 205 905 190.5 929.5 c 128,-1,28
 176 954 176 954 154 967.5 c 128,-1,29
 132 981 132 981 106.5 985 c 128,-1,30
 81 989 81 989 59 989 c 2,31,-1
 35 989 l 1,32,-1
 35 1098 l 1,33,-1
 516 1098 l 1,34,-1
 516 242 l 2,35,36
 516 198 516 198 530.5 172 c 128,-1,37
 545 146 545 146 566.5 132 c 128,-1,38
 588 118 588 118 614 113.5 c 128,-1,39
 640 109 640 109 662 109 c 2,40,-1
 686 109 l 1,41,-1
 686 0 l 1,42,-1
 35 0 l 1,43,-1
 35 109 l 1,44,-1
 59 109 l 2,20,21
EndSplineSet
EndChar
StartChar: j
Encoding: 106 106 826
Width: 707
GlyphClass: 2
Flags: W
LayerCount: 2
Fore
SplineSet
516 1098 m 1,0,-1
 516 -16 l 2,1,2
 516 -154 516 -154 477.5 -245.5 c 128,-1,3
 439 -337 439 -337 370.5 -391.5 c 128,-1,4
 302 -446 302 -446 207.5 -469 c 128,-1,5
 113 -492 113 -492 0 -492 c 2,6,-1
 -41 -492 l 1,7,-1
 -41 -365 l 1,8,-1
 -27 -365 l 2,9,10
 29 -365 29 -365 72.5 -347 c 128,-1,11
 116 -329 116 -329 145.5 -287 c 128,-1,12
 175 -245 175 -245 190 -175 c 128,-1,13
 205 -105 205 -105 205 0 c 2,14,-1
 205 854 l 2,15,16
 205 898 205 898 192 924.5 c 128,-1,17
 179 951 179 951 156.5 965.5 c 128,-1,18
 134 980 134 980 104 984.5 c 128,-1,19
 74 989 74 989 41 989 c 2,20,-1
 35 989 l 1,21,-1
 35 1098 l 1,22,-1
 516 1098 l 1,0,-1
178 1430 m 0,23,24
 178 1469 178 1469 191.5 1497 c 128,-1,25
 205 1525 205 1525 228.5 1542.5 c 128,-1,26
 252 1560 252 1560 283.5 1568.5 c 128,-1,27
 315 1577 315 1577 352 1577 c 0,28,29
 387 1577 387 1577 419 1568.5 c 128,-1,30
 451 1560 451 1560 475 1542.5 c 128,-1,31
 499 1525 499 1525 513.5 1497 c 128,-1,32
 528 1469 528 1469 528 1430 c 0,33,34
 528 1392 528 1392 513.5 1364 c 128,-1,35
 499 1336 499 1336 475 1318 c 128,-1,36
 451 1300 451 1300 419 1291 c 128,-1,37
 387 1282 387 1282 352 1282 c 0,38,39
 315 1282 315 1282 283.5 1291 c 128,-1,40
 252 1300 252 1300 228.5 1318 c 128,-1,41
 205 1336 205 1336 191.5 1364 c 128,-1,42
 178 1392 178 1392 178 1430 c 0,23,24
EndSplineSet
EndChar
StartChar: k
Encoding: 107 107 827
Width: 1303
GlyphClass: 2
Flags: W
LayerCount: 2
Fore
SplineSet
1303 0 m 1,0,-1
 1274 0 l 2,1,2
 1162 0 1162 0 1086 5 c 128,-1,3
 1010 10 1010 10 955 28 c 128,-1,4
 900 46 900 46 860 82.5 c 128,-1,5
 820 119 820 119 780 182 c 2,6,-1
 598 469 l 1,7,-1
 516 408 l 1,8,-1
 516 242 l 2,9,10
 516 198 516 198 530.5 172 c 128,-1,11
 545 146 545 146 566.5 132 c 128,-1,12
 588 118 588 118 614 113.5 c 128,-1,13
 640 109 640 109 662 109 c 2,14,-1
 686 109 l 1,15,-1
 686 0 l 1,16,-1
 35 0 l 1,17,-1
 35 109 l 1,18,-1
 59 109 l 2,19,20
 82 109 82 109 107.5 113.5 c 128,-1,21
 133 118 133 118 154.5 132 c 128,-1,22
 176 146 176 146 190.5 172 c 128,-1,23
 205 198 205 198 205 242 c 2,24,-1
 205 1323 l 2,25,26
 205 1364 205 1364 190.5 1388.5 c 128,-1,27
 176 1413 176 1413 154 1426.5 c 128,-1,28
 132 1440 132 1440 106.5 1444 c 128,-1,29
 81 1448 81 1448 59 1448 c 2,30,-1
 35 1448 l 1,31,-1
 35 1556 l 1,32,-1
 516 1556 l 1,33,-1
 516 766 l 2,34,35
 516 738 516 738 514.5 701.5 c 128,-1,36
 513 665 513 665 511 632 c 0,37,38
 508 593 508 593 506 553 c 1,39,-1
 764 842 l 2,40,41
 798 880 798 880 808.5 902.5 c 128,-1,42
 819 925 819 925 819 940 c 0,43,44
 819 966 819 966 791.5 980.5 c 128,-1,45
 764 995 764 995 713 995 c 1,46,-1
 713 1098 l 1,47,-1
 1229 1098 l 1,48,-1
 1229 995 l 1,49,50
 1158 995 1158 995 1089.5 953.5 c 128,-1,51
 1021 912 1021 912 940 821 c 2,52,-1
 811 674 l 1,53,-1
 1083 268 l 2,54,55
 1137 187 1137 187 1192 148 c 128,-1,56
 1247 109 1247 109 1296 109 c 2,57,-1
 1303 109 l 1,58,-1
 1303 0 l 1,0,-1
EndSplineSet
EndChar
StartChar: l
Encoding: 108 108 828
Width: 721
GlyphClass: 2
Flags: W
LayerCount: 2
Fore
SplineSet
59 109 m 2,0,1
 82 109 82 109 107.5 113.5 c 128,-1,2
 133 118 133 118 154.5 132 c 128,-1,3
 176 146 176 146 190.5 172 c 128,-1,4
 205 198 205 198 205 242 c 2,5,-1
 205 1323 l 2,6,7
 205 1364 205 1364 190.5 1388.5 c 128,-1,8
 176 1413 176 1413 154 1426.5 c 128,-1,9
 132 1440 132 1440 106.5 1444 c 128,-1,10
 81 1448 81 1448 59 1448 c 2,11,-1
 35 1448 l 1,12,-1
 35 1556 l 1,13,-1
 516 1556 l 1,14,-1
 516 242 l 2,15,16
 516 198 516 198 530.5 172 c 128,-1,17
 545 146 545 146 566.5 132 c 128,-1,18
 588 118 588 118 614 113.5 c 128,-1,19
 640 109 640 109 662 109 c 2,20,-1
 686 109 l 1,21,-1
 686 0 l 1,22,-1
 35 0 l 1,23,-1
 35 109 l 1,24,-1
 59 109 l 2,0,1
EndSplineSet
EndChar
StartChar: m
Encoding: 109 109 829
Width: 2019
GlyphClass: 2
Flags: W
LayerCount: 2
Fore
SplineSet
858 0 m 1,0,-1
 858 674 l 2,1,2
 858 740 858 740 849.5 791.5 c 128,-1,3
 841 843 841 843 821.5 878 c 128,-1,4
 802 913 802 913 770.5 931.5 c 128,-1,5
 739 950 739 950 694 950 c 0,6,7
 643 950 643 950 609 924 c 128,-1,8
 575 898 575 898 554.5 854.5 c 128,-1,9
 534 811 534 811 525 753.5 c 128,-1,10
 516 696 516 696 516 633 c 2,11,-1
 516 242 l 2,12,13
 516 199 516 199 526.5 173 c 128,-1,14
 537 147 537 147 556 132.5 c 128,-1,15
 575 118 575 118 602.5 113.5 c 128,-1,16
 630 109 630 109 664 109 c 2,17,-1
 670 109 l 1,18,-1
 670 0 l 1,19,-1
 41 0 l 1,20,-1
 41 109 l 1,21,-1
 45 109 l 2,22,23
 80 109 80 109 109 113.5 c 128,-1,24
 138 118 138 118 159.5 133 c 128,-1,25
 181 148 181 148 193 176 c 128,-1,26
 205 204 205 204 205 250 c 2,27,-1
 205 862 l 2,28,29
 205 905 205 905 194.5 931 c 128,-1,30
 184 957 184 957 164.5 971.5 c 128,-1,31
 145 986 145 986 118 990.5 c 128,-1,32
 91 995 91 995 57 995 c 2,33,-1
 51 995 l 1,34,-1
 51 1098 l 1,35,-1
 481 1098 l 1,36,-1
 508 952 l 1,37,-1
 518 952 l 1,38,39
 549 1010 549 1010 583.5 1044 c 128,-1,40
 618 1078 618 1078 657 1096 c 128,-1,41
 696 1114 696 1114 739.5 1119 c 128,-1,42
 783 1124 783 1124 831 1124 c 0,43,44
 944 1124 944 1124 1024 1083.5 c 128,-1,45
 1104 1043 1104 1043 1141 952 c 1,46,-1
 1159 952 l 1,47,48
 1190 1010 1190 1010 1226.5 1044 c 128,-1,49
 1263 1078 1263 1078 1304.5 1096 c 128,-1,50
 1346 1114 1346 1114 1391.5 1119 c 128,-1,51
 1437 1124 1437 1124 1485 1124 c 0,52,53
 1564 1124 1564 1124 1627 1101 c 128,-1,54
 1690 1078 1690 1078 1733.5 1030 c 128,-1,55
 1777 982 1777 982 1800 907.5 c 128,-1,56
 1823 833 1823 833 1823 729 c 2,57,-1
 1823 254 l 2,58,59
 1823 206 1823 206 1831.5 177.5 c 128,-1,60
 1840 149 1840 149 1857 134 c 128,-1,61
 1874 119 1874 119 1900 114 c 128,-1,62
 1926 109 1926 109 1960 109 c 2,63,-1
 1966 109 l 1,64,-1
 1966 0 l 1,65,-1
 1511 0 l 1,66,-1
 1511 674 l 2,67,68
 1511 806 1511 806 1474.5 878 c 128,-1,69
 1438 950 1438 950 1348 950 c 0,70,71
 1300 950 1300 950 1266 926.5 c 128,-1,72
 1232 903 1232 903 1210.5 863 c 128,-1,73
 1189 823 1189 823 1179 769.5 c 128,-1,74
 1169 716 1169 716 1169 657 c 2,75,-1
 1169 254 l 2,76,77
 1169 206 1169 206 1177.5 177.5 c 128,-1,78
 1186 149 1186 149 1203 134 c 128,-1,79
 1220 119 1220 119 1246 114 c 128,-1,80
 1272 109 1272 109 1307 109 c 2,81,-1
 1313 109 l 1,82,-1
 1313 0 l 1,83,-1
 858 0 l 1,0,-1
EndSplineSet
EndChar
StartChar: n
Encoding: 110 110 830
Width: 1366
GlyphClass: 2
Flags: W
LayerCount: 2
Fore
SplineSet
858 0 m 1,0,-1
 858 674 l 2,1,2
 858 740 858 740 849.5 791.5 c 128,-1,3
 841 843 841 843 821.5 878 c 128,-1,4
 802 913 802 913 770.5 931.5 c 128,-1,5
 739 950 739 950 694 950 c 0,6,7
 643 950 643 950 609 924 c 128,-1,8
 575 898 575 898 554.5 854.5 c 128,-1,9
 534 811 534 811 525 753.5 c 128,-1,10
 516 696 516 696 516 633 c 2,11,-1
 516 242 l 2,12,13
 516 199 516 199 526.5 173 c 128,-1,14
 537 147 537 147 556 132.5 c 128,-1,15
 575 118 575 118 602.5 113.5 c 128,-1,16
 630 109 630 109 664 109 c 2,17,-1
 670 109 l 1,18,-1
 670 0 l 1,19,-1
 41 0 l 1,20,-1
 41 109 l 1,21,-1
 45 109 l 2,22,23
 80 109 80 109 109 113.5 c 128,-1,24
 138 118 138 118 159.5 133 c 128,-1,25
 181 148 181 148 193 176 c 128,-1,26
 205 204 205 204 205 250 c 2,27,-1
 205 856 l 2,28,29
 205 899 205 899 194.5 925 c 128,-1,30
 184 951 184 951 164.5 965.5 c 128,-1,31
 145 980 145 980 118 984.5 c 128,-1,32
 91 989 91 989 57 989 c 2,33,-1
 51 989 l 1,34,-1
 51 1098 l 1,35,-1
 481 1098 l 1,36,-1
 508 952 l 1,37,-1
 518 952 l 1,38,39
 549 1010 549 1010 583.5 1044 c 128,-1,40
 618 1078 618 1078 657 1096 c 128,-1,41
 696 1114 696 1114 739.5 1119 c 128,-1,42
 783 1124 783 1124 831 1124 c 0,43,44
 910 1124 910 1124 973 1101 c 128,-1,45
 1036 1078 1036 1078 1079.5 1030 c 128,-1,46
 1123 982 1123 982 1146 907.5 c 128,-1,47
 1169 833 1169 833 1169 729 c 2,48,-1
 1169 254 l 2,49,50
 1169 206 1169 206 1177.5 177.5 c 128,-1,51
 1186 149 1186 149 1203 134 c 128,-1,52
 1220 119 1220 119 1246 114 c 128,-1,53
 1272 109 1272 109 1307 109 c 2,54,-1
 1313 109 l 1,55,-1
 1313 0 l 1,56,-1
 858 0 l 1,0,-1
EndSplineSet
EndChar
StartChar: o
Encoding: 111 111 831
Width: 1255
GlyphClass: 2
Flags: W
LayerCount: 2
Fore
SplineSet
1159 553 m 0,0,1
 1159 264 1159 264 1023.5 122 c 128,-1,2
 888 -20 888 -20 625 -20 c 0,3,4
 502 -20 502 -20 404 15.5 c 128,-1,5
 306 51 306 51 237.5 122 c 128,-1,6
 169 193 169 193 132.5 301 c 128,-1,7
 96 409 96 409 96 553 c 0,8,9
 96 842 96 842 231.5 983 c 128,-1,10
 367 1124 367 1124 631 1124 c 0,11,12
 754 1124 754 1124 851.5 1089 c 128,-1,13
 949 1054 949 1054 1017.5 983 c 128,-1,14
 1086 912 1086 912 1122.5 804.5 c 128,-1,15
 1159 697 1159 697 1159 553 c 0,0,1
414 553 m 0,16,17
 414 444 414 444 425.5 361 c 128,-1,18
 437 278 437 278 462.5 222 c 128,-1,19
 488 166 488 166 529 137.5 c 128,-1,20
 570 109 570 109 629 109 c 256,21,22
 688 109 688 109 728.5 137.5 c 128,-1,23
 769 166 769 166 794.5 222 c 128,-1,24
 820 278 820 278 831 361 c 128,-1,25
 842 444 842 444 842 553 c 0,26,27
 842 663 842 663 830.5 745.5 c 128,-1,28
 819 828 819 828 793.5 883 c 128,-1,29
 768 938 768 938 727 965.5 c 128,-1,30
 686 993 686 993 627 993 c 256,31,32
 568 993 568 993 527 965.5 c 128,-1,33
 486 938 486 938 461 883 c 128,-1,34
 436 828 436 828 425 745.5 c 128,-1,35
 414 663 414 663 414 553 c 0,16,17
EndSplineSet
EndChar
StartChar: p
Encoding: 112 112 832
Width: 1321
GlyphClass: 2
Flags: W
LayerCount: 2
Fore
SplineSet
51 -383 m 2,0,1
 74 -383 74 -383 99.5 -378.5 c 128,-1,2
 125 -374 125 -374 146.5 -360 c 128,-1,3
 168 -346 168 -346 182.5 -320 c 128,-1,4
 197 -294 197 -294 197 -250 c 2,5,-1
 197 846 l 2,6,7
 197 893 197 893 186.5 921 c 128,-1,8
 176 949 176 949 157.5 964 c 128,-1,9
 139 979 139 979 113.5 984 c 128,-1,10
 88 989 88 989 59 989 c 2,11,-1
 45 989 l 1,12,-1
 45 1098 l 1,13,-1
 446 1098 l 1,14,-1
 483 938 l 1,15,-1
 492 938 l 1,16,17
 514 978 514 978 543.5 1011 c 128,-1,18
 573 1044 573 1044 611.5 1068 c 128,-1,19
 650 1092 650 1092 698 1105 c 128,-1,20
 746 1118 746 1118 805 1118 c 0,21,22
 907 1118 907 1118 985.5 1084.5 c 128,-1,23
 1064 1051 1064 1051 1117 980.5 c 128,-1,24
 1170 910 1170 910 1197.5 802 c 128,-1,25
 1225 694 1225 694 1225 545 c 0,26,27
 1225 397 1225 397 1198 289.5 c 128,-1,28
 1171 182 1171 182 1118.5 112 c 128,-1,29
 1066 42 1066 42 989.5 8.5 c 128,-1,30
 913 -25 913 -25 813 -25 c 0,31,32
 696 -25 696 -25 623 19.5 c 128,-1,33
 550 64 550 64 506 139 c 1,34,-1
 492 139 l 1,35,36
 496 92 496 92 500 47 c 0,37,38
 503 9 503 9 505.5 -34 c 128,-1,39
 508 -77 508 -77 508 -109 c 2,40,-1
 508 -250 l 2,41,42
 508 -294 508 -294 522.5 -320 c 128,-1,43
 537 -346 537 -346 558.5 -360 c 128,-1,44
 580 -374 580 -374 605.5 -378.5 c 128,-1,45
 631 -383 631 -383 653 -383 c 2,46,-1
 698 -383 l 1,47,-1
 698 -492 l 1,48,-1
 27 -492 l 1,49,-1
 27 -383 l 1,50,-1
 51 -383 l 2,0,1
717 127 m 0,51,52
 820 127 820 127 864.5 230.5 c 128,-1,53
 909 334 909 334 909 543 c 0,54,55
 909 747 909 747 864.5 856 c 128,-1,56
 820 965 820 965 719 965 c 0,57,58
 658 965 658 965 617 937.5 c 128,-1,59
 576 910 576 910 552 856.5 c 128,-1,60
 528 803 528 803 518 724.5 c 128,-1,61
 508 646 508 646 508 545 c 0,62,63
 508 439 508 439 518 360.5 c 128,-1,64
 528 282 528 282 552 230 c 128,-1,65
 576 178 576 178 616 152.5 c 128,-1,66
 656 127 656 127 717 127 c 0,51,52
EndSplineSet
EndChar
StartChar: q
Encoding: 113 113 833
Width: 1327
GlyphClass: 2
Flags: W
LayerCount: 2
Fore
SplineSet
608 -492 m 1,0,-1
 608 -383 l 1,1,-1
 645 -383 l 2,2,3
 679 -383 679 -383 709 -379 c 128,-1,4
 739 -375 739 -375 761.5 -362 c 128,-1,5
 784 -349 784 -349 797.5 -323.5 c 128,-1,6
 811 -298 811 -298 811 -256 c 2,7,-1
 811 -106 l 2,8,9
 811 -97 811 -97 811.5 -82 c 128,-1,10
 812 -67 812 -67 813.5 -47.5 c 128,-1,11
 815 -28 815 -28 816.5 -6.5 c 128,-1,12
 818 15 818 15 819 36 c 0,13,14
 823 85 823 85 827 143 c 1,15,-1
 813 143 l 1,16,17
 792 108 792 108 763 78 c 128,-1,18
 734 48 734 48 696.5 26.5 c 128,-1,19
 659 5 659 5 612.5 -7.5 c 128,-1,20
 566 -20 566 -20 508 -20 c 0,21,22
 409 -20 409 -20 332 13.5 c 128,-1,23
 255 47 255 47 202 117 c 128,-1,24
 149 187 149 187 121.5 295 c 128,-1,25
 94 403 94 403 94 551 c 0,26,27
 94 698 94 698 121.5 805 c 128,-1,28
 149 912 149 912 202.5 981.5 c 128,-1,29
 256 1051 256 1051 334 1084.5 c 128,-1,30
 412 1118 412 1118 512 1118 c 0,31,32
 572 1118 572 1118 620 1105.5 c 128,-1,33
 668 1093 668 1093 706.5 1069.5 c 128,-1,34
 745 1046 745 1046 774.5 1013 c 128,-1,35
 804 980 804 980 827 938 c 1,36,-1
 846 938 l 1,37,-1
 887 1098 l 1,38,-1
 1300 1098 l 1,39,-1
 1300 989 l 1,40,-1
 1292 989 l 2,41,42
 1258 989 1258 989 1227.5 984 c 128,-1,43
 1197 979 1197 979 1173.5 964 c 128,-1,44
 1150 949 1150 949 1136 921 c 128,-1,45
 1122 893 1122 893 1122 846 c 2,46,-1
 1122 -256 l 2,47,48
 1122 -298 1122 -298 1135.5 -323.5 c 128,-1,49
 1149 -349 1149 -349 1171.5 -362 c 128,-1,50
 1194 -375 1194 -375 1224 -379 c 128,-1,51
 1254 -383 1254 -383 1288 -383 c 2,52,-1
 1325 -383 l 1,53,-1
 1325 -492 l 1,54,-1
 608 -492 l 1,0,-1
600 965 m 0,55,56
 497 965 497 965 453.5 861.5 c 128,-1,57
 410 758 410 758 410 549 c 0,58,59
 410 344 410 344 453.5 237.5 c 128,-1,60
 497 131 497 131 600 131 c 0,61,62
 661 131 661 131 701.5 158 c 128,-1,63
 742 185 742 185 766.5 237.5 c 128,-1,64
 791 290 791 290 801 367.5 c 128,-1,65
 811 445 811 445 811 547 c 0,66,67
 811 653 811 653 801 731.5 c 128,-1,68
 791 810 791 810 766.5 862 c 128,-1,69
 742 914 742 914 701.5 939.5 c 128,-1,70
 661 965 661 965 600 965 c 0,55,56
EndSplineSet
EndChar
StartChar: r
Encoding: 114 114 834
Width: 1071
GlyphClass: 2
Flags: W
LayerCount: 2
Fore
SplineSet
725 0 m 1,0,-1
 41 0 l 1,1,-1
 41 109 l 1,2,-1
 47 109 l 2,3,4
 82 109 82 109 111 114 c 128,-1,5
 140 119 140 119 161 134.5 c 128,-1,6
 182 150 182 150 193.5 179 c 128,-1,7
 205 208 205 208 205 256 c 2,8,-1
 205 850 l 2,9,10
 205 895 205 895 194.5 922.5 c 128,-1,11
 184 950 184 950 164.5 965 c 128,-1,12
 145 980 145 980 118 984.5 c 128,-1,13
 91 989 91 989 57 989 c 2,14,-1
 51 989 l 1,15,-1
 51 1098 l 1,16,-1
 465 1098 l 1,17,-1
 506 938 l 1,18,-1
 516 938 l 1,19,20
 536 984 536 984 560 1018.5 c 128,-1,21
 584 1053 584 1053 617.5 1076 c 128,-1,22
 651 1099 651 1099 696.5 1110.5 c 128,-1,23
 742 1122 742 1122 805 1122 c 0,24,25
 926 1122 926 1122 983 1079.5 c 128,-1,26
 1040 1037 1040 1037 1040 956 c 0,27,28
 1040 862 1040 862 972 810 c 128,-1,29
 904 758 904 758 780 758 c 1,30,31
 780 800 780 800 775.5 832 c 128,-1,32
 771 864 771 864 759.5 885 c 128,-1,33
 748 906 748 906 728.5 917 c 128,-1,34
 709 928 709 928 680 928 c 0,35,36
 644 928 644 928 618 910 c 128,-1,37
 592 892 592 892 574 863.5 c 128,-1,38
 556 835 556 835 544.5 799 c 128,-1,39
 533 763 533 763 526.5 726.5 c 128,-1,40
 520 690 520 690 518 657 c 128,-1,41
 516 624 516 624 516 600 c 2,42,-1
 516 246 l 2,43,44
 516 201 516 201 527 173.5 c 128,-1,45
 538 146 538 146 557 132 c 128,-1,46
 576 118 576 118 602.5 113.5 c 128,-1,47
 629 109 629 109 659 109 c 2,48,-1
 725 109 l 1,49,-1
 725 0 l 1,0,-1
EndSplineSet
EndChar
StartChar: s
Encoding: 115 115 835
Width: 999
GlyphClass: 2
Flags: W
LayerCount: 2
Fore
SplineSet
473 -20 m 0,0,1
 362 -20 362 -20 283.5 -2 c 128,-1,2
 205 16 205 16 155.5 48 c 128,-1,3
 106 80 106 80 83.5 124 c 128,-1,4
 61 168 61 168 61 219 c 0,5,6
 61 269 61 269 80.5 299.5 c 128,-1,7
 100 330 100 330 129.5 347 c 128,-1,8
 159 364 159 364 192 369.5 c 128,-1,9
 225 375 225 375 252 375 c 1,10,11
 252 311 252 311 268 260 c 128,-1,12
 284 209 284 209 313 173.5 c 128,-1,13
 342 138 342 138 382.5 119 c 128,-1,14
 423 100 423 100 473 100 c 0,15,16
 526 100 526 100 564.5 111 c 128,-1,17
 603 122 603 122 627.5 141.5 c 128,-1,18
 652 161 652 161 664 186.5 c 128,-1,19
 676 212 676 212 676 240 c 0,20,21
 676 274 676 274 663.5 300.5 c 128,-1,22
 651 327 651 327 622 350.5 c 128,-1,23
 593 374 593 374 544.5 396.5 c 128,-1,24
 496 419 496 419 424 444 c 0,25,26
 341 473 341 473 277.5 505.5 c 128,-1,27
 214 538 214 538 170.5 579.5 c 128,-1,28
 127 621 127 621 104.5 674.5 c 128,-1,29
 82 728 82 728 82 797 c 0,30,31
 82 879 82 879 113.5 940 c 128,-1,32
 145 1001 145 1001 203 1041.5 c 128,-1,33
 261 1082 261 1082 342 1102 c 128,-1,34
 423 1122 423 1122 522 1122 c 0,35,36
 619 1122 619 1122 687 1105.5 c 128,-1,37
 755 1089 755 1089 798 1062 c 128,-1,38
 841 1035 841 1035 861 1001 c 128,-1,39
 881 967 881 967 881 932 c 0,40,41
 881 863 881 863 832.5 827 c 128,-1,42
 784 791 784 791 672 791 c 1,43,44
 672 893 672 893 626.5 949.5 c 128,-1,45
 581 1006 581 1006 492 1006 c 0,46,47
 459 1006 459 1006 428.5 998 c 128,-1,48
 398 990 398 990 375.5 974 c 128,-1,49
 353 958 353 958 339.5 934.5 c 128,-1,50
 326 911 326 911 326 879 c 0,51,52
 326 846 326 846 338.5 820 c 128,-1,53
 351 794 351 794 382.5 770.5 c 128,-1,54
 414 747 414 747 468 723 c 128,-1,55
 522 699 522 699 606 670 c 0,56,57
 674 646 674 646 731.5 615.5 c 128,-1,58
 789 585 789 585 830.5 545.5 c 128,-1,59
 872 506 872 506 895 455.5 c 128,-1,60
 918 405 918 405 918 340 c 0,61,62
 918 255 918 255 888.5 188 c 128,-1,63
 859 121 859 121 802 75 c 128,-1,64
 745 29 745 29 662 4.5 c 128,-1,65
 579 -20 579 -20 473 -20 c 0,0,1
EndSplineSet
EndChar
StartChar: t
Encoding: 116 116 836
Width: 829
GlyphClass: 2
Flags: W
LayerCount: 2
Fore
SplineSet
643 145 m 0,0,1
 683 145 683 145 719.5 150.5 c 128,-1,2
 756 156 756 156 788 164 c 1,3,-1
 788 31 l 1,4,5
 772 23 772 23 744.5 14 c 128,-1,6
 717 5 717 5 680.5 -2.5 c 128,-1,7
 644 -10 644 -10 598 -15 c 128,-1,8
 552 -20 552 -20 498 -20 c 0,9,10
 429 -20 429 -20 373 -3.5 c 128,-1,11
 317 13 317 13 278 51.5 c 128,-1,12
 239 90 239 90 218 151.5 c 128,-1,13
 197 213 197 213 197 303 c 2,14,-1
 197 958 l 1,15,-1
 43 958 l 1,16,-1
 43 1063 l 1,17,18
 109 1063 109 1063 161 1089 c 128,-1,19
 213 1115 213 1115 244 1149 c 1,20,21
 307 1215 307 1215 338 1352 c 1,22,-1
 508 1352 l 1,23,-1
 508 1098 l 1,24,-1
 770 1098 l 1,25,-1
 770 958 l 1,26,-1
 508 958 l 1,27,-1
 508 324 l 2,28,29
 508 231 508 231 539.5 188 c 128,-1,30
 571 145 571 145 643 145 c 0,0,1
EndSplineSet
EndChar
StartChar: u
Encoding: 117 117 837
Width: 1366
GlyphClass: 2
Flags: W
LayerCount: 2
Fore
SplineSet
907 0 m 1,0,-1
 862 145 l 1,1,-1
 852 145 l 1,2,3
 821 92 821 92 785 59.5 c 128,-1,4
 749 27 749 27 708 9.5 c 128,-1,5
 667 -8 667 -8 621.5 -14 c 128,-1,6
 576 -20 576 -20 528 -20 c 0,7,8
 368 -20 368 -20 282.5 79 c 128,-1,9
 197 178 197 178 197 385 c 2,10,-1
 197 844 l 2,11,12
 197 889 197 889 189 917 c 128,-1,13
 181 945 181 945 164 961 c 128,-1,14
 147 977 147 977 120.5 983 c 128,-1,15
 94 989 94 989 57 989 c 2,16,-1
 53 989 l 1,17,-1
 53 1098 l 1,18,-1
 508 1098 l 1,19,-1
 508 442 l 2,20,21
 508 376 508 376 515.5 323 c 128,-1,22
 523 270 523 270 541 232.5 c 128,-1,23
 559 195 559 195 589 174.5 c 128,-1,24
 619 154 619 154 664 154 c 0,25,26
 713 154 713 154 748.5 175.5 c 128,-1,27
 784 197 784 197 806.5 237.5 c 128,-1,28
 829 278 829 278 839.5 335.5 c 128,-1,29
 850 393 850 393 850 465 c 2,30,-1
 850 858 l 2,31,32
 850 903 850 903 838 929 c 128,-1,33
 826 955 826 955 806 968.5 c 128,-1,34
 786 982 786 982 759 985.5 c 128,-1,35
 732 989 732 989 702 989 c 2,36,-1
 696 989 l 1,37,-1
 696 1098 l 1,38,-1
 1161 1098 l 1,39,-1
 1161 238 l 2,40,41
 1161 193 1161 193 1171.5 167.5 c 128,-1,42
 1182 142 1182 142 1200 129 c 128,-1,43
 1218 116 1218 116 1243 112.5 c 128,-1,44
 1268 109 1268 109 1298 109 c 2,45,-1
 1315 109 l 1,46,-1
 1315 0 l 1,47,-1
 907 0 l 1,0,-1
EndSplineSet
EndChar
StartChar: v
Encoding: 118 118 838
Width: 1241
GlyphClass: 2
Flags: W
LayerCount: 2
Fore
SplineSet
1241 989 m 1,0,-1
 1200 989 l 2,1,2
 1179 989 1179 989 1162.5 984 c 128,-1,3
 1146 979 1146 979 1130.5 963.5 c 128,-1,4
 1115 948 1115 948 1100 918.5 c 128,-1,5
 1085 889 1085 889 1067 840 c 2,6,-1
 770 0 l 1,7,-1
 500 0 l 1,8,-1
 164 891 l 2,9,10
 153 920 153 920 138.5 939 c 128,-1,11
 124 958 124 958 104.5 969 c 128,-1,12
 85 980 85 980 59.5 984.5 c 128,-1,13
 34 989 34 989 0 989 c 1,14,-1
 0 1098 l 1,15,-1
 635 1098 l 1,16,-1
 635 989 l 1,17,-1
 549 989 l 2,18,19
 518 989 518 989 499.5 972.5 c 128,-1,20
 481 956 481 956 481 924 c 0,21,22
 481 899 481 899 487.5 875 c 128,-1,23
 494 851 494 851 500 834 c 2,24,-1
 637 446 l 1,25,26
 662 381 662 381 680.5 315 c 128,-1,27
 699 249 699 249 709 197 c 1,28,29
 714 221 714 221 723 253 c 128,-1,30
 732 285 732 285 741 315.5 c 128,-1,31
 750 346 750 346 757.5 371 c 128,-1,32
 765 396 765 396 768 406 c 2,33,-1
 907 817 l 2,34,35
 917 845 917 845 923.5 873.5 c 128,-1,36
 930 902 930 902 930 930 c 0,37,38
 930 964 930 964 907.5 976.5 c 128,-1,39
 885 989 885 989 850 989 c 2,40,-1
 791 989 l 1,41,-1
 791 1098 l 1,42,-1
 1241 1098 l 1,43,-1
 1241 989 l 1,0,-1
EndSplineSet
EndChar
StartChar: w
Encoding: 119 119 839
Width: 1753
GlyphClass: 2
Flags: W
LayerCount: 2
Fore
SplineSet
1012 1087 m 1,0,-1
 1212 483 l 2,1,2
 1237 409 1237 409 1248 357.5 c 128,-1,3
 1259 306 1259 306 1266 268 c 1,4,-1
 1272 268 l 1,5,6
 1277 294 1277 294 1281.5 317 c 128,-1,7
 1286 340 1286 340 1292.5 365 c 128,-1,8
 1299 390 1299 390 1307 419.5 c 128,-1,9
 1315 449 1315 449 1327 487 c 2,10,-1
 1417 786 l 2,11,12
 1425 812 1425 812 1430.5 842 c 128,-1,13
 1436 872 1436 872 1436 889 c 0,14,15
 1436 941 1436 941 1402.5 965 c 128,-1,16
 1369 989 1369 989 1300 989 c 2,17,-1
 1286 989 l 1,18,-1
 1286 1098 l 1,19,-1
 1755 1098 l 1,20,-1
 1755 989 l 1,21,-1
 1729 989 l 2,22,23
 1699 989 1699 989 1677 983 c 128,-1,24
 1655 977 1655 977 1638 959.5 c 128,-1,25
 1621 942 1621 942 1606 910.5 c 128,-1,26
 1591 879 1591 879 1575 829 c 2,27,-1
 1311 0 l 1,28,-1
 1090 0 l 1,29,-1
 866 680 l 1,30,-1
 631 0 l 1,31,-1
 408 0 l 1,32,-1
 145 881 l 1,33,34
 134 913 134 913 121 934 c 128,-1,35
 108 955 108 955 91 967 c 128,-1,36
 74 979 74 979 52 984 c 128,-1,37
 30 989 30 989 0 989 c 2,38,-1
 -6 989 l 1,39,-1
 -6 1098 l 1,40,-1
 594 1098 l 1,41,-1
 594 989 l 1,42,-1
 567 989 l 2,43,44
 505 989 505 989 474.5 971.5 c 128,-1,45
 444 954 444 954 444 903 c 0,46,47
 444 886 444 886 449.5 862 c 128,-1,48
 455 838 455 838 461 815 c 2,49,-1
 537 549 l 2,50,51
 547 512 547 512 556 473 c 128,-1,52
 565 434 565 434 573 397 c 128,-1,53
 581 360 581 360 587.5 327 c 128,-1,54
 594 294 594 294 598 268 c 1,55,-1
 604 268 l 1,56,57
 613 319 613 319 628.5 373.5 c 128,-1,58
 644 428 644 428 670 504 c 1,59,-1
 879 1087 l 1,60,-1
 1012 1087 l 1,0,-1
EndSplineSet
EndChar
StartChar: x
Encoding: 120 120 840
Width: 1323
GlyphClass: 2
Flags: W
LayerCount: 2
Fore
SplineSet
891 928 m 0,0,1
 891 965 891 965 862.5 977 c 128,-1,2
 834 989 834 989 786 989 c 2,3,-1
 780 989 l 1,4,-1
 780 1098 l 1,5,-1
 1253 1098 l 1,6,-1
 1253 989 l 1,7,-1
 1235 989 l 2,8,9
 1205 989 1205 989 1181.5 983.5 c 128,-1,10
 1158 978 1158 978 1134.5 963.5 c 128,-1,11
 1111 949 1111 949 1086 923.5 c 128,-1,12
 1061 898 1061 898 1028 858 c 2,13,-1
 817 600 l 1,14,-1
 1118 217 l 2,15,16
 1165 158 1165 158 1204.5 133.5 c 128,-1,17
 1244 109 1244 109 1282 109 c 2,18,-1
 1309 109 l 1,19,-1
 1309 0 l 1,20,-1
 657 0 l 1,21,-1
 657 109 l 1,22,-1
 668 109 l 2,23,24
 791 109 791 109 791 176 c 0,25,26
 791 188 791 188 788 200 c 128,-1,27
 785 212 785 212 777 228 c 128,-1,28
 769 244 769 244 753.5 265.5 c 128,-1,29
 738 287 738 287 713 317 c 2,30,-1
 596 459 l 1,31,-1
 453 281 l 2,32,33
 434 256 434 256 422 230 c 128,-1,34
 410 204 410 204 410 178 c 0,35,36
 410 144 410 144 439 126.5 c 128,-1,37
 468 109 468 109 537 109 c 2,38,-1
 543 109 l 1,39,-1
 543 0 l 1,40,-1
 23 0 l 1,41,-1
 23 109 l 1,42,-1
 41 109 l 2,43,44
 78 109 78 109 106 115.5 c 128,-1,45
 134 122 134 122 158.5 137 c 128,-1,46
 183 152 183 152 208 177 c 128,-1,47
 233 202 233 202 264 240 c 2,48,-1
 522 551 l 1,49,-1
 264 881 l 2,50,51
 221 935 221 935 178 962 c 128,-1,52
 135 989 135 989 88 989 c 2,53,-1
 61 989 l 1,54,-1
 61 1098 l 1,55,-1
 705 1098 l 1,56,-1
 705 989 l 1,57,-1
 698 989 l 2,58,59
 663 989 663 989 640.5 984.5 c 128,-1,60
 618 980 618 980 605 972 c 128,-1,61
 592 964 592 964 587 953 c 128,-1,62
 582 942 582 942 582 930 c 0,63,64
 582 908 582 908 593 887.5 c 128,-1,65
 604 867 604 867 629 836 c 2,66,-1
 743 696 l 1,67,-1
 840 813 l 1,68,69
 864 844 864 844 877.5 872 c 128,-1,70
 891 900 891 900 891 928 c 0,0,1
EndSplineSet
EndChar
StartChar: y
Encoding: 121 121 841
Width: 1186
GlyphClass: 2
Flags: W
LayerCount: 2
Fore
SplineSet
1186 1098 m 1,0,-1
 1186 989 l 1,1,2
 1155 989 1155 989 1131.5 982 c 128,-1,3
 1108 975 1108 975 1089 957.5 c 128,-1,4
 1070 940 1070 940 1054 911.5 c 128,-1,5
 1038 883 1038 883 1022 840 c 0,6,7
 986 738 986 738 947 632 c 128,-1,8
 908 526 908 526 868.5 419.5 c 128,-1,9
 829 313 829 313 789.5 207.5 c 128,-1,10
 750 102 750 102 713 0 c 0,11,12
 677 -99 677 -99 645 -174 c 128,-1,13
 613 -249 613 -249 577.5 -304 c 128,-1,14
 542 -359 542 -359 499 -395 c 128,-1,15
 456 -431 456 -431 399 -452.5 c 128,-1,16
 342 -474 342 -474 266.5 -483 c 128,-1,17
 191 -492 191 -492 90 -492 c 2,18,-1
 55 -492 l 1,19,-1
 55 -373 l 1,20,21
 162 -373 162 -373 237 -347 c 128,-1,22
 312 -321 312 -321 364 -273 c 128,-1,23
 416 -225 416 -225 449.5 -158 c 128,-1,24
 483 -91 483 -91 508 -10 c 1,25,-1
 139 891 l 2,26,27
 127 920 127 920 112 937 c 128,-1,28
 97 954 97 954 80 963 c 128,-1,29
 63 972 63 972 43 974.5 c 128,-1,30
 23 977 23 977 0 977 c 1,31,-1
 0 1098 l 1,32,-1
 584 1098 l 1,33,-1
 584 989 l 1,34,35
 524 989 524 989 489.5 973.5 c 128,-1,36
 455 958 455 958 455 913 c 0,37,38
 455 896 455 896 462 872.5 c 128,-1,39
 469 849 469 849 475 834 c 0,40,41
 493 791 493 791 512.5 740.5 c 128,-1,42
 532 690 532 690 550.5 639.5 c 128,-1,43
 569 589 569 589 586 542 c 128,-1,44
 603 495 603 495 616 459 c 0,45,46
 631 420 631 420 641 388.5 c 128,-1,47
 651 357 651 357 657.5 331.5 c 128,-1,48
 664 306 664 306 668 284.5 c 128,-1,49
 672 263 672 263 674 242 c 1,50,51
 676 263 676 263 682 288.5 c 128,-1,52
 688 314 688 314 695 337.5 c 128,-1,53
 702 361 702 361 709 379.5 c 128,-1,54
 716 398 716 398 719 406 c 2,55,-1
 854 807 l 2,56,57
 858 817 858 817 861.5 830.5 c 128,-1,58
 865 844 865 844 868 858 c 128,-1,59
 871 872 871 872 872.5 885 c 128,-1,60
 874 898 874 898 874 907 c 0,61,62
 874 954 874 954 835 971.5 c 128,-1,63
 796 989 796 989 725 989 c 1,64,-1
 725 1098 l 1,65,-1
 1186 1098 l 1,0,-1
EndSplineSet
EndChar
StartChar: z
Encoding: 122 122 842
Width: 1083
GlyphClass: 2
Flags: W
LayerCount: 2
Fore
SplineSet
754 139 m 2,0,1
 785 139 785 139 806.5 148 c 128,-1,2
 828 157 828 157 843.5 177 c 128,-1,3
 859 197 859 197 869.5 228.5 c 128,-1,4
 880 260 880 260 889 305 c 2,5,-1
 901 371 l 1,6,-1
 1022 371 l 1,7,-1
 1012 0 l 1,8,-1
 37 0 l 1,9,-1
 37 84 l 1,10,-1
 641 958 l 1,11,-1
 342 958 l 2,12,13
 319 958 319 958 302 951.5 c 128,-1,14
 285 945 285 945 271.5 928.5 c 128,-1,15
 258 912 258 912 247 884.5 c 128,-1,16
 236 857 236 857 225 815 c 2,17,-1
 213 766 l 1,18,-1
 90 766 l 1,19,-1
 115 1098 l 1,20,-1
 999 1098 l 1,21,-1
 999 1010 l 1,22,-1
 393 139 l 1,23,-1
 754 139 l 2,0,1
EndSplineSet
EndChar
StartChar: braceleft
Encoding: 123 123 843
Width: 905
GlyphClass: 2
Flags: W
LayerCount: 2
Fore
SplineSet
649 -256 m 2,0,1
 563 -256 563 -256 497.5 -235 c 128,-1,2
 432 -214 432 -214 388 -174.5 c 128,-1,3
 344 -135 344 -135 321.5 -79 c 128,-1,4
 299 -23 299 -23 299 47 c 2,5,-1
 299 397 l 2,6,7
 299 456 299 456 280.5 492.5 c 128,-1,8
 262 529 262 529 230 550 c 128,-1,9
 198 571 198 571 154.5 579.5 c 128,-1,10
 111 588 111 588 61 590 c 1,11,-1
 61 715 l 1,12,13
 111 717 111 717 154.5 725 c 128,-1,14
 198 733 198 733 230 754 c 128,-1,15
 262 775 262 775 280.5 811.5 c 128,-1,16
 299 848 299 848 299 905 c 2,17,-1
 299 1257 l 2,18,19
 299 1401 299 1401 387.5 1478.5 c 128,-1,20
 476 1556 476 1556 649 1556 c 2,21,-1
 844 1556 l 1,22,-1
 844 1448 l 1,23,-1
 764 1448 l 2,24,25
 720 1448 720 1448 692 1435 c 128,-1,26
 664 1422 664 1422 647.5 1397 c 128,-1,27
 631 1372 631 1372 624.5 1334.5 c 128,-1,28
 618 1297 618 1297 618 1249 c 2,29,-1
 618 901 l 2,30,31
 618 808 618 808 565 748.5 c 128,-1,32
 512 689 512 689 393 662 c 1,33,-1
 393 645 l 1,34,35
 511 616 511 616 564.5 556 c 128,-1,36
 618 496 618 496 618 403 c 2,37,-1
 618 53 l 2,38,39
 618 5 618 5 624.5 -32.5 c 128,-1,40
 631 -70 631 -70 647.5 -95.5 c 128,-1,41
 664 -121 664 -121 692 -134 c 128,-1,42
 720 -147 720 -147 764 -147 c 2,43,-1
 844 -147 l 1,44,-1
 844 -256 l 1,45,-1
 649 -256 l 2,0,1
EndSplineSet
EndChar
StartChar: bar
Encoding: 124 124 844
Width: 1145
GlyphClass: 2
Flags: W
LayerCount: 2
Fore
SplineSet
645 -492 m 1,0,-1
 498 -492 l 1,1,-1
 498 1556 l 1,2,-1
 645 1556 l 1,3,-1
 645 -492 l 1,0,-1
EndSplineSet
EndChar
StartChar: braceright
Encoding: 125 125 845
Width: 905
GlyphClass: 2
Flags: W
LayerCount: 2
Fore
SplineSet
61 -256 m 1,0,-1
 61 -147 l 1,1,-1
 141 -147 l 2,2,3
 185 -147 185 -147 213 -134 c 128,-1,4
 241 -121 241 -121 257.5 -95.5 c 128,-1,5
 274 -70 274 -70 280.5 -32.5 c 128,-1,6
 287 5 287 5 287 53 c 2,7,-1
 287 403 l 2,8,9
 287 496 287 496 340.5 556 c 128,-1,10
 394 616 394 616 512 645 c 1,11,-1
 512 662 l 1,12,13
 393 689 393 689 340 748.5 c 128,-1,14
 287 808 287 808 287 901 c 2,15,-1
 287 1249 l 2,16,17
 287 1297 287 1297 280.5 1334.5 c 128,-1,18
 274 1372 274 1372 257.5 1397 c 128,-1,19
 241 1422 241 1422 213 1435 c 128,-1,20
 185 1448 185 1448 141 1448 c 2,21,-1
 61 1448 l 1,22,-1
 61 1556 l 1,23,-1
 256 1556 l 2,24,25
 429 1556 429 1556 517.5 1478.5 c 128,-1,26
 606 1401 606 1401 606 1257 c 2,27,-1
 606 905 l 2,28,29
 606 848 606 848 624.5 811.5 c 128,-1,30
 643 775 643 775 675 754 c 128,-1,31
 707 733 707 733 750.5 725 c 128,-1,32
 794 717 794 717 844 715 c 1,33,-1
 844 590 l 1,34,35
 794 588 794 588 750.5 579.5 c 128,-1,36
 707 571 707 571 675 550 c 128,-1,37
 643 529 643 529 624.5 492.5 c 128,-1,38
 606 456 606 456 606 397 c 2,39,-1
 606 47 l 2,40,41
 606 -23 606 -23 583.5 -79 c 128,-1,42
 561 -135 561 -135 517 -174.5 c 128,-1,43
 473 -214 473 -214 407.5 -235 c 128,-1,44
 342 -256 342 -256 256 -256 c 2,45,-1
 61 -256 l 1,0,-1
EndSplineSet
EndChar
StartChar: asciitilde
Encoding: 126 126 846
Width: 1149
GlyphClass: 2
Flags: W
LayerCount: 2
Fore
SplineSet
541 664 m 0,0,1
 504 680 504 680 476 690.5 c 128,-1,2
 448 701 448 701 425.5 707.5 c 128,-1,3
 403 714 403 714 382.5 716.5 c 128,-1,4
 362 719 362 719 340 719 c 0,5,6
 312 719 312 719 282 709.5 c 128,-1,7
 252 700 252 700 222.5 684 c 128,-1,8
 193 668 193 668 165 646 c 128,-1,9
 137 624 137 624 113 598 c 1,10,-1
 113 756 l 1,11,12
 212 864 212 864 360 864 c 0,13,14
 389 864 389 864 414 861.5 c 128,-1,15
 439 859 439 859 466.5 852.5 c 128,-1,16
 494 846 494 846 527.5 833.5 c 128,-1,17
 561 821 561 821 608 801 c 0,18,19
 645 785 645 785 673 774 c 128,-1,20
 701 763 701 763 724 756.5 c 128,-1,21
 747 750 747 750 767.5 747.5 c 128,-1,22
 788 745 788 745 809 745 c 0,23,24
 838 745 838 745 867.5 754.5 c 128,-1,25
 897 764 897 764 926.5 780.5 c 128,-1,26
 956 797 956 797 984 819 c 128,-1,27
 1012 841 1012 841 1036 866 c 1,28,-1
 1036 709 l 1,29,30
 938 600 938 600 788 600 c 0,31,32
 759 600 759 600 734.5 602.5 c 128,-1,33
 710 605 710 605 682.5 612 c 128,-1,34
 655 619 655 619 621.5 631.5 c 128,-1,35
 588 644 588 644 541 664 c 0,0,1
EndSplineSet
EndChar
StartChar: exclamdown
Encoding: 161 161 847
Width: 782
GlyphClass: 2
Flags: W
LayerCount: 2
Fore
SplineSet
569 -369 m 1,0,-1
 213 -369 l 1,1,-1
 334 627 l 1,2,-1
 449 627 l 1,3,-1
 569 -369 l 1,0,-1
557 946 m 0,4,5
 557 899 557 899 544 867.5 c 128,-1,6
 531 836 531 836 508.5 817 c 128,-1,7
 486 798 486 798 455 790 c 128,-1,8
 424 782 424 782 389 782 c 0,9,10
 355 782 355 782 324.5 790 c 128,-1,11
 294 798 294 798 271 817 c 128,-1,12
 248 836 248 836 234.5 867.5 c 128,-1,13
 221 899 221 899 221 946 c 0,14,15
 221 992 221 992 234.5 1023.5 c 128,-1,16
 248 1055 248 1055 271 1074 c 128,-1,17
 294 1093 294 1093 324.5 1101.5 c 128,-1,18
 355 1110 355 1110 389 1110 c 0,19,20
 424 1110 424 1110 455 1101.5 c 128,-1,21
 486 1093 486 1093 508.5 1074 c 128,-1,22
 531 1055 531 1055 544 1023.5 c 128,-1,23
 557 992 557 992 557 946 c 0,4,5
EndSplineSet
EndChar
StartChar: cent
Encoding: 162 162 848
Width: 1145
GlyphClass: 2
Flags: W
LayerCount: 2
Fore
SplineSet
571 170 m 1,0,1
 468 177 468 177 384.5 211.5 c 128,-1,2
 301 246 301 246 241.5 313 c 128,-1,3
 182 380 182 380 149.5 483.5 c 128,-1,4
 117 587 117 587 117 733 c 0,5,6
 117 886 117 886 151 992.5 c 128,-1,7
 185 1099 185 1099 245.5 1167 c 128,-1,8
 306 1235 306 1235 389.5 1269 c 128,-1,9
 473 1303 473 1303 571 1311 c 1,10,-1
 571 1462 l 1,11,-1
 698 1462 l 1,12,-1
 698 1311 l 1,13,14
 786 1306 786 1306 854 1287.5 c 128,-1,15
 922 1269 922 1269 968 1240.5 c 128,-1,16
 1014 1212 1014 1212 1037.5 1175.5 c 128,-1,17
 1061 1139 1061 1139 1061 1098 c 0,18,19
 1061 1065 1061 1065 1049.5 1033.5 c 128,-1,20
 1038 1002 1038 1002 1008.5 978 c 128,-1,21
 979 954 979 954 928 939 c 128,-1,22
 877 924 877 924 797 924 c 1,23,24
 797 967 797 967 792 1008 c 128,-1,25
 787 1049 787 1049 775.5 1083 c 128,-1,26
 764 1117 764 1117 745 1141.5 c 128,-1,27
 726 1166 726 1166 698 1178 c 1,28,-1
 698 322 l 1,29,30
 750 323 750 323 795.5 336.5 c 128,-1,31
 841 350 841 350 878.5 371.5 c 128,-1,32
 916 393 916 393 944.5 422.5 c 128,-1,33
 973 452 973 452 991 487 c 1,34,35
 1017 472 1017 472 1029.5 446.5 c 128,-1,36
 1042 421 1042 421 1042 393 c 0,37,38
 1042 358 1042 358 1021.5 321 c 128,-1,39
 1001 284 1001 284 959 252.5 c 128,-1,40
 917 221 917 221 852 198.5 c 128,-1,41
 787 176 787 176 698 170 c 1,42,-1
 698 0 l 1,43,-1
 571 0 l 1,44,-1
 571 170 l 1,0,1
430 735 m 0,45,46
 430 577 430 577 463.5 480 c 128,-1,47
 497 383 497 383 571 346 c 1,48,-1
 571 1174 l 1,49,50
 538 1159 538 1159 512 1127.5 c 128,-1,51
 486 1096 486 1096 467.5 1043.5 c 128,-1,52
 449 991 449 991 439.5 915 c 128,-1,53
 430 839 430 839 430 735 c 0,45,46
EndSplineSet
EndChar
StartChar: sterling
Encoding: 163 163 849
Width: 1145
GlyphClass: 2
Flags: W
LayerCount: 2
Fore
SplineSet
553 711 m 1,0,1
 560 688 560 688 565.5 668.5 c 128,-1,2
 571 649 571 649 575 629.5 c 128,-1,3
 579 610 579 610 581.5 589.5 c 128,-1,4
 584 569 584 569 584 543 c 0,5,6
 584 382 584 382 399 262 c 1,7,-1
 406 252 l 1,8,9
 412 254 412 254 424.5 257 c 128,-1,10
 437 260 437 260 453.5 263 c 128,-1,11
 470 266 470 266 489 268 c 128,-1,12
 508 270 508 270 526 270 c 0,13,14
 547 270 547 270 566 267.5 c 128,-1,15
 585 265 585 265 605.5 259.5 c 128,-1,16
 626 254 626 254 650.5 246.5 c 128,-1,17
 675 239 675 239 707 229 c 0,18,19
 752 215 752 215 788.5 207 c 128,-1,20
 825 199 825 199 870 199 c 0,21,22
 940 199 940 199 992.5 240.5 c 128,-1,23
 1045 282 1045 282 1085 350 c 1,24,-1
 1085 121 l 1,25,26
 1045 50 1045 50 987 15 c 128,-1,27
 929 -20 929 -20 848 -20 c 0,28,29
 817 -20 817 -20 783.5 -16 c 128,-1,30
 750 -12 750 -12 718 -6 c 128,-1,31
 686 0 686 0 656.5 8 c 128,-1,32
 627 16 627 16 604 25 c 1,33,34
 554 42 554 42 498.5 56 c 128,-1,35
 443 70 443 70 401 70 c 0,36,37
 366 70 366 70 335.5 65.5 c 128,-1,38
 305 61 305 61 277 53 c 128,-1,39
 249 45 249 45 222.5 33.5 c 128,-1,40
 196 22 196 22 168 8 c 2,41,-1
 78 -39 l 1,42,-1
 78 145 l 1,43,-1
 143 186 l 2,44,45
 175 206 175 206 208 234 c 128,-1,46
 241 262 241 262 268 300.5 c 128,-1,47
 295 339 295 339 312.5 388.5 c 128,-1,48
 330 438 330 438 330 500 c 0,49,50
 330 559 330 559 317.5 607.5 c 128,-1,51
 305 656 305 656 285 709 c 1,52,-1
 49 709 l 1,53,-1
 49 834 l 1,54,-1
 240 834 l 1,55,56
 229 859 229 859 217.5 891 c 128,-1,57
 206 923 206 923 196 959 c 128,-1,58
 186 995 186 995 180 1034 c 128,-1,59
 174 1073 174 1073 174 1112 c 0,60,61
 174 1292 174 1292 291 1387.5 c 128,-1,62
 408 1483 408 1483 629 1483 c 0,63,64
 739 1483 739 1483 816 1464.5 c 128,-1,65
 893 1446 893 1446 941.5 1414 c 128,-1,66
 990 1382 990 1382 1012 1338.5 c 128,-1,67
 1034 1295 1034 1295 1034 1245 c 0,68,69
 1034 1173 1034 1173 969 1126 c 128,-1,70
 904 1079 904 1079 778 1079 c 1,71,72
 778 1126 778 1126 771 1175.5 c 128,-1,73
 764 1225 764 1225 746 1265.5 c 128,-1,74
 728 1306 728 1306 696 1332 c 128,-1,75
 664 1358 664 1358 614 1358 c 0,76,77
 537 1358 537 1358 491.5 1299.5 c 128,-1,78
 446 1241 446 1241 446 1120 c 0,79,80
 446 1078 446 1078 452.5 1037.5 c 128,-1,81
 459 997 459 997 468.5 960 c 128,-1,82
 478 923 478 923 490 891 c 128,-1,83
 502 859 502 859 514 834 c 1,84,-1
 877 834 l 1,85,-1
 877 709 l 1,86,-1
 553 711 l 1,0,1
EndSplineSet
EndChar
StartChar: currency
Encoding: 164 164 850
Width: 1145
GlyphClass: 2
Flags: W
LayerCount: 2
Fore
SplineSet
195 729 m 0,0,1
 195 788 195 788 211.5 842.5 c 128,-1,2
 228 897 228 897 260 942 c 1,3,-1
 137 1065 l 1,4,-1
 240 1167 l 1,5,-1
 362 1044 l 1,6,7
 407 1073 407 1073 459 1089.5 c 128,-1,8
 511 1106 511 1106 569 1106 c 0,9,10
 626 1106 626 1106 678.5 1089.5 c 128,-1,11
 731 1073 731 1073 776 1042 c 1,12,-1
 903 1169 l 1,13,-1
 1006 1065 l 1,14,-1
 881 938 l 1,15,16
 912 893 912 893 929 840.5 c 128,-1,17
 946 788 946 788 946 729 c 256,18,19
 946 670 946 670 930 618.5 c 128,-1,20
 914 567 914 567 885 522 c 1,21,-1
 1006 401 l 1,22,-1
 903 299 l 1,23,-1
 782 420 l 1,24,25
 736 389 736 389 682 371.5 c 128,-1,26
 628 354 628 354 569 354 c 0,27,28
 511 354 511 354 457 370.5 c 128,-1,29
 403 387 403 387 358 418 c 1,30,-1
 240 299 l 1,31,-1
 135 403 l 1,32,-1
 254 522 l 1,33,34
 195 613 195 613 195 729 c 0,0,1
334 729 m 0,35,36
 334 680 334 680 352.5 637 c 128,-1,37
 371 594 371 594 402.5 561.5 c 128,-1,38
 434 529 434 529 477 510.5 c 128,-1,39
 520 492 520 492 569 492 c 0,40,41
 620 492 620 492 663.5 510.5 c 128,-1,42
 707 529 707 529 738.5 561.5 c 128,-1,43
 770 594 770 594 787.5 637 c 128,-1,44
 805 680 805 680 805 729 c 0,45,46
 805 780 805 780 787.5 823.5 c 128,-1,47
 770 867 770 867 738.5 899.5 c 128,-1,48
 707 932 707 932 663.5 950.5 c 128,-1,49
 620 969 620 969 569 969 c 0,50,51
 520 969 520 969 477 950.5 c 128,-1,52
 434 932 434 932 402.5 899.5 c 128,-1,53
 371 867 371 867 352.5 823.5 c 128,-1,54
 334 780 334 780 334 729 c 0,35,36
EndSplineSet
EndChar
StartChar: yen
Encoding: 165 165 851
Width: 1104
GlyphClass: 2
Flags: W
LayerCount: 2
Fore
SplineSet
195 0 m 1,0,-1
 195 109 l 1,1,-1
 242 109 l 2,2,3
 276 109 276 109 306 110 c 128,-1,4
 336 111 336 111 358.5 121.5 c 128,-1,5
 381 132 381 132 395 156 c 128,-1,6
 409 180 409 180 410 225 c 1,7,-1
 410 338 l 1,8,-1
 123 338 l 1,9,-1
 123 459 l 1,10,-1
 410 459 l 1,11,-1
 410 578 l 1,12,-1
 123 578 l 1,13,-1
 123 698 l 1,14,-1
 375 698 l 1,15,-1
 133 1245 l 2,16,17
 119 1276 119 1276 106.5 1297 c 128,-1,18
 94 1318 94 1318 79 1330.5 c 128,-1,19
 64 1343 64 1343 45 1348.5 c 128,-1,20
 26 1354 26 1354 0 1354 c 2,21,-1
 -6 1354 l 1,22,-1
 -6 1462 l 1,23,-1
 580 1462 l 1,24,-1
 580 1354 l 1,25,-1
 565 1354 l 2,26,27
 503 1354 503 1354 476 1335 c 128,-1,28
 449 1316 449 1316 449 1274 c 0,29,30
 449 1249 449 1249 457.5 1219.5 c 128,-1,31
 466 1190 466 1190 481 1153 c 2,32,-1
 559 958 l 2,33,34
 585 893 585 893 604 833 c 128,-1,35
 623 773 623 773 631 731 c 1,36,37
 637 759 637 759 652 798 c 128,-1,38
 667 837 667 837 684 881 c 2,39,-1
 770 1106 l 2,40,41
 783 1141 783 1141 791 1166 c 128,-1,42
 799 1191 799 1191 803.5 1210.5 c 128,-1,43
 808 1230 808 1230 809.5 1244.5 c 128,-1,44
 811 1259 811 1259 811 1272 c 0,45,46
 811 1314 811 1314 782.5 1334 c 128,-1,47
 754 1354 754 1354 686 1354 c 2,48,-1
 680 1354 l 1,49,-1
 680 1462 l 1,50,-1
 1106 1462 l 1,51,-1
 1106 1354 l 1,52,-1
 1100 1354 l 2,53,54
 1074 1354 1074 1354 1054 1347 c 128,-1,55
 1034 1340 1034 1340 1016.5 1322 c 128,-1,56
 999 1304 999 1304 982 1273 c 128,-1,57
 965 1242 965 1242 944 1194 c 2,58,-1
 733 698 l 1,59,-1
 1001 698 l 1,60,-1
 1001 578 l 1,61,-1
 715 578 l 1,62,-1
 715 459 l 1,63,-1
 1001 459 l 1,64,-1
 1001 338 l 1,65,-1
 715 338 l 1,66,-1
 715 236 l 2,67,68
 715 187 715 187 728.5 161 c 128,-1,69
 742 135 742 135 764.5 123.5 c 128,-1,70
 787 112 787 112 818 110.5 c 128,-1,71
 849 109 849 109 883 109 c 2,72,-1
 930 109 l 1,73,-1
 930 0 l 1,74,-1
 195 0 l 1,0,-1
EndSplineSet
EndChar
StartChar: brokenbar
Encoding: 166 166 852
Width: 1145
GlyphClass: 2
Flags: W
LayerCount: 2
Fore
SplineSet
645 737 m 1,0,-1
 498 737 l 1,1,-1
 498 1556 l 1,2,-1
 645 1556 l 1,3,-1
 645 737 l 1,0,-1
645 -492 m 1,4,-1
 498 -492 l 1,5,-1
 498 328 l 1,6,-1
 645 328 l 1,7,-1
 645 -492 l 1,4,-1
EndSplineSet
EndChar
StartChar: section
Encoding: 167 167 853
Width: 1114
GlyphClass: 2
Flags: W
LayerCount: 2
Fore
SplineSet
565 -231 m 0,0,1
 450 -231 450 -231 373.5 -207.5 c 128,-1,2
 297 -184 297 -184 251.5 -146.5 c 128,-1,3
 206 -109 206 -109 187 -62.5 c 128,-1,4
 168 -16 168 -16 168 31 c 0,5,6
 168 71 168 71 181.5 101 c 128,-1,7
 195 131 195 131 219 151.5 c 128,-1,8
 243 172 243 172 276.5 182.5 c 128,-1,9
 310 193 310 193 350 193 c 1,10,11
 350 125 350 125 365.5 67.5 c 128,-1,12
 381 10 381 10 411 -32 c 128,-1,13
 441 -74 441 -74 486.5 -97.5 c 128,-1,14
 532 -121 532 -121 592 -121 c 0,15,16
 691 -121 691 -121 746 -67 c 128,-1,17
 801 -13 801 -13 801 78 c 0,18,19
 801 120 801 120 788.5 152.5 c 128,-1,20
 776 185 776 185 738.5 218.5 c 128,-1,21
 701 252 701 252 632 291.5 c 128,-1,22
 563 331 563 331 449 387 c 0,23,24
 364 429 364 429 303.5 472 c 128,-1,25
 243 515 243 515 205.5 561.5 c 128,-1,26
 168 608 168 608 150.5 659.5 c 128,-1,27
 133 711 133 711 133 772 c 0,28,29
 133 841 133 841 170 896.5 c 128,-1,30
 207 952 207 952 266 983 c 1,31,32
 231 1020 231 1020 204.5 1081.5 c 128,-1,33
 178 1143 178 1143 178 1227 c 0,34,35
 178 1305 178 1305 208 1366.5 c 128,-1,36
 238 1428 238 1428 292 1470 c 128,-1,37
 346 1512 346 1512 420 1534 c 128,-1,38
 494 1556 494 1556 582 1556 c 0,39,40
 672 1556 672 1556 740.5 1538.5 c 128,-1,41
 809 1521 809 1521 855 1490 c 128,-1,42
 901 1459 901 1459 924.5 1416.5 c 128,-1,43
 948 1374 948 1374 948 1323 c 0,44,45
 948 1260 948 1260 898 1218 c 128,-1,46
 848 1176 848 1176 754 1176 c 1,47,48
 754 1221 754 1221 746 1268.5 c 128,-1,49
 738 1316 738 1316 717.5 1355 c 128,-1,50
 697 1394 697 1394 662 1419 c 128,-1,51
 627 1444 627 1444 573 1444 c 0,52,53
 487 1444 487 1444 435 1394 c 128,-1,54
 383 1344 383 1344 383 1251 c 0,55,56
 383 1202 383 1202 399.5 1168.5 c 128,-1,57
 416 1135 416 1135 447.5 1109 c 128,-1,58
 479 1083 479 1083 524 1060 c 128,-1,59
 569 1037 569 1037 627 1010 c 0,60,61
 735 958 735 958 812.5 912 c 128,-1,62
 890 866 890 866 939.5 818 c 128,-1,63
 989 770 989 770 1012.5 717 c 128,-1,64
 1036 664 1036 664 1036 598 c 0,65,66
 1036 561 1036 561 1025.5 525 c 128,-1,67
 1015 489 1015 489 997.5 457 c 128,-1,68
 980 425 980 425 956 399 c 128,-1,69
 932 373 932 373 905 356 c 1,70,71
 939 313 939 313 958 255 c 128,-1,72
 977 197 977 197 977 137 c 0,73,74
 977 56 977 56 951 -12 c 128,-1,75
 925 -80 925 -80 873.5 -128.5 c 128,-1,76
 822 -177 822 -177 744.5 -204 c 128,-1,77
 667 -231 667 -231 565 -231 c 0,0,1
836 526 m 0,78,79
 836 561 836 561 825 592 c 128,-1,80
 814 623 814 623 786 654.5 c 128,-1,81
 758 686 758 686 709.5 718.5 c 128,-1,82
 661 751 661 751 586 788 c 1,83,84
 518 820 518 820 458 850.5 c 128,-1,85
 398 881 398 881 348 915 c 1,86,87
 333 898 333 898 324 874.5 c 128,-1,88
 315 851 315 851 315 825 c 0,89,90
 315 783 315 783 329.5 750 c 128,-1,91
 344 717 344 717 377.5 686.5 c 128,-1,92
 411 656 411 656 466.5 624.5 c 128,-1,93
 522 593 522 593 604 553 c 1,94,95
 670 519 670 519 719.5 492.5 c 128,-1,96
 769 466 769 466 809 438 c 1,97,98
 820 454 820 454 828 476 c 128,-1,99
 836 498 836 498 836 526 c 0,78,79
EndSplineSet
EndChar
StartChar: dieresis
Encoding: 168 168 854
Width: 1182
GlyphClass: 2
Flags: W
LayerCount: 2
Fore
SplineSet
258 1409 m 0,0,1
 258 1444 258 1444 268 1468.5 c 128,-1,2
 278 1493 278 1493 294.5 1508 c 128,-1,3
 311 1523 311 1523 333 1529.5 c 128,-1,4
 355 1536 355 1536 379 1536 c 256,5,6
 403 1536 403 1536 425 1529.5 c 128,-1,7
 447 1523 447 1523 464 1508 c 128,-1,8
 481 1493 481 1493 491.5 1468.5 c 128,-1,9
 502 1444 502 1444 502 1409 c 0,10,11
 502 1375 502 1375 491.5 1350.5 c 128,-1,12
 481 1326 481 1326 464 1311 c 128,-1,13
 447 1296 447 1296 425 1289 c 128,-1,14
 403 1282 403 1282 379 1282 c 256,15,16
 355 1282 355 1282 333 1289 c 128,-1,17
 311 1296 311 1296 294.5 1311 c 128,-1,18
 278 1326 278 1326 268 1350.5 c 128,-1,19
 258 1375 258 1375 258 1409 c 0,0,1
678 1409 m 0,20,21
 678 1444 678 1444 688 1468.5 c 128,-1,22
 698 1493 698 1493 715 1508 c 128,-1,23
 732 1523 732 1523 754 1529.5 c 128,-1,24
 776 1536 776 1536 801 1536 c 0,25,26
 824 1536 824 1536 845.5 1529.5 c 128,-1,27
 867 1523 867 1523 884 1508 c 128,-1,28
 901 1493 901 1493 911.5 1468.5 c 128,-1,29
 922 1444 922 1444 922 1409 c 0,30,31
 922 1375 922 1375 911.5 1350.5 c 128,-1,32
 901 1326 901 1326 884 1311 c 128,-1,33
 867 1296 867 1296 845.5 1289 c 128,-1,34
 824 1282 824 1282 801 1282 c 0,35,36
 776 1282 776 1282 754 1289 c 128,-1,37
 732 1296 732 1296 715 1311 c 128,-1,38
 698 1326 698 1326 688 1350.5 c 128,-1,39
 678 1375 678 1375 678 1409 c 0,20,21
EndSplineSet
EndChar
StartChar: copyright
Encoding: 169 169 855
Width: 1731
GlyphClass: 2
Flags: W
LayerCount: 2
Fore
SplineSet
113 731 m 256,0,1
 113 835 113 835 140 931.5 c 128,-1,2
 167 1028 167 1028 215.5 1111.5 c 128,-1,3
 264 1195 264 1195 332.5 1264 c 128,-1,4
 401 1333 401 1333 484.5 1382 c 128,-1,5
 568 1431 568 1431 664 1458 c 128,-1,6
 760 1485 760 1485 864 1485 c 256,7,8
 968 1485 968 1485 1064.5 1458 c 128,-1,9
 1161 1431 1161 1431 1244.5 1382 c 128,-1,10
 1328 1333 1328 1333 1397 1264 c 128,-1,11
 1466 1195 1466 1195 1515 1111.5 c 128,-1,12
 1564 1028 1564 1028 1591 931.5 c 128,-1,13
 1618 835 1618 835 1618 731 c 256,14,15
 1618 627 1618 627 1591 531 c 128,-1,16
 1564 435 1564 435 1515 351.5 c 128,-1,17
 1466 268 1466 268 1397 199.5 c 128,-1,18
 1328 131 1328 131 1244.5 82 c 128,-1,19
 1161 33 1161 33 1064.5 6.5 c 128,-1,20
 968 -20 968 -20 864 -20 c 256,21,22
 760 -20 760 -20 664 6.5 c 128,-1,23
 568 33 568 33 484.5 82 c 128,-1,24
 401 131 401 131 332.5 199.5 c 128,-1,25
 264 268 264 268 215.5 351.5 c 128,-1,26
 167 435 167 435 140 531 c 128,-1,27
 113 627 113 627 113 731 c 256,0,1
225 731 m 0,28,29
 225 643 225 643 248 561.5 c 128,-1,30
 271 480 271 480 312.5 409 c 128,-1,31
 354 338 354 338 412.5 279.5 c 128,-1,32
 471 221 471 221 542 179.5 c 128,-1,33
 613 138 613 138 694.5 115 c 128,-1,34
 776 92 776 92 864 92 c 0,35,36
 953 92 953 92 1035 115 c 128,-1,37
 1117 138 1117 138 1188 179.5 c 128,-1,38
 1259 221 1259 221 1317.5 279.5 c 128,-1,39
 1376 338 1376 338 1417.5 409 c 128,-1,40
 1459 480 1459 480 1482 561.5 c 128,-1,41
 1505 643 1505 643 1505 731 c 256,42,43
 1505 819 1505 819 1482 901 c 128,-1,44
 1459 983 1459 983 1417.5 1054.5 c 128,-1,45
 1376 1126 1376 1126 1317.5 1184.5 c 128,-1,46
 1259 1243 1259 1243 1188 1284.5 c 128,-1,47
 1117 1326 1117 1326 1035 1349 c 128,-1,48
 953 1372 953 1372 864 1372 c 0,49,50
 776 1372 776 1372 694.5 1349 c 128,-1,51
 613 1326 613 1326 542 1284.5 c 128,-1,52
 471 1243 471 1243 412.5 1184.5 c 128,-1,53
 354 1126 354 1126 312.5 1054.5 c 128,-1,54
 271 983 271 983 248 901.5 c 128,-1,55
 225 820 225 820 225 731 c 0,28,29
901 365 m 0,56,57
 948 365 948 365 988 377 c 128,-1,58
 1028 389 1028 389 1060 409 c 128,-1,59
 1092 429 1092 429 1115.5 454 c 128,-1,60
 1139 479 1139 479 1153 504 c 1,61,62
 1165 495 1165 495 1173.5 478.5 c 128,-1,63
 1182 462 1182 462 1182 440 c 0,64,65
 1182 412 1182 412 1162.5 383 c 128,-1,66
 1143 354 1143 354 1104.5 330 c 128,-1,67
 1066 306 1066 306 1008.5 291 c 128,-1,68
 951 276 951 276 874 276 c 0,69,70
 772 276 772 276 695.5 309 c 128,-1,71
 619 342 619 342 567.5 402 c 128,-1,72
 516 462 516 462 490.5 546 c 128,-1,73
 465 630 465 630 465 733 c 0,74,75
 465 833 465 833 493 916 c 128,-1,76
 521 999 521 999 576.5 1059 c 128,-1,77
 632 1119 632 1119 713.5 1152.5 c 128,-1,78
 795 1186 795 1186 903 1186 c 0,79,80
 974 1186 974 1186 1026.5 1174.5 c 128,-1,81
 1079 1163 1079 1163 1114 1143.5 c 128,-1,82
 1149 1124 1149 1124 1166.5 1097.5 c 128,-1,83
 1184 1071 1184 1071 1184 1040 c 0,84,85
 1184 1018 1184 1018 1173 1000 c 128,-1,86
 1162 982 1162 982 1143 969.5 c 128,-1,87
 1124 957 1124 957 1098.5 950.5 c 128,-1,88
 1073 944 1073 944 1044 944 c 1,89,90
 1044 973 1044 973 1036.5 1000.5 c 128,-1,91
 1029 1028 1029 1028 1012 1050.5 c 128,-1,92
 995 1073 995 1073 967.5 1086.5 c 128,-1,93
 940 1100 940 1100 899 1100 c 0,94,95
 827 1100 827 1100 776.5 1076 c 128,-1,96
 726 1052 726 1052 694 1005 c 128,-1,97
 662 958 662 958 647.5 890 c 128,-1,98
 633 822 633 822 633 733 c 0,99,100
 633 556 633 556 702 460.5 c 128,-1,101
 771 365 771 365 901 365 c 0,56,57
EndSplineSet
EndChar
StartChar: ordfeminine
Encoding: 170 170 856
Width: 860
GlyphClass: 2
Flags: W
LayerCount: 2
Fore
SplineSet
295 991 m 0,0,1
 295 937 295 937 318 915 c 128,-1,2
 341 893 341 893 373 893 c 0,3,4
 436 893 436 893 467 932.5 c 128,-1,5
 498 972 498 972 498 1034 c 2,6,-1
 498 1118 l 1,7,-1
 451 1116 l 2,8,9
 366 1113 366 1113 330.5 1081.5 c 128,-1,10
 295 1050 295 1050 295 991 c 0,0,1
416 1384 m 0,11,12
 391 1384 391 1384 376 1374.5 c 128,-1,13
 361 1365 361 1365 352.5 1347.5 c 128,-1,14
 344 1330 344 1330 341 1307 c 128,-1,15
 338 1284 338 1284 338 1257 c 1,16,17
 232 1257 232 1257 173.5 1277.5 c 128,-1,18
 115 1298 115 1298 115 1346 c 0,19,20
 115 1381 115 1381 139 1405 c 128,-1,21
 163 1429 163 1429 204.5 1444 c 128,-1,22
 246 1459 246 1459 301.5 1466 c 128,-1,23
 357 1473 357 1473 420 1473 c 0,24,25
 575 1473 575 1473 652 1424.5 c 128,-1,26
 729 1376 729 1376 729 1260 c 2,27,-1
 729 958 l 2,28,29
 729 913 729 913 748.5 897 c 128,-1,30
 768 881 768 881 817 881 c 1,31,-1
 817 791 l 1,32,-1
 578 791 l 1,33,-1
 528 891 l 1,34,-1
 514 891 l 1,35,36
 496 869 496 869 473 848.5 c 128,-1,37
 450 828 450 828 421.5 812 c 128,-1,38
 393 796 393 796 358.5 787 c 128,-1,39
 324 778 324 778 283 778 c 0,40,41
 179 778 179 778 119 831 c 128,-1,42
 59 884 59 884 59 987 c 0,43,44
 59 1089 59 1089 145 1137.5 c 128,-1,45
 231 1186 231 1186 406 1194 c 2,46,-1
 498 1198 l 1,47,-1
 498 1253 l 2,48,49
 498 1282 498 1282 495 1306.5 c 128,-1,50
 492 1331 492 1331 483.5 1348 c 128,-1,51
 475 1365 475 1365 459 1374.5 c 128,-1,52
 443 1384 443 1384 416 1384 c 0,11,12
EndSplineSet
EndChar
StartChar: guillemotleft
Encoding: 171 171 857
Width: 1135
GlyphClass: 2
Flags: W
LayerCount: 2
Fore
SplineSet
133 606 m 1,0,-1
 446 963 l 1,1,-1
 590 963 l 1,2,-1
 383 553 l 1,3,-1
 590 143 l 1,4,-1
 446 143 l 1,5,-1
 133 500 l 1,6,-1
 133 606 l 1,0,-1
545 606 m 1,7,-1
 858 963 l 1,8,-1
 1001 963 l 1,9,-1
 795 553 l 1,10,-1
 1001 143 l 1,11,-1
 858 143 l 1,12,-1
 545 500 l 1,13,-1
 545 606 l 1,7,-1
EndSplineSet
EndChar
StartChar: logicalnot
Encoding: 172 172 858
Width: 1145
GlyphClass: 2
Flags: W
LayerCount: 2
Fore
SplineSet
1012 805 m 1,0,-1
 1012 293 l 1,1,-1
 864 293 l 1,2,-1
 864 659 l 1,3,-1
 133 659 l 1,4,-1
 133 805 l 1,5,-1
 1012 805 l 1,0,-1
EndSplineSet
EndChar
StartChar: registered
Encoding: 174 174 860
Width: 1731
GlyphClass: 2
Flags: W
LayerCount: 2
Fore
SplineSet
477 358 m 1,0,-1
 504 358 l 2,1,2
 524 358 524 358 542 360.5 c 128,-1,3
 560 363 560 363 574 370.5 c 128,-1,4
 588 378 588 378 596 392 c 128,-1,5
 604 406 604 406 604 430 c 2,6,-1
 604 1030 l 2,7,8
 604 1054 604 1054 596 1068.5 c 128,-1,9
 588 1083 588 1083 574 1090.5 c 128,-1,10
 560 1098 560 1098 542 1100 c 128,-1,11
 524 1102 524 1102 504 1102 c 2,12,-1
 477 1102 l 1,13,-1
 477 1174 l 1,14,-1
 846 1174 l 2,15,16
 1198 1174 1198 1174 1198 930 c 0,17,18
 1198 881 1198 881 1182 844 c 128,-1,19
 1166 807 1166 807 1140 780 c 128,-1,20
 1114 753 1114 753 1080.5 734.5 c 128,-1,21
 1047 716 1047 716 1012 705 c 1,22,-1
 1194 412 l 2,23,24
 1204 395 1204 395 1213.5 384.5 c 128,-1,25
 1223 374 1223 374 1236 368 c 128,-1,26
 1249 362 1249 362 1266.5 360 c 128,-1,27
 1284 358 1284 358 1309 358 c 1,28,-1
 1309 289 l 1,29,-1
 1092 289 l 1,30,-1
 866 670 l 1,31,-1
 758 670 l 1,32,-1
 758 430 l 1,33,34
 760 406 760 406 768 392 c 128,-1,35
 776 378 776 378 789.5 370.5 c 128,-1,36
 803 363 803 363 820.5 360.5 c 128,-1,37
 838 358 838 358 858 358 c 2,38,-1
 887 358 l 1,39,-1
 887 289 l 1,40,-1
 477 289 l 1,41,-1
 477 358 l 1,0,-1
758 748 m 1,42,-1
 844 748 l 2,43,44
 899 748 899 748 936 759 c 128,-1,45
 973 770 973 770 995 792 c 128,-1,46
 1017 814 1017 814 1026.5 848 c 128,-1,47
 1036 882 1036 882 1036 928 c 0,48,49
 1036 973 1036 973 1025 1005 c 128,-1,50
 1014 1037 1014 1037 990.5 1056.5 c 128,-1,51
 967 1076 967 1076 929.5 1085 c 128,-1,52
 892 1094 892 1094 838 1094 c 2,53,-1
 758 1094 l 1,54,-1
 758 748 l 1,42,-1
113 731 m 256,55,56
 113 835 113 835 140 931.5 c 128,-1,57
 167 1028 167 1028 215.5 1111.5 c 128,-1,58
 264 1195 264 1195 332.5 1264 c 128,-1,59
 401 1333 401 1333 484.5 1382 c 128,-1,60
 568 1431 568 1431 664 1458 c 128,-1,61
 760 1485 760 1485 864 1485 c 256,62,63
 968 1485 968 1485 1064.5 1458 c 128,-1,64
 1161 1431 1161 1431 1244.5 1382 c 128,-1,65
 1328 1333 1328 1333 1397 1264 c 128,-1,66
 1466 1195 1466 1195 1515 1111.5 c 128,-1,67
 1564 1028 1564 1028 1591 931.5 c 128,-1,68
 1618 835 1618 835 1618 731 c 256,69,70
 1618 627 1618 627 1591 531 c 128,-1,71
 1564 435 1564 435 1515 351.5 c 128,-1,72
 1466 268 1466 268 1397 199.5 c 128,-1,73
 1328 131 1328 131 1244.5 82 c 128,-1,74
 1161 33 1161 33 1064.5 6.5 c 128,-1,75
 968 -20 968 -20 864 -20 c 256,76,77
 760 -20 760 -20 664 6.5 c 128,-1,78
 568 33 568 33 484.5 82 c 128,-1,79
 401 131 401 131 332.5 199.5 c 128,-1,80
 264 268 264 268 215.5 351.5 c 128,-1,81
 167 435 167 435 140 531 c 128,-1,82
 113 627 113 627 113 731 c 256,55,56
225 731 m 0,83,84
 225 643 225 643 248 561.5 c 128,-1,85
 271 480 271 480 312.5 409 c 128,-1,86
 354 338 354 338 412.5 279.5 c 128,-1,87
 471 221 471 221 542 179.5 c 128,-1,88
 613 138 613 138 694.5 115 c 128,-1,89
 776 92 776 92 864 92 c 0,90,91
 953 92 953 92 1035 115 c 128,-1,92
 1117 138 1117 138 1188 179.5 c 128,-1,93
 1259 221 1259 221 1317.5 279.5 c 128,-1,94
 1376 338 1376 338 1417.5 409 c 128,-1,95
 1459 480 1459 480 1482 561.5 c 128,-1,96
 1505 643 1505 643 1505 731 c 256,97,98
 1505 819 1505 819 1482 901 c 128,-1,99
 1459 983 1459 983 1417.5 1054.5 c 128,-1,100
 1376 1126 1376 1126 1317.5 1184.5 c 128,-1,101
 1259 1243 1259 1243 1188 1284.5 c 128,-1,102
 1117 1326 1117 1326 1035 1349 c 128,-1,103
 953 1372 953 1372 864 1372 c 0,104,105
 776 1372 776 1372 694.5 1349 c 128,-1,106
 613 1326 613 1326 542 1284.5 c 128,-1,107
 471 1243 471 1243 412.5 1184.5 c 128,-1,108
 354 1126 354 1126 312.5 1054.5 c 128,-1,109
 271 983 271 983 248 901.5 c 128,-1,110
 225 820 225 820 225 731 c 0,83,84
EndSplineSet
EndChar
StartChar: overscore
Encoding: 175 175 861
Width: 940
GlyphClass: 2
Flags: W
LayerCount: 2
Fore
SplineSet
950 1556 m 1,0,-1
 -10 1556 l 1,1,-1
 -10 1677 l 1,2,-1
 950 1677 l 1,3,-1
 950 1556 l 1,0,-1
EndSplineSet
EndChar
StartChar: degree
Encoding: 176 176 862
Width: 819
GlyphClass: 2
Flags: W
LayerCount: 2
Fore
SplineSet
98 1151 m 0,0,1
 98 1216 98 1216 122.5 1272.5 c 128,-1,2
 147 1329 147 1329 189 1371 c 128,-1,3
 231 1413 231 1413 287.5 1437.5 c 128,-1,4
 344 1462 344 1462 408 1462 c 0,5,6
 473 1462 473 1462 529.5 1437.5 c 128,-1,7
 586 1413 586 1413 628 1371 c 128,-1,8
 670 1329 670 1329 694.5 1272.5 c 128,-1,9
 719 1216 719 1216 719 1151 c 0,10,11
 719 1087 719 1087 694.5 1030.5 c 128,-1,12
 670 974 670 974 628 932 c 128,-1,13
 586 890 586 890 529.5 866 c 128,-1,14
 473 842 473 842 408 842 c 0,15,16
 344 842 344 842 287.5 866 c 128,-1,17
 231 890 231 890 189 932 c 128,-1,18
 147 974 147 974 122.5 1030.5 c 128,-1,19
 98 1087 98 1087 98 1151 c 0,0,1
240 1151 m 0,20,21
 240 1117 240 1117 253 1086 c 128,-1,22
 266 1055 266 1055 289 1031.5 c 128,-1,23
 312 1008 312 1008 342.5 994.5 c 128,-1,24
 373 981 373 981 408 981 c 0,25,26
 444 981 444 981 475 994.5 c 128,-1,27
 506 1008 506 1008 529 1031.5 c 128,-1,28
 552 1055 552 1055 565 1086 c 128,-1,29
 578 1117 578 1117 578 1151 c 0,30,31
 578 1187 578 1187 565 1218.5 c 128,-1,32
 552 1250 552 1250 529 1273 c 128,-1,33
 506 1296 506 1296 475 1309.5 c 128,-1,34
 444 1323 444 1323 408 1323 c 0,35,36
 373 1323 373 1323 342.5 1309.5 c 128,-1,37
 312 1296 312 1296 289 1273 c 128,-1,38
 266 1250 266 1250 253 1218.5 c 128,-1,39
 240 1187 240 1187 240 1151 c 0,20,21
EndSplineSet
EndChar
StartChar: plusminus
Encoding: 177 177 863
Width: 1145
GlyphClass: 2
Flags: W
LayerCount: 2
Fore
SplineSet
1012 0 m 1,0,-1
 133 0 l 1,1,-1
 133 145 l 1,2,-1
 1012 145 l 1,3,-1
 1012 0 l 1,0,-1
645 659 m 1,4,-1
 645 293 l 1,5,-1
 498 293 l 1,6,-1
 498 659 l 1,7,-1
 133 659 l 1,8,-1
 133 805 l 1,9,-1
 498 805 l 1,10,-1
 498 1171 l 1,11,-1
 645 1171 l 1,12,-1
 645 805 l 1,13,-1
 1012 805 l 1,14,-1
 1012 659 l 1,15,-1
 645 659 l 1,4,-1
EndSplineSet
EndChar
StartChar: twosuperior
Encoding: 178 178 864
Width: 819
GlyphClass: 2
Flags: W
LayerCount: 2
Fore
SplineSet
698 1264 m 0,0,1
 698 1219 698 1219 685.5 1179 c 128,-1,2
 673 1139 673 1139 640 1095 c 128,-1,3
 607 1051 607 1051 549.5 999 c 128,-1,4
 492 947 492 947 403 877 c 2,5,-1
 236 745 l 1,6,-1
 563 745 l 2,7,8
 607 745 607 745 625 764.5 c 128,-1,9
 643 784 643 784 649 813 c 2,10,-1
 659 868 l 1,11,-1
 735 868 l 1,12,-1
 727 586 l 1,13,-1
 76 586 l 1,14,-1
 76 733 l 1,15,-1
 301 922 l 2,16,17
 354 966 354 966 388.5 1007.5 c 128,-1,18
 423 1049 423 1049 443 1089 c 128,-1,19
 463 1129 463 1129 471 1169 c 128,-1,20
 479 1209 479 1209 479 1251 c 0,21,22
 479 1317 479 1317 457.5 1354 c 128,-1,23
 436 1391 436 1391 383 1391 c 0,24,25
 348 1391 348 1391 327 1372.5 c 128,-1,26
 306 1354 306 1354 294.5 1325 c 128,-1,27
 283 1296 283 1296 279.5 1259.5 c 128,-1,28
 276 1223 276 1223 276 1188 c 1,29,30
 242 1188 242 1188 209 1195 c 128,-1,31
 176 1202 176 1202 150 1216.5 c 128,-1,32
 124 1231 124 1231 108 1254.5 c 128,-1,33
 92 1278 92 1278 92 1311 c 0,34,35
 92 1348 92 1348 111 1379.5 c 128,-1,36
 130 1411 130 1411 167 1434 c 128,-1,37
 204 1457 204 1457 258.5 1470 c 128,-1,38
 313 1483 313 1483 383 1483 c 0,39,40
 466 1483 466 1483 525.5 1467.5 c 128,-1,41
 585 1452 585 1452 623.5 1423.5 c 128,-1,42
 662 1395 662 1395 680 1354.5 c 128,-1,43
 698 1314 698 1314 698 1264 c 0,0,1
EndSplineSet
EndChar
StartChar: threesuperior
Encoding: 179 179 865
Width: 819
GlyphClass: 2
Flags: W
LayerCount: 2
Fore
SplineSet
479 1260 m 0,0,1
 479 1323 479 1323 457.5 1357 c 128,-1,2
 436 1391 436 1391 383 1391 c 0,3,4
 351 1391 351 1391 329.5 1376.5 c 128,-1,5
 308 1362 308 1362 295.5 1337 c 128,-1,6
 283 1312 283 1312 277.5 1280 c 128,-1,7
 272 1248 272 1248 272 1212 c 1,8,9
 231 1212 231 1212 198 1216 c 128,-1,10
 165 1220 165 1220 142 1229.5 c 128,-1,11
 119 1239 119 1239 106.5 1256 c 128,-1,12
 94 1273 94 1273 94 1300 c 0,13,14
 94 1338 94 1338 113 1371.5 c 128,-1,15
 132 1405 132 1405 169 1429.5 c 128,-1,16
 206 1454 206 1454 261 1468.5 c 128,-1,17
 316 1483 316 1483 387 1483 c 256,18,19
 458 1483 458 1483 515 1469 c 128,-1,20
 572 1455 572 1455 613 1429 c 128,-1,21
 654 1403 654 1403 676 1365.5 c 128,-1,22
 698 1328 698 1328 698 1280 c 0,23,24
 698 1190 698 1190 642 1133.5 c 128,-1,25
 586 1077 586 1077 489 1053 c 1,26,-1
 489 1042 l 1,27,28
 535 1035 535 1035 579 1024 c 128,-1,29
 623 1013 623 1013 657 991 c 128,-1,30
 691 969 691 969 712 933.5 c 128,-1,31
 733 898 733 898 733 842 c 0,32,33
 733 767 733 767 695 715.5 c 128,-1,34
 657 664 657 664 598.5 632.5 c 128,-1,35
 540 601 540 601 470.5 587 c 128,-1,36
 401 573 401 573 338 573 c 0,37,38
 254 573 254 573 187 588 c 128,-1,39
 120 603 120 603 80 623 c 1,40,-1
 80 729 l 1,41,42
 102 720 102 720 130 711 c 128,-1,43
 158 702 158 702 188.5 694.5 c 128,-1,44
 219 687 219 687 251 682.5 c 128,-1,45
 283 678 283 678 313 678 c 0,46,47
 411 678 411 678 465.5 717.5 c 128,-1,48
 520 757 520 757 520 846 c 0,49,50
 520 915 520 915 464.5 952 c 128,-1,51
 409 989 409 989 297 989 c 2,52,-1
 229 989 l 1,53,-1
 229 1085 l 1,54,-1
 297 1085 l 2,55,56
 335 1085 335 1085 368.5 1097.5 c 128,-1,57
 402 1110 402 1110 426.5 1133 c 128,-1,58
 451 1156 451 1156 465 1188.5 c 128,-1,59
 479 1221 479 1221 479 1260 c 0,0,1
EndSplineSet
EndChar
StartChar: acute
Encoding: 180 180 866
Width: 1182
GlyphClass: 2
Flags: W
LayerCount: 2
Fore
SplineSet
330 1268 m 1,0,1
 352 1297 352 1297 379.5 1335 c 128,-1,2
 407 1373 407 1373 435 1413.5 c 128,-1,3
 463 1454 463 1454 487.5 1494.5 c 128,-1,4
 512 1535 512 1535 528 1569 c 1,5,-1
 850 1569 l 1,6,-1
 850 1548 l 1,7,8
 831 1521 831 1521 787 1480.5 c 128,-1,9
 743 1440 743 1440 688.5 1396 c 128,-1,10
 634 1352 634 1352 575.5 1310.5 c 128,-1,11
 517 1269 517 1269 469 1241 c 1,12,-1
 330 1241 l 1,13,-1
 330 1268 l 1,0,1
EndSplineSet
EndChar
StartChar: mu
Encoding: 181 181 867
Width: 1362
GlyphClass: 2
Flags: W
LayerCount: 2
Fore
SplineSet
573 -20 m 0,0,1
 488 -20 488 -20 428 11.5 c 128,-1,2
 368 43 368 43 328 100 c 1,3,4
 328 15 328 15 335 -57 c 128,-1,5
 342 -129 342 -129 365 -183 c 128,-1,6
 388 -237 388 -237 431.5 -270.5 c 128,-1,7
 475 -304 475 -304 547 -313 c 1,8,9
 547 -352 547 -352 534 -384.5 c 128,-1,10
 521 -417 521 -417 496.5 -441 c 128,-1,11
 472 -465 472 -465 437 -478.5 c 128,-1,12
 402 -492 402 -492 358 -492 c 0,13,14
 320 -492 320 -492 285 -478 c 128,-1,15
 250 -464 250 -464 223.5 -432.5 c 128,-1,16
 197 -401 197 -401 181.5 -349.5 c 128,-1,17
 166 -298 166 -298 166 -223 c 0,18,19
 166 -162 166 -162 169 -95.5 c 128,-1,20
 172 -29 172 -29 176.5 52 c 128,-1,21
 181 133 181 133 185 233 c 128,-1,22
 189 333 189 333 190 461 c 1,23,-1
 190 1098 l 1,24,-1
 502 1098 l 1,25,-1
 502 422 l 2,26,27
 502 367 502 367 509.5 318 c 128,-1,28
 517 269 517 269 534.5 232.5 c 128,-1,29
 552 196 552 196 582 175 c 128,-1,30
 612 154 612 154 657 154 c 0,31,32
 700 154 700 154 734.5 177 c 128,-1,33
 769 200 769 200 793.5 241.5 c 128,-1,34
 818 283 818 283 831 341.5 c 128,-1,35
 844 400 844 400 844 471 c 2,36,-1
 844 1098 l 1,37,-1
 1155 1098 l 1,38,-1
 1155 283 l 2,39,40
 1155 189 1155 189 1189 149 c 128,-1,41
 1223 109 1223 109 1294 109 c 2,42,-1
 1309 109 l 1,43,-1
 1309 0 l 1,44,-1
 1130 0 l 2,45,46
 1025 0 1025 0 957.5 49 c 128,-1,47
 890 98 890 98 864 178 c 1,48,-1
 854 178 l 1,49,50
 830 133 830 133 803.5 96 c 128,-1,51
 777 59 777 59 744 33.5 c 128,-1,52
 711 8 711 8 669 -6 c 128,-1,53
 627 -20 627 -20 573 -20 c 0,0,1
EndSplineSet
EndChar
StartChar: paragraph
Encoding: 182 182 868
Width: 1284
GlyphClass: 2
Flags: W
LayerCount: 2
Fore
SplineSet
860 1430 m 1,0,-1
 688 1430 l 1,1,-1
 688 -227 l 1,2,-1
 346 -227 l 1,3,-1
 346 -119 l 1,4,-1
 373 -119 l 2,5,6
 408 -119 408 -119 438.5 -114.5 c 128,-1,7
 469 -110 469 -110 491.5 -94.5 c 128,-1,8
 514 -79 514 -79 527.5 -50 c 128,-1,9
 541 -21 541 -21 541 27 c 2,10,-1
 541 791 l 1,11,-1
 395 791 l 2,12,13
 305 791 305 791 245 823.5 c 128,-1,14
 185 856 185 856 149 911.5 c 128,-1,15
 113 967 113 967 97.5 1039.5 c 128,-1,16
 82 1112 82 1112 82 1192 c 0,17,18
 82 1274 82 1274 99 1341 c 128,-1,19
 116 1408 116 1408 154 1456 c 128,-1,20
 192 1504 192 1504 252 1530 c 128,-1,21
 312 1556 312 1556 399 1556 c 2,22,-1
 1202 1556 l 1,23,-1
 1202 1448 l 1,24,-1
 1176 1448 l 2,25,26
 1141 1448 1141 1448 1110.5 1443 c 128,-1,27
 1080 1438 1080 1438 1057 1422.5 c 128,-1,28
 1034 1407 1034 1407 1021 1378 c 128,-1,29
 1008 1349 1008 1349 1008 1300 c 2,30,-1
 1008 27 l 2,31,32
 1008 -21 1008 -21 1021 -50 c 128,-1,33
 1034 -79 1034 -79 1057 -94.5 c 128,-1,34
 1080 -110 1080 -110 1110.5 -114.5 c 128,-1,35
 1141 -119 1141 -119 1176 -119 c 2,36,-1
 1202 -119 l 1,37,-1
 1202 -227 l 1,38,-1
 860 -227 l 1,39,-1
 860 1430 l 1,0,-1
EndSplineSet
EndChar
StartChar: periodcentered
Encoding: 183 183 869
Width: 623
GlyphClass: 2
Flags: W
LayerCount: 2
Fore
SplineSet
143 727 m 0,0,1
 143 774 143 774 156 805.5 c 128,-1,2
 169 837 169 837 191.5 856 c 128,-1,3
 214 875 214 875 245 883 c 128,-1,4
 276 891 276 891 311 891 c 0,5,6
 345 891 345 891 375.5 883 c 128,-1,7
 406 875 406 875 429 856 c 128,-1,8
 452 837 452 837 465.5 805.5 c 128,-1,9
 479 774 479 774 479 727 c 0,10,11
 479 681 479 681 465.5 649.5 c 128,-1,12
 452 618 452 618 429 599 c 128,-1,13
 406 580 406 580 375.5 571.5 c 128,-1,14
 345 563 345 563 311 563 c 0,15,16
 276 563 276 563 245 571.5 c 128,-1,17
 214 580 214 580 191.5 599 c 128,-1,18
 169 618 169 618 156 649.5 c 128,-1,19
 143 681 143 681 143 727 c 0,0,1
EndSplineSet
EndChar
StartChar: cedilla
Encoding: 184 184 870
Width: 682
GlyphClass: 2
Flags: W
LayerCount: 2
Fore
SplineSet
571 -258 m 0,0,1
 571 -312 571 -312 550 -355.5 c 128,-1,2
 529 -399 529 -399 491 -429.5 c 128,-1,3
 453 -460 453 -460 399.5 -476 c 128,-1,4
 346 -492 346 -492 281 -492 c 0,5,6
 265 -492 265 -492 242 -490.5 c 128,-1,7
 219 -489 219 -489 194 -486 c 128,-1,8
 169 -483 169 -483 145 -478.5 c 128,-1,9
 121 -474 121 -474 102 -469 c 1,10,-1
 102 -344 l 1,11,12
 140 -352 140 -352 177 -356 c 128,-1,13
 214 -360 214 -360 242 -360 c 0,14,15
 300 -360 300 -360 333.5 -339.5 c 128,-1,16
 367 -319 367 -319 367 -266 c 0,17,18
 367 -236 367 -236 355.5 -217 c 128,-1,19
 344 -198 344 -198 323 -186.5 c 128,-1,20
 302 -175 302 -175 274 -169.5 c 128,-1,21
 246 -164 246 -164 213 -162 c 1,22,-1
 256 18 l 1,23,-1
 373 18 l 1,24,-1
 352 -70 l 1,25,26
 402 -74 402 -74 442.5 -88.5 c 128,-1,27
 483 -103 483 -103 511.5 -127 c 128,-1,28
 540 -151 540 -151 555.5 -184.5 c 128,-1,29
 571 -218 571 -218 571 -258 c 0,0,1
EndSplineSet
EndChar
StartChar: onesuperior
Encoding: 185 185 871
Width: 819
GlyphClass: 2
Flags: W
LayerCount: 2
Fore
SplineSet
528 1473 m 1,0,-1
 528 756 l 2,1,2
 528 730 528 730 535.5 714.5 c 128,-1,3
 543 699 543 699 556 691 c 128,-1,4
 569 683 569 683 586.5 680.5 c 128,-1,5
 604 678 604 678 623 678 c 2,6,-1
 707 678 l 1,7,-1
 707 588 l 1,8,-1
 129 588 l 1,9,-1
 129 678 l 1,10,-1
 233 678 l 2,11,12
 253 678 253 678 269.5 680.5 c 128,-1,13
 286 683 286 683 299 691 c 128,-1,14
 312 699 312 699 319 714.5 c 128,-1,15
 326 730 326 730 326 756 c 2,16,-1
 326 1337 l 1,17,18
 278 1280 278 1280 240.5 1245 c 128,-1,19
 203 1210 203 1210 166 1210 c 0,20,21
 137 1210 137 1210 116.5 1239.5 c 128,-1,22
 96 1269 96 1269 96 1311 c 1,23,24
 133 1320 133 1320 178.5 1340.5 c 128,-1,25
 224 1361 224 1361 285 1405 c 2,26,-1
 377 1473 l 1,27,-1
 528 1473 l 1,0,-1
EndSplineSet
EndChar
StartChar: ordmasculine
Encoding: 186 186 872
Width: 895
GlyphClass: 2
Flags: W
LayerCount: 2
Fore
SplineSet
311 1126 m 256,0,1
 311 1005 311 1005 341.5 943 c 128,-1,2
 372 881 372 881 449 881 c 0,3,4
 524 881 524 881 555 943 c 128,-1,5
 586 1005 586 1005 586 1126 c 256,6,7
 586 1247 586 1247 554 1306.5 c 128,-1,8
 522 1366 522 1366 446 1366 c 0,9,10
 371 1366 371 1366 341 1306.5 c 128,-1,11
 311 1247 311 1247 311 1126 c 256,0,1
823 1126 m 0,12,13
 823 950 823 950 727.5 864 c 128,-1,14
 632 778 632 778 446 778 c 0,15,16
 268 778 268 778 170 864.5 c 128,-1,17
 72 951 72 951 72 1126 c 0,18,19
 72 1302 72 1302 168 1387.5 c 128,-1,20
 264 1473 264 1473 451 1473 c 0,21,22
 537 1473 537 1473 606 1451.5 c 128,-1,23
 675 1430 675 1430 723 1387 c 128,-1,24
 771 1344 771 1344 797 1279 c 128,-1,25
 823 1214 823 1214 823 1126 c 0,12,13
EndSplineSet
EndChar
StartChar: guillemotright
Encoding: 187 187 873
Width: 1135
GlyphClass: 2
Flags: W
LayerCount: 2
Fore
SplineSet
1001 500 m 1,0,-1
 688 143 l 1,1,-1
 545 143 l 1,2,-1
 752 553 l 1,3,-1
 545 963 l 1,4,-1
 688 963 l 1,5,-1
 1001 606 l 1,6,-1
 1001 500 l 1,0,-1
590 500 m 1,7,-1
 276 143 l 1,8,-1
 133 143 l 1,9,-1
 340 553 l 1,10,-1
 133 963 l 1,11,-1
 276 963 l 1,12,-1
 590 606 l 1,13,-1
 590 500 l 1,7,-1
EndSplineSet
EndChar
StartChar: questiondown
Encoding: 191 191 877
Width: 1126
GlyphClass: 2
Flags: W
LayerCount: 2
Fore
SplineSet
113 -14 m 0,0,1
 113 68 113 68 138.5 133 c 128,-1,2
 164 198 164 198 214.5 252 c 128,-1,3
 265 306 265 306 341.5 351 c 128,-1,4
 418 396 418 396 520 438 c 1,5,-1
 561 625 l 1,6,-1
 686 625 l 1,7,-1
 727 373 l 1,8,9
 640 338 640 338 583.5 290.5 c 128,-1,10
 527 243 527 243 495 188.5 c 128,-1,11
 463 134 463 134 450.5 74 c 128,-1,12
 438 14 438 14 438 -47 c 0,13,14
 438 -96 438 -96 447 -136.5 c 128,-1,15
 456 -177 456 -177 475.5 -206.5 c 128,-1,16
 495 -236 495 -236 525.5 -252 c 128,-1,17
 556 -268 556 -268 598 -268 c 0,18,19
 644 -268 644 -268 675.5 -247.5 c 128,-1,20
 707 -227 707 -227 726 -191.5 c 128,-1,21
 745 -156 745 -156 753.5 -109.5 c 128,-1,22
 762 -63 762 -63 762 -10 c 1,23,24
 825 -10 825 -10 878 -19 c 128,-1,25
 931 -28 931 -28 969.5 -46 c 128,-1,26
 1008 -64 1008 -64 1029.5 -91 c 128,-1,27
 1051 -118 1051 -118 1051 -154 c 0,28,29
 1051 -204 1051 -204 1025 -247 c 128,-1,30
 999 -290 999 -290 945.5 -322 c 128,-1,31
 892 -354 892 -354 809.5 -372.5 c 128,-1,32
 727 -391 727 -391 614 -391 c 0,33,34
 506 -391 506 -391 414 -365.5 c 128,-1,35
 322 -340 322 -340 255.5 -291.5 c 128,-1,36
 189 -243 189 -243 151 -173 c 128,-1,37
 113 -103 113 -103 113 -14 c 0,0,1
795 944 m 0,38,39
 795 897 795 897 782 865.5 c 128,-1,40
 769 834 769 834 746.5 815 c 128,-1,41
 724 796 724 796 693 788 c 128,-1,42
 662 780 662 780 627 780 c 0,43,44
 593 780 593 780 562.5 788 c 128,-1,45
 532 796 532 796 509 815 c 128,-1,46
 486 834 486 834 472.5 865.5 c 128,-1,47
 459 897 459 897 459 944 c 0,48,49
 459 990 459 990 472.5 1021.5 c 128,-1,50
 486 1053 486 1053 509 1072 c 128,-1,51
 532 1091 532 1091 562.5 1099.5 c 128,-1,52
 593 1108 593 1108 627 1108 c 0,53,54
 662 1108 662 1108 693 1099.5 c 128,-1,55
 724 1091 724 1091 746.5 1072 c 128,-1,56
 769 1053 769 1053 782 1021.5 c 128,-1,57
 795 990 795 990 795 944 c 0,38,39
EndSplineSet
EndChar
StartChar: AE
Encoding: 198 198 884
Width: 2034
GlyphClass: 2
Flags: W
LayerCount: 2
Fore
SplineSet
1270 125 m 1,0,-1
 1679 125 l 2,1,2
 1710 125 1710 125 1732 136.5 c 128,-1,3
 1754 148 1754 148 1770 169 c 128,-1,4
 1786 190 1786 190 1795.5 218.5 c 128,-1,5
 1805 247 1805 247 1810 281 c 1,6,-1
 1827 377 l 1,7,-1
 1968 377 l 1,8,-1
 1954 0 l 1,9,-1
 754 0 l 1,10,-1
 754 109 l 1,11,-1
 840 109 l 2,12,13
 896 109 896 109 920 143.5 c 128,-1,14
 944 178 944 178 944 231 c 2,15,-1
 944 469 l 1,16,-1
 473 469 l 1,17,-1
 387 297 l 2,18,19
 370 265 370 265 362 236 c 128,-1,20
 354 207 354 207 354 188 c 0,21,22
 354 146 354 146 385.5 127.5 c 128,-1,23
 417 109 417 109 477 109 c 2,24,-1
 512 109 l 1,25,-1
 512 0 l 1,26,-1
 0 0 l 1,27,-1
 0 109 l 1,28,-1
 25 109 l 2,29,30
 78 109 78 109 120 147.5 c 128,-1,31
 162 186 162 186 207 268 c 1,32,-1
 782 1343 l 1,33,-1
 647 1354 l 1,34,-1
 647 1462 l 1,35,-1
 1890 1462 l 1,36,-1
 1898 1085 l 1,37,-1
 1755 1085 l 1,38,-1
 1745 1182 l 2,39,40
 1737 1257 1737 1257 1707 1297 c 128,-1,41
 1677 1337 1677 1337 1614 1337 c 2,42,-1
 1270 1337 l 1,43,-1
 1270 825 l 1,44,-1
 1755 825 l 1,45,-1
 1755 702 l 1,46,-1
 1270 702 l 1,47,-1
 1270 125 l 1,0,-1
924 1337 m 1,48,-1
 539 592 l 1,49,-1
 944 592 l 1,50,-1
 944 1337 l 1,51,-1
 924 1337 l 1,48,-1
EndSplineSet
EndChar
StartChar: Eth
Encoding: 208 208 894
Width: 1571
GlyphClass: 2
Flags: W
LayerCount: 2
Fore
SplineSet
1458 758 m 0,0,1
 1458 590 1458 590 1412 450.5 c 128,-1,2
 1366 311 1366 311 1274.5 211 c 128,-1,3
 1183 111 1183 111 1047.5 55.5 c 128,-1,4
 912 0 912 0 733 0 c 2,5,-1
 57 0 l 1,6,-1
 57 109 l 1,7,-1
 143 109 l 2,8,9
 166 109 166 109 185 113.5 c 128,-1,10
 204 118 204 118 218 132 c 128,-1,11
 232 146 232 146 240 172 c 128,-1,12
 248 198 248 198 248 242 c 2,13,-1
 248 702 l 1,14,-1
 78 702 l 1,15,-1
 78 827 l 1,16,-1
 248 827 l 1,17,-1
 248 1229 l 2,18,19
 248 1270 248 1270 240 1294.5 c 128,-1,20
 232 1319 232 1319 217.5 1332 c 128,-1,21
 203 1345 203 1345 184 1349.5 c 128,-1,22
 165 1354 165 1354 143 1354 c 2,23,-1
 57 1354 l 1,24,-1
 57 1462 l 1,25,-1
 733 1462 l 2,26,27
 903 1462 903 1462 1037.5 1417.5 c 128,-1,28
 1172 1373 1172 1373 1265.5 1284.5 c 128,-1,29
 1359 1196 1359 1196 1408.5 1064 c 128,-1,30
 1458 932 1458 932 1458 758 c 0,0,1
1112 758 m 0,31,32
 1112 1051 1112 1051 1004.5 1194 c 128,-1,33
 897 1337 897 1337 688 1337 c 2,34,-1
 571 1337 l 1,35,-1
 571 827 l 1,36,-1
 827 827 l 1,37,-1
 827 702 l 1,38,-1
 571 702 l 1,39,-1
 571 127 l 1,40,-1
 686 127 l 2,41,42
 791 127 791 127 871 170.5 c 128,-1,43
 951 214 951 214 1004.5 296 c 128,-1,44
 1058 378 1058 378 1085 494.5 c 128,-1,45
 1112 611 1112 611 1112 758 c 0,31,32
EndSplineSet
EndChar
StartChar: multiply
Encoding: 215 215 901
Width: 1145
GlyphClass: 2
Flags: W
LayerCount: 2
Fore
SplineSet
571 631 m 1,0,-1
 270 328 l 1,1,-1
 166 432 l 1,2,-1
 467 735 l 1,3,-1
 166 1036 l 1,4,-1
 270 1139 l 1,5,-1
 571 838 l 1,6,-1
 872 1141 l 1,7,-1
 977 1036 l 1,8,-1
 674 733 l 1,9,-1
 977 430 l 1,10,-1
 874 328 l 1,11,-1
 571 631 l 1,0,-1
EndSplineSet
EndChar
StartChar: Oslash
Encoding: 216 216 902
Width: 1612
GlyphClass: 2
Flags: W
LayerCount: 2
Fore
SplineSet
1499 733 m 0,0,1
 1499 564 1499 564 1453.5 425 c 128,-1,2
 1408 286 1408 286 1319.5 187 c 128,-1,3
 1231 88 1231 88 1102.5 34 c 128,-1,4
 974 -20 974 -20 807 -20 c 0,5,6
 634 -20 634 -20 504 33 c 1,7,-1
 442 -82 l 1,8,-1
 297 -82 l 1,9,-1
 391 92 l 1,10,11
 251 188 251 188 182 352.5 c 128,-1,12
 113 517 113 517 113 735 c 0,13,14
 113 905 113 905 156 1043.5 c 128,-1,15
 199 1182 199 1182 285.5 1280 c 128,-1,16
 372 1378 372 1378 502.5 1431.5 c 128,-1,17
 633 1485 633 1485 809 1485 c 0,18,19
 894 1485 894 1485 969 1470 c 128,-1,20
 1044 1455 1044 1455 1110 1427 c 1,21,-1
 1174 1546 l 1,22,-1
 1317 1546 l 1,23,-1
 1221 1368 l 1,24,25
 1357 1272 1357 1272 1428 1110 c 128,-1,26
 1499 948 1499 948 1499 733 c 0,0,1
457 733 m 0,27,28
 457 605 457 605 471 503 c 128,-1,29
 485 401 485 401 516 324 c 1,30,-1
 1022 1266 l 1,31,32
 984 1308 984 1308 930.5 1330 c 128,-1,33
 877 1352 877 1352 809 1352 c 0,34,35
 713 1352 713 1352 646 1310.5 c 128,-1,36
 579 1269 579 1269 537 1189.5 c 128,-1,37
 495 1110 495 1110 476 995 c 128,-1,38
 457 880 457 880 457 733 c 0,27,28
1155 733 m 0,39,40
 1155 860 1155 860 1141 961.5 c 128,-1,41
 1127 1063 1127 1063 1098 1141 c 1,42,-1
 592 197 l 1,43,44
 632 155 632 155 685 134 c 128,-1,45
 738 113 738 113 807 113 c 0,46,47
 903 113 903 113 969.5 155 c 128,-1,48
 1036 197 1036 197 1077 276.5 c 128,-1,49
 1118 356 1118 356 1136.5 471 c 128,-1,50
 1155 586 1155 586 1155 733 c 0,39,40
EndSplineSet
EndChar
StartChar: Thorn
Encoding: 222 222 908
Width: 1307
GlyphClass: 2
Flags: W
LayerCount: 2
Fore
SplineSet
571 410 m 1,0,-1
 621 410 l 2,1,2
 697 410 697 410 750 429 c 128,-1,3
 803 448 803 448 836.5 489 c 128,-1,4
 870 530 870 530 885.5 595 c 128,-1,5
 901 660 901 660 901 752 c 0,6,7
 901 834 901 834 887.5 894.5 c 128,-1,8
 874 955 874 955 844.5 994.5 c 128,-1,9
 815 1034 815 1034 767.5 1053.5 c 128,-1,10
 720 1073 720 1073 651 1073 c 2,11,-1
 571 1073 l 1,12,-1
 571 410 l 1,0,-1
1245 760 m 0,13,14
 1245 668 1245 668 1213 583 c 128,-1,15
 1181 498 1181 498 1109 433 c 128,-1,16
 1037 368 1037 368 922 329.5 c 128,-1,17
 807 291 807 291 641 291 c 2,18,-1
 571 291 l 1,19,-1
 571 231 l 1,20,21
 573 191 573 191 582 166.5 c 128,-1,22
 591 142 591 142 605.5 129.5 c 128,-1,23
 620 117 620 117 639.5 113 c 128,-1,24
 659 109 659 109 680 109 c 2,25,-1
 764 109 l 1,26,-1
 764 0 l 1,27,-1
 57 0 l 1,28,-1
 57 109 l 1,29,-1
 143 109 l 2,30,31
 166 109 166 109 185 113.5 c 128,-1,32
 204 118 204 118 218 132 c 128,-1,33
 232 146 232 146 240 172 c 128,-1,34
 248 198 248 198 248 242 c 2,35,-1
 248 1221 l 2,36,37
 248 1265 248 1265 240 1291 c 128,-1,38
 232 1317 232 1317 218 1331 c 128,-1,39
 204 1345 204 1345 185 1349.5 c 128,-1,40
 166 1354 166 1354 143 1354 c 2,41,-1
 57 1354 l 1,42,-1
 57 1462 l 1,43,-1
 764 1462 l 1,44,-1
 764 1354 l 1,45,-1
 680 1354 l 2,46,47
 659 1354 659 1354 639 1350 c 128,-1,48
 619 1346 619 1346 604 1333 c 128,-1,49
 589 1320 589 1320 580 1296 c 128,-1,50
 571 1272 571 1272 571 1231 c 2,51,-1
 571 1194 l 1,52,-1
 686 1194 l 1,53,54
 828 1192 828 1192 933 1161.5 c 128,-1,55
 1038 1131 1038 1131 1107.5 1075.5 c 128,-1,56
 1177 1020 1177 1020 1211 940.5 c 128,-1,57
 1245 861 1245 861 1245 760 c 0,13,14
EndSplineSet
EndChar
StartChar: germandbls
Encoding: 223 223 909
Width: 1446
GlyphClass: 2
Flags: W
LayerCount: 2
Fore
SplineSet
205 1118 m 2,0,1
 205 1246 205 1246 246 1334 c 128,-1,2
 287 1422 287 1422 358.5 1476 c 128,-1,3
 430 1530 430 1530 527 1553.5 c 128,-1,4
 624 1577 624 1577 737 1577 c 0,5,6
 879 1577 879 1577 978 1540 c 128,-1,7
 1077 1503 1077 1503 1139.5 1430.5 c 128,-1,8
 1202 1358 1202 1358 1230.5 1251.5 c 128,-1,9
 1259 1145 1259 1145 1260 1006 c 1,10,-1
 1145 1006 l 2,11,12
 1095 1006 1095 1006 1051.5 1000 c 128,-1,13
 1008 994 1008 994 975.5 978 c 128,-1,14
 943 962 943 962 924 935.5 c 128,-1,15
 905 909 905 909 905 868 c 0,16,17
 905 832 905 832 917.5 805 c 128,-1,18
 930 778 930 778 957 754.5 c 128,-1,19
 984 731 984 731 1027.5 707.5 c 128,-1,20
 1071 684 1071 684 1133 655 c 0,21,22
 1197 625 1197 625 1241 587.5 c 128,-1,23
 1285 550 1285 550 1312.5 507 c 128,-1,24
 1340 464 1340 464 1352 418 c 128,-1,25
 1364 372 1364 372 1364 324 c 0,26,27
 1364 237 1364 237 1336.5 172.5 c 128,-1,28
 1309 108 1309 108 1257.5 65 c 128,-1,29
 1206 22 1206 22 1131 1 c 128,-1,30
 1056 -20 1056 -20 961 -20 c 0,31,32
 868 -20 868 -20 784.5 -1.5 c 128,-1,33
 701 17 701 17 635 55 c 1,34,-1
 635 303 l 1,35,-1
 745 303 l 1,36,37
 752 262 752 262 769.5 225 c 128,-1,38
 787 188 787 188 813.5 160.5 c 128,-1,39
 840 133 840 133 875 116.5 c 128,-1,40
 910 100 910 100 952 100 c 0,41,42
 1021 100 1021 100 1061.5 136 c 128,-1,43
 1102 172 1102 172 1102 238 c 0,44,45
 1102 274 1102 274 1092.5 304.5 c 128,-1,46
 1083 335 1083 335 1059.5 363 c 128,-1,47
 1036 391 1036 391 996 418 c 128,-1,48
 956 445 956 445 895 473 c 0,49,50
 820 508 820 508 770.5 548.5 c 128,-1,51
 721 589 721 589 691.5 635 c 128,-1,52
 662 681 662 681 649.5 731 c 128,-1,53
 637 781 637 781 637 834 c 0,54,55
 637 905 637 905 661.5 956.5 c 128,-1,56
 686 1008 686 1008 730.5 1042.5 c 128,-1,57
 775 1077 775 1077 836 1095.5 c 128,-1,58
 897 1114 897 1114 969 1118 c 1,59,60
 968 1212 968 1212 952.5 1277.5 c 128,-1,61
 937 1343 937 1343 908 1384 c 128,-1,62
 879 1425 879 1425 837.5 1443.5 c 128,-1,63
 796 1462 796 1462 743 1462 c 0,64,65
 691 1462 691 1462 648.5 1445 c 128,-1,66
 606 1428 606 1428 576 1392.5 c 128,-1,67
 546 1357 546 1357 530 1302.5 c 128,-1,68
 514 1248 514 1248 514 1174 c 2,69,-1
 514 0 l 1,70,-1
 12 0 l 1,71,-1
 12 109 l 1,72,-1
 100 109 l 2,73,74
 122 109 122 109 141 113.5 c 128,-1,75
 160 118 160 118 174.5 132 c 128,-1,76
 189 146 189 146 197 172 c 128,-1,77
 205 198 205 198 205 242 c 2,78,-1
 205 956 l 1,79,-1
 41 956 l 1,80,-1
 41 1098 l 1,81,-1
 205 1098 l 1,82,-1
 205 1118 l 2,0,1
EndSplineSet
EndChar
StartChar: ae
Encoding: 230 230 916
Width: 1792
GlyphClass: 2
Flags: W
LayerCount: 2
Fore
SplineSet
410 305 m 0,0,1
 410 217 410 217 438 173 c 128,-1,2
 466 129 466 129 526 129 c 0,3,4
 570 129 570 129 605.5 147.5 c 128,-1,5
 641 166 641 166 666.5 200 c 128,-1,6
 692 234 692 234 705.5 282.5 c 128,-1,7
 719 331 719 331 719 391 c 2,8,-1
 719 545 l 1,9,-1
 627 539 l 2,10,11
 566 536 566 536 524 519.5 c 128,-1,12
 482 503 482 503 457 474 c 128,-1,13
 432 445 432 445 421 403 c 128,-1,14
 410 361 410 361 410 305 c 0,0,1
1231 991 m 0,15,16
 1146 991 1146 991 1094.5 906 c 128,-1,17
 1043 821 1043 821 1038 657 c 1,18,-1
 1393 657 l 1,19,20
 1393 817 1393 817 1354 904 c 128,-1,21
 1315 991 1315 991 1231 991 c 0,15,16
1253 -20 m 0,22,23
 1102 -20 1102 -20 992.5 30 c 128,-1,24
 883 80 883 80 817 176 c 1,25,26
 748 73 748 73 646 26.5 c 128,-1,27
 544 -20 544 -20 414 -20 c 0,28,29
 346 -20 346 -20 287.5 0 c 128,-1,30
 229 20 229 20 185.5 61.5 c 128,-1,31
 142 103 142 103 117 165.5 c 128,-1,32
 92 228 92 228 92 313 c 0,33,34
 92 480 92 480 206.5 560 c 128,-1,35
 321 640 321 640 551 647 c 1,36,-1
 719 653 l 1,37,-1
 719 766 l 2,38,39
 719 817 719 817 715 860 c 128,-1,40
 711 903 711 903 698 934 c 128,-1,41
 685 965 685 965 659.5 982 c 128,-1,42
 634 999 634 999 592 999 c 0,43,44
 553 999 553 999 526.5 982.5 c 128,-1,45
 500 966 500 966 484 936.5 c 128,-1,46
 468 907 468 907 461.5 866.5 c 128,-1,47
 455 826 455 826 455 778 c 1,48,49
 317 778 317 778 247.5 809 c 128,-1,50
 178 840 178 840 178 915 c 0,51,52
 178 971 178 971 211.5 1011 c 128,-1,53
 245 1051 245 1051 302.5 1076 c 128,-1,54
 360 1101 360 1101 436.5 1112.5 c 128,-1,55
 513 1124 513 1124 600 1124 c 0,56,57
 709 1124 709 1124 790.5 1097 c 128,-1,58
 872 1070 872 1070 926 1008 c 1,59,60
 986 1065 986 1065 1061 1094.5 c 128,-1,61
 1136 1124 1136 1124 1227 1124 c 0,62,63
 1338 1124 1338 1124 1427 1092.5 c 128,-1,64
 1516 1061 1516 1061 1578 999 c 128,-1,65
 1640 937 1640 937 1673 845 c 128,-1,66
 1706 753 1706 753 1706 631 c 2,67,-1
 1706 526 l 1,68,-1
 1034 526 l 1,69,70
 1037 423 1037 423 1056.5 349 c 128,-1,71
 1076 275 1076 275 1111 227 c 128,-1,72
 1146 179 1146 179 1195.5 156 c 128,-1,73
 1245 133 1245 133 1309 133 c 0,74,75
 1362 133 1362 133 1407 145.5 c 128,-1,76
 1452 158 1452 158 1488.5 180.5 c 128,-1,77
 1525 203 1525 203 1552 233.5 c 128,-1,78
 1579 264 1579 264 1597 299 c 1,79,80
 1653 269 1653 269 1653 199 c 0,81,82
 1653 155 1653 155 1629.5 115.5 c 128,-1,83
 1606 76 1606 76 1557 46 c 128,-1,84
 1508 16 1508 16 1432.5 -2 c 128,-1,85
 1357 -20 1357 -20 1253 -20 c 0,22,23
EndSplineSet
EndChar
StartChar: eth
Encoding: 240 240 926
Width: 1253
GlyphClass: 2
Flags: W
LayerCount: 2
Fore
SplineSet
1157 596 m 0,0,1
 1157 284 1157 284 1021.5 132 c 128,-1,2
 886 -20 886 -20 623 -20 c 0,3,4
 501 -20 501 -20 403.5 13 c 128,-1,5
 306 46 306 46 237.5 113.5 c 128,-1,6
 169 181 169 181 132.5 283 c 128,-1,7
 96 385 96 385 96 522 c 0,8,9
 96 658 96 658 128.5 759.5 c 128,-1,10
 161 861 161 861 224 928.5 c 128,-1,11
 287 996 287 996 379 1029.5 c 128,-1,12
 471 1063 471 1063 590 1063 c 0,13,14
 658 1063 658 1063 716.5 1047 c 128,-1,15
 775 1031 775 1031 813 1008 c 1,16,17
 802 1041 802 1041 788 1073.5 c 128,-1,18
 774 1106 774 1106 754 1138.5 c 128,-1,19
 734 1171 734 1171 706 1203.5 c 128,-1,20
 678 1236 678 1236 639 1268 c 1,21,-1
 350 1120 l 1,22,-1
 350 1253 l 1,23,-1
 532 1348 l 1,24,25
 481 1380 481 1380 423.5 1398.5 c 128,-1,26
 366 1417 366 1417 291 1430 c 1,27,-1
 291 1559 l 1,28,29
 329 1556 329 1556 381.5 1544.5 c 128,-1,30
 434 1533 434 1533 490 1515.5 c 128,-1,31
 546 1498 546 1498 599.5 1476 c 128,-1,32
 653 1454 653 1454 692 1430 c 1,33,-1
 950 1561 l 1,34,-1
 950 1425 l 1,35,-1
 807 1352 l 1,36,37
 885 1291 885 1291 949.5 1211.5 c 128,-1,38
 1014 1132 1014 1132 1060 1036 c 128,-1,39
 1106 940 1106 940 1131.5 829.5 c 128,-1,40
 1157 719 1157 719 1157 596 c 0,0,1
414 520 m 0,41,42
 414 419 414 419 425.5 342 c 128,-1,43
 437 265 437 265 462.5 213.5 c 128,-1,44
 488 162 488 162 529 135.5 c 128,-1,45
 570 109 570 109 629 109 c 0,46,47
 687 109 687 109 727.5 135.5 c 128,-1,48
 768 162 768 162 793.5 213.5 c 128,-1,49
 819 265 819 265 830.5 342 c 128,-1,50
 842 419 842 419 842 520 c 0,51,52
 842 625 842 625 830.5 702.5 c 128,-1,53
 819 780 819 780 793.5 831 c 128,-1,54
 768 882 768 882 727 907 c 128,-1,55
 686 932 686 932 627 932 c 0,56,57
 569 932 569 932 528 907.5 c 128,-1,58
 487 883 487 883 462 832.5 c 128,-1,59
 437 782 437 782 425.5 704.5 c 128,-1,60
 414 627 414 627 414 520 c 0,41,42
EndSplineSet
EndChar
StartChar: divide
Encoding: 247 247 933
Width: 1145
GlyphClass: 2
Flags: W
LayerCount: 2
Fore
SplineSet
459 1120 m 0,0,1
 459 1155 459 1155 467.5 1179 c 128,-1,2
 476 1203 476 1203 491.5 1217.5 c 128,-1,3
 507 1232 507 1232 528 1238.5 c 128,-1,4
 549 1245 549 1245 573 1245 c 256,5,6
 597 1245 597 1245 618 1238.5 c 128,-1,7
 639 1232 639 1232 654.5 1217.5 c 128,-1,8
 670 1203 670 1203 679 1179 c 128,-1,9
 688 1155 688 1155 688 1120 c 0,10,11
 688 1086 688 1086 679 1062 c 128,-1,12
 670 1038 670 1038 654.5 1023 c 128,-1,13
 639 1008 639 1008 618 1001.5 c 128,-1,14
 597 995 597 995 573 995 c 0,15,16
 524 995 524 995 491.5 1023 c 128,-1,17
 459 1051 459 1051 459 1120 c 0,0,1
459 344 m 0,18,19
 459 379 459 379 467.5 403 c 128,-1,20
 476 427 476 427 491.5 441.5 c 128,-1,21
 507 456 507 456 528 462.5 c 128,-1,22
 549 469 549 469 573 469 c 256,23,24
 597 469 597 469 618 462.5 c 128,-1,25
 639 456 639 456 654.5 441.5 c 128,-1,26
 670 427 670 427 679 403 c 128,-1,27
 688 379 688 379 688 344 c 0,28,29
 688 310 688 310 679 286 c 128,-1,30
 670 262 670 262 654.5 247 c 128,-1,31
 639 232 639 232 618 225.5 c 128,-1,32
 597 219 597 219 573 219 c 0,33,34
 524 219 524 219 491.5 247 c 128,-1,35
 459 275 459 275 459 344 c 0,18,19
1012 659 m 1,36,-1
 133 659 l 1,37,-1
 133 805 l 1,38,-1
 1012 805 l 1,39,-1
 1012 659 l 1,36,-1
EndSplineSet
EndChar
StartChar: oslash
Encoding: 248 248 934
Width: 1255
GlyphClass: 2
Flags: W
LayerCount: 2
Fore
SplineSet
1159 553 m 0,0,1
 1159 264 1159 264 1023.5 122 c 128,-1,2
 888 -20 888 -20 625 -20 c 0,3,4
 487 -20 487 -20 383 23 c 1,5,-1
 317 -82 l 1,6,-1
 172 -82 l 1,7,-1
 274 86 l 1,8,9
 188 157 188 157 142 273 c 128,-1,10
 96 389 96 389 96 553 c 0,11,12
 96 842 96 842 231.5 983 c 128,-1,13
 367 1124 367 1124 631 1124 c 0,14,15
 703 1124 703 1124 767 1112 c 128,-1,16
 831 1100 831 1100 885 1075 c 1,17,-1
 950 1180 l 1,18,-1
 1094 1180 l 1,19,-1
 989 1008 l 1,20,21
 1071 936 1071 936 1115 824 c 128,-1,22
 1159 712 1159 712 1159 553 c 0,0,1
414 553 m 0,23,24
 414 490 414 490 417 435.5 c 128,-1,25
 420 381 420 381 428 336 c 1,26,-1
 780 907 l 1,27,28
 728 993 728 993 627 993 c 0,29,30
 568 993 568 993 527 965.5 c 128,-1,31
 486 938 486 938 461 883 c 128,-1,32
 436 828 436 828 425 745.5 c 128,-1,33
 414 663 414 663 414 553 c 0,23,24
842 553 m 0,34,35
 842 609 842 609 839 657.5 c 128,-1,36
 836 706 836 706 829 750 c 1,37,-1
 481 184 l 1,38,39
 532 109 532 109 629 109 c 0,40,41
 688 109 688 109 728.5 137.5 c 128,-1,42
 769 166 769 166 794.5 222 c 128,-1,43
 820 278 820 278 831 361 c 128,-1,44
 842 444 842 444 842 553 c 0,34,35
EndSplineSet
EndChar
StartChar: thorn
Encoding: 254 254 940
Width: 1321
GlyphClass: 2
Flags: W
LayerCount: 2
Fore
SplineSet
51 -383 m 2,0,1
 73 -383 73 -383 99 -378.5 c 128,-1,2
 125 -374 125 -374 146.5 -360 c 128,-1,3
 168 -346 168 -346 182.5 -320 c 128,-1,4
 197 -294 197 -294 197 -250 c 2,5,-1
 197 1305 l 2,6,7
 197 1352 197 1352 186.5 1380 c 128,-1,8
 176 1408 176 1408 157.5 1423 c 128,-1,9
 139 1438 139 1438 113.5 1443 c 128,-1,10
 88 1448 88 1448 59 1448 c 2,11,-1
 45 1448 l 1,12,-1
 45 1556 l 1,13,-1
 508 1556 l 1,14,-1
 508 1180 l 2,15,16
 508 1151 508 1151 504 1109.5 c 128,-1,17
 500 1068 500 1068 495 1030 c 0,18,19
 490 985 490 985 483 938 c 1,20,-1
 492 938 l 1,21,22
 514 978 514 978 543.5 1011 c 128,-1,23
 573 1044 573 1044 611.5 1068 c 128,-1,24
 650 1092 650 1092 698 1105 c 128,-1,25
 746 1118 746 1118 805 1118 c 0,26,27
 907 1118 907 1118 985.5 1084.5 c 128,-1,28
 1064 1051 1064 1051 1117 980.5 c 128,-1,29
 1170 910 1170 910 1197.5 802 c 128,-1,30
 1225 694 1225 694 1225 545 c 0,31,32
 1225 397 1225 397 1198 289.5 c 128,-1,33
 1171 182 1171 182 1118.5 112 c 128,-1,34
 1066 42 1066 42 989.5 8.5 c 128,-1,35
 913 -25 913 -25 813 -25 c 0,36,37
 696 -25 696 -25 623 19.5 c 128,-1,38
 550 64 550 64 506 139 c 1,39,-1
 492 139 l 1,40,41
 496 92 496 92 500 47 c 0,42,43
 503 9 503 9 505.5 -34 c 128,-1,44
 508 -77 508 -77 508 -109 c 2,45,-1
 508 -250 l 2,46,47
 508 -294 508 -294 522.5 -320 c 128,-1,48
 537 -346 537 -346 558.5 -360 c 128,-1,49
 580 -374 580 -374 605.5 -378.5 c 128,-1,50
 631 -383 631 -383 653 -383 c 2,51,-1
 698 -383 l 1,52,-1
 698 -492 l 1,53,-1
 27 -492 l 1,54,-1
 27 -383 l 1,55,-1
 51 -383 l 2,0,1
717 127 m 0,56,57
 820 127 820 127 864.5 230.5 c 128,-1,58
 909 334 909 334 909 543 c 0,59,60
 909 747 909 747 864.5 856 c 128,-1,61
 820 965 820 965 719 965 c 0,62,63
 657 965 657 965 616.5 937.5 c 128,-1,64
 576 910 576 910 552 856.5 c 128,-1,65
 528 803 528 803 518 724.5 c 128,-1,66
 508 646 508 646 508 545 c 0,67,68
 508 439 508 439 518 360.5 c 128,-1,69
 528 282 528 282 552 230 c 128,-1,70
 576 178 576 178 616 152.5 c 128,-1,71
 656 127 656 127 717 127 c 0,56,57
EndSplineSet
EndChar
StartChar: dotlessi
Encoding: 305 305 942
Width: 721
GlyphClass: 2
Flags: W
LayerCount: 2
Fore
SplineSet
59 109 m 2,0,1
 82 109 82 109 107.5 113.5 c 128,-1,2
 133 118 133 118 154.5 132 c 128,-1,3
 176 146 176 146 190.5 172 c 128,-1,4
 205 198 205 198 205 242 c 2,5,-1
 205 864 l 2,6,7
 205 905 205 905 190.5 929.5 c 128,-1,8
 176 954 176 954 154 967.5 c 128,-1,9
 132 981 132 981 106.5 985 c 128,-1,10
 81 989 81 989 59 989 c 2,11,-1
 35 989 l 1,12,-1
 35 1098 l 1,13,-1
 516 1098 l 1,14,-1
 516 242 l 2,15,16
 516 198 516 198 530.5 172 c 128,-1,17
 545 146 545 146 566.5 132 c 128,-1,18
 588 118 588 118 614 113.5 c 128,-1,19
 640 109 640 109 662 109 c 2,20,-1
 686 109 l 1,21,-1
 686 0 l 1,22,-1
 35 0 l 1,23,-1
 35 109 l 1,24,-1
 59 109 l 2,0,1
EndSplineSet
EndChar
StartChar: circumflex
Encoding: 710 710 943
Width: 1182
GlyphClass: 2
Flags: W
LayerCount: 2
Fore
SplineSet
227 1268 m 1,0,1
 251 1297 251 1297 283.5 1335 c 128,-1,2
 316 1373 316 1373 348 1413.5 c 128,-1,3
 380 1454 380 1454 408.5 1494.5 c 128,-1,4
 437 1535 437 1535 453 1569 c 1,5,-1
 729 1569 l 1,6,7
 745 1535 745 1535 773.5 1494.5 c 128,-1,8
 802 1454 802 1454 834 1413.5 c 128,-1,9
 866 1373 866 1373 898 1335 c 128,-1,10
 930 1297 930 1297 954 1268 c 1,11,-1
 954 1241 l 1,12,-1
 813 1241 l 1,13,14
 792 1258 792 1258 763 1281 c 128,-1,15
 734 1304 734 1304 703 1329 c 128,-1,16
 672 1354 672 1354 642.5 1379 c 128,-1,17
 613 1404 613 1404 590 1425 c 1,18,19
 567 1404 567 1404 537.5 1379 c 128,-1,20
 508 1354 508 1354 477.5 1329 c 128,-1,21
 447 1304 447 1304 418.5 1281 c 128,-1,22
 390 1258 390 1258 369 1241 c 1,23,-1
 227 1241 l 1,24,-1
 227 1268 l 1,0,1
EndSplineSet
EndChar
StartChar: ring
Encoding: 730 730 944
Width: 682
GlyphClass: 2
Flags: W
LayerCount: 2
Fore
SplineSet
586 1444 m 0,0,1
 586 1389 586 1389 567 1347.5 c 128,-1,2
 548 1306 548 1306 514.5 1278 c 128,-1,3
 481 1250 481 1250 436 1235.5 c 128,-1,4
 391 1221 391 1221 340 1221 c 256,5,6
 289 1221 289 1221 244 1235.5 c 128,-1,7
 199 1250 199 1250 165.5 1278 c 128,-1,8
 132 1306 132 1306 113 1347.5 c 128,-1,9
 94 1389 94 1389 94 1444 c 0,10,11
 94 1498 94 1498 113 1540 c 128,-1,12
 132 1582 132 1582 165.5 1610 c 128,-1,13
 199 1638 199 1638 244 1652.5 c 128,-1,14
 289 1667 289 1667 340 1667 c 256,15,16
 391 1667 391 1667 436 1652.5 c 128,-1,17
 481 1638 481 1638 514.5 1610 c 128,-1,18
 548 1582 548 1582 567 1540 c 128,-1,19
 586 1498 586 1498 586 1444 c 0,0,1
461 1444 m 256,20,21
 461 1474 461 1474 451.5 1495 c 128,-1,22
 442 1516 442 1516 425.5 1529 c 128,-1,23
 409 1542 409 1542 387 1548 c 128,-1,24
 365 1554 365 1554 340 1554 c 256,25,26
 315 1554 315 1554 293 1548 c 128,-1,27
 271 1542 271 1542 254.5 1529 c 128,-1,28
 238 1516 238 1516 228.5 1495 c 128,-1,29
 219 1474 219 1474 219 1444 c 256,30,31
 219 1414 219 1414 228.5 1393 c 128,-1,32
 238 1372 238 1372 254.5 1358.5 c 128,-1,33
 271 1345 271 1345 293 1339 c 128,-1,34
 315 1333 315 1333 340 1333 c 256,35,36
 365 1333 365 1333 387 1339 c 128,-1,37
 409 1345 409 1345 425.5 1358.5 c 128,-1,38
 442 1372 442 1372 451.5 1393 c 128,-1,39
 461 1414 461 1414 461 1444 c 256,20,21
EndSplineSet
EndChar
StartChar: tilde
Encoding: 732 732 945
Width: 1182
GlyphClass: 2
Flags: W
LayerCount: 2
Fore
SplineSet
762 1436 m 0,0,1
 784 1436 784 1436 801.5 1445 c 128,-1,2
 819 1454 819 1454 831.5 1469 c 128,-1,3
 844 1484 844 1484 851.5 1503.5 c 128,-1,4
 859 1523 859 1523 862 1544 c 1,5,-1
 995 1544 l 1,6,7
 992 1482 992 1482 972 1427 c 128,-1,8
 952 1372 952 1372 918.5 1330.5 c 128,-1,9
 885 1289 885 1289 839.5 1265 c 128,-1,10
 794 1241 794 1241 739 1241 c 256,11,12
 684 1241 684 1241 639.5 1261 c 128,-1,13
 595 1281 595 1281 556.5 1305.5 c 128,-1,14
 518 1330 518 1330 484.5 1350 c 128,-1,15
 451 1370 451 1370 418 1370 c 0,16,17
 395 1370 395 1370 377.5 1361 c 128,-1,18
 360 1352 360 1352 347.5 1337 c 128,-1,19
 335 1322 335 1322 327.5 1302.5 c 128,-1,20
 320 1283 320 1283 317 1262 c 1,21,-1
 184 1262 l 1,22,23
 187 1324 187 1324 207.5 1379 c 128,-1,24
 228 1434 228 1434 261.5 1475.5 c 128,-1,25
 295 1517 295 1517 341 1541 c 128,-1,26
 387 1565 387 1565 442 1565 c 256,27,28
 497 1565 497 1565 541.5 1545 c 128,-1,29
 586 1525 586 1525 624.5 1500.5 c 128,-1,30
 663 1476 663 1476 696.5 1456 c 128,-1,31
 730 1436 730 1436 762 1436 c 0,0,1
EndSplineSet
EndChar
StartChar: uni060C
Encoding: 1548 1548 93
Width: 602
GlyphClass: 2
Flags: W
LayerCount: 2
Fore
SplineSet
82 184 m 0,0,1
 82 331 82 331 174.5 434 c 128,-1,2
 267 537 267 537 449 586 c 1,3,-1
 449 479 l 1,4,5
 349 443 349 443 308.5 407.5 c 128,-1,6
 268 372 268 372 268 319 c 0,7,8
 268 289 268 289 307 265 c 2,9,-1
 343 242 l 2,10,11
 418 195 418 195 418 100 c 0,12,13
 418 31 418 31 375.5 -5 c 128,-1,14
 333 -41 333 -41 270 -41 c 0,15,16
 184 -41 184 -41 133 19 c 128,-1,17
 82 79 82 79 82 184 c 0,0,1
EndSplineSet
EndChar
StartChar: uni060F
Encoding: 1551 1551 546
Width: 1599
GlyphClass: 2
Flags: W
LayerCount: 2
Fore
SplineSet
815 -696 m 0,0,1
 520 -696 520 -696 377 -481 c 1,2,3
 266 -607 266 -607 176 -748 c 1,4,-1
 78 -674 l 1,5,6
 175 -492 175 -492 301 -303 c 1,7,8
 274 -195 274 -195 274 -68 c 0,9,10
 274 212 274 212 492 444 c 1,11,12
 395 470 395 470 320.5 525 c 128,-1,13
 246 580 246 580 205 654 c 128,-1,14
 164 728 164 728 164 799 c 0,15,16
 164 912 164 912 228 1041 c 128,-1,17
 292 1170 292 1170 382 1242.5 c 128,-1,18
 472 1315 472 1315 567 1315 c 0,19,20
 736 1315 736 1315 934 1092 c 1,21,-1
 883 995 l 1,22,23
 738 1051 738 1051 629 1051 c 0,24,25
 546 1051 546 1051 481.5 1033.5 c 128,-1,26
 417 1016 417 1016 336 973 c 1,27,28
 344 831 344 831 443 745 c 128,-1,29
 542 659 542 659 725 639 c 1,30,31
 918 763 918 763 1155 838 c 1,32,33
 1184 803 1184 803 1184 717 c 0,34,35
 1184 647 1184 647 1146 599.5 c 128,-1,36
 1108 552 1108 552 1025 516 c 0,37,38
 775 410 775 410 647 321 c 128,-1,39
 519 232 519 232 458 140.5 c 128,-1,40
 397 49 397 49 397 -41 c 0,41,42
 397 -101 397 -101 416 -152 c 1,43,44
 571 40 571 40 720.5 127.5 c 128,-1,45
 870 215 870 215 1024 215 c 0,46,47
 1195 215 1195 215 1294 96 c 128,-1,48
 1393 -23 1393 -23 1393 -221 c 0,49,50
 1393 -358 1393 -358 1319 -467 c 128,-1,51
 1245 -576 1245 -576 1112 -636 c 128,-1,52
 979 -696 979 -696 815 -696 c 0,0,1
1040 -74 m 0,53,54
 801 -74 801 -74 535 -317 c 1,55,56
 601 -371 601 -371 686 -399.5 c 128,-1,57
 771 -428 771 -428 858 -428 c 0,58,59
 1041 -428 1041 -428 1153.5 -374 c 128,-1,60
 1266 -320 1266 -320 1266 -227 c 0,61,62
 1266 -166 1266 -166 1199.5 -120 c 128,-1,63
 1133 -74 1133 -74 1040 -74 c 0,53,54
EndSplineSet
EndChar
StartChar: uni0621
Encoding: 1569 1569 4
AltUni2: 00fe80.ffffffff.0
Width: 1300
GlyphClass: 2
Flags: W
AnchorPoint: "Anchor-1" 720 -471 basechar 0
AnchorPoint: "Anchor-0" 650 1278 basechar 0
LayerCount: 2
Fore
SplineSet
164 0 m 1,0,1
 260 46 260 46 373 90 c 1,2,3
 272 191 272 191 272 319 c 0,4,5
 272 438 272 438 339.5 570.5 c 128,-1,6
 407 703 407 703 509.5 781.5 c 128,-1,7
 612 860 612 860 717 860 c 0,8,9
 834 860 834 860 910.5 788.5 c 128,-1,10
 987 717 987 717 987 602 c 0,11,12
 987 557 987 557 971.5 511 c 128,-1,13
 956 465 956 465 930 438 c 1,14,15
 854 467 854 467 821 483 c 1,16,-1
 834 551 l 1,17,18
 773 573 773 573 719 573 c 0,19,20
 647 573 647 573 565 529 c 128,-1,21
 483 485 483 485 406 385 c 1,22,23
 439 304 439 304 504 261.5 c 128,-1,24
 569 219 569 219 698 203 c 1,25,26
 952 275 952 275 1184 305 c 1,27,28
 1238 246 1238 246 1238 168 c 0,29,30
 1238 105 1238 105 1196 59.5 c 128,-1,31
 1154 14 1154 14 1071 6 c 1,32,-1
 914 -7 l 2,33,34
 662 -28 662 -28 542.5 -48 c 128,-1,35
 423 -68 423 -68 205 -119 c 1,36,-1
 164 0 l 1,0,1
EndSplineSet
Colour: ffff00
EndChar
StartChar: uni0633
Encoding: 1587 1587 14
AltUni2: 00feb1.ffffffff.0
Width: 2556
GlyphClass: 2
Flags: W
AnchorPoint: "Anchor-1" 1680 -458 basechar 0
AnchorPoint: "Anchor-0" 1680 1084 basechar 0
LayerCount: 2
Fore
SplineSet
2333 -41 m 1,0,1
 2182 -41 2182 -41 2028.5 -6.5 c 128,-1,2
 1875 28 1875 28 1757 82 c 1,3,-1
 1729 25 l 1,4,5
 1711 -5 1711 -5 1619 -23 c 128,-1,6
 1527 -41 1527 -41 1411 -41 c 0,7,8
 1370 -41 1370 -41 1327 -35 c 1,9,-1
 1331 -106 l 1,10,11
 1331 -266 1331 -266 1235 -403 c 128,-1,12
 1139 -540 1139 -540 972.5 -618 c 128,-1,13
 806 -696 806 -696 606 -696 c 0,14,15
 390 -696 390 -696 277 -569.5 c 128,-1,16
 164 -443 164 -443 164 -201 c 0,17,18
 164 -76 164 -76 223 147 c 1,19,-1
 330 121 l 1,20,21
 297 10 297 10 297 -70 c 0,22,23
 297 -243 297 -243 374 -326.5 c 128,-1,24
 451 -410 451 -410 612 -410 c 0,25,26
 809 -410 809 -410 943 -359 c 128,-1,27
 1077 -308 1077 -308 1196 -197 c 1,28,29
 1164 -127 1164 -127 1128 -61 c 128,-1,30
 1092 5 1092 5 1062 62 c 128,-1,31
 1032 119 1032 119 1012.5 165.5 c 128,-1,32
 993 212 993 212 993 244 c 0,33,34
 993 446 993 446 1237 561 c 1,35,36
 1250 451 1250 451 1286 260 c 1,37,38
 1351 246 1351 246 1438 246 c 0,39,40
 1497 246 1497 246 1527.5 250.5 c 128,-1,41
 1558 255 1558 255 1610 272 c 1,42,43
 1641 324 1641 324 1711 516 c 0,44,45
 1743 605 1743 605 1759 624.5 c 128,-1,46
 1775 644 1775 644 1798 655 c 128,-1,47
 1821 666 1821 666 1854 666 c 0,48,49
 1901 666 1901 666 1946 641 c 1,50,51
 1918 573 1918 573 1845 332 c 1,52,53
 1938 285 1938 285 2049.5 261 c 128,-1,54
 2161 237 2161 237 2294 223 c 1,55,56
 2262 294 2262 294 2229.5 355.5 c 128,-1,57
 2197 417 2197 417 2171.5 468.5 c 128,-1,58
 2146 520 2146 520 2130 562.5 c 128,-1,59
 2114 605 2114 605 2114 637 c 0,60,61
 2114 696 2114 696 2180 767.5 c 128,-1,62
 2246 839 2246 839 2333 881 c 1,63,-1
 2363 721 l 1,64,65
 2403 520 2403 520 2418 431.5 c 128,-1,66
 2433 343 2433 343 2433 301 c 0,67,68
 2433 244 2433 244 2400.5 136.5 c 128,-1,69
 2368 29 2368 29 2333 -41 c 1,0,1
EndSplineSet
Substitution2: "'medi' Medial Forms in Arabic lookup 5 subtable" uni0633.medi
Substitution2: "'init' Initial Forms in Arabic lookup 4 subtable" uni0633.init
Substitution2: "'fina' Terminal Forms in Arabic lookup 3 subtable" uni0633.fina
Colour: ffff00
EndChar
StartChar: uni0647
Encoding: 1607 1607 42
AltUni2: 00fee9.ffffffff.0
Width: 1024
GlyphClass: 2
Flags: W
AnchorPoint: "Anchor-1" 480 -459 basechar 0
AnchorPoint: "Anchor-0" 400 1413 basechar 0
LayerCount: 2
Fore
SplineSet
164 283 m 0,0,1
 164 488 164 488 381 705 c 1,2,-1
 371 713 l 1,3,4
 319 748 319 748 319 838 c 0,5,6
 319 887 319 887 339 931.5 c 128,-1,7
 359 976 359 976 393 995 c 1,8,9
 528 952 528 952 645 855 c 128,-1,10
 762 758 762 758 831.5 635 c 128,-1,11
 901 512 901 512 901 403 c 0,12,13
 901 359 901 359 872.5 274.5 c 128,-1,14
 844 190 844 190 804 120 c 128,-1,15
 764 50 764 50 731 27 c 0,16,17
 685 -4 685 -4 618 -22.5 c 128,-1,18
 551 -41 551 -41 479 -41 c 0,19,20
 343 -41 343 -41 253.5 50 c 128,-1,21
 164 141 164 141 164 283 c 0,0,1
743 279 m 1,22,23
 707 388 707 388 646.5 470.5 c 128,-1,24
 586 553 586 553 483 633 c 1,25,26
 344 489 344 489 344 365 c 0,27,28
 344 295 344 295 390 254 c 128,-1,29
 436 213 436 213 506 213 c 0,30,31
 638 213 638 213 743 279 c 1,22,23
EndSplineSet
Substitution2: "'medi' Medial Forms in Arabic lookup 5 subtable" uni0647.medi
Substitution2: "'init' Initial Forms in Arabic lookup 4 subtable" uni0647.init
Substitution2: "'fina' Terminal Forms in Arabic lookup 3 subtable" uni0647.fina
Colour: ffff00
EndChar
StartChar: uni0650
Encoding: 1616 1616 103
Width: 0
GlyphClass: 4
Flags: W
AnchorPoint: "Anchor-5" 220 -520 basemark 0
AnchorPoint: "Anchor-5" 230 -210 mark 0
AnchorPoint: "Anchor-3" 230 -210 mark 0
AnchorPoint: "Anchor-1" 230 -210 mark 0
LayerCount: 2
Fore
SplineSet
492 -182 m 1,0,1
 498 -209 498 -209 498 -233 c 0,2,3
 498 -265 498 -265 482 -298.5 c 128,-1,4
 466 -332 466 -332 426 -350 c 0,5,6
 253 -431 253 -431 -57 -526 c 1,7,-1
 -39 -369 l 1,8,9
 210 -298 210 -298 492 -182 c 1,0,1
EndSplineSet
EndChar
StartChar: uni0654
Encoding: 1620 1620 107
Width: 0
GlyphClass: 4
Flags: W
AnchorPoint: "Anchor-4" 140 1780 basemark 0
AnchorPoint: "Anchor-4" 140 1160 mark 0
AnchorPoint: "Anchor-2" 140 1160 mark 0
AnchorPoint: "Anchor-0" 140 1160 mark 0
LayerCount: 2
Fore
SplineSet
221 1462 m 1,0,-1
 222 1469 l 1,1,2
 222 1497 222 1497 184 1497 c 0,3,4
 118 1497 118 1497 80 1423 c 1,5,6
 135 1368 135 1368 228 1368 c 0,7,8
 279 1368 279 1368 346 1382 c 1,9,-1
 334 1249 l 1,10,11
 230 1225 230 1225 154 1198.5 c 128,-1,12
 78 1172 78 1172 -33 1114 c 1,13,-1
 -41 1239 l 1,14,-1
 68 1303 l 1,15,16
 -29 1340 -29 1340 -29 1419 c 0,17,18
 -29 1471 -29 1471 4.5 1528.5 c 128,-1,19
 38 1586 38 1586 88.5 1622.5 c 128,-1,20
 139 1659 139 1659 182 1659 c 0,21,22
 293 1659 293 1659 293 1524 c 0,23,24
 293 1485 293 1485 279 1452 c 1,25,-1
 221 1462 l 1,0,-1
EndSplineSet
EndChar
StartChar: uni0657
Encoding: 1623 1623 552
Width: 0
GlyphClass: 4
Flags: W
AnchorPoint: "Anchor-4" 160 1560 basemark 0
AnchorPoint: "Anchor-4" 160 940 mark 0
AnchorPoint: "Anchor-2" 160 940 mark 0
AnchorPoint: "Anchor-0" 160 940 mark 0
LayerCount: 2
Fore
SplineSet
207 1303 m 1,0,1
 319 1242 319 1242 319 1147 c 0,2,3
 319 1096 319 1096 288.5 1045.5 c 128,-1,4
 258 995 258 995 210.5 964.5 c 128,-1,5
 163 934 163 934 119 934 c 0,6,7
 63 934 63 934 29.5 995.5 c 128,-1,8
 -4 1057 -4 1057 -4 1155 c 0,9,10
 -4 1191 -4 1191 6 1229 c 1,11,12
 -34 1237 -34 1237 -92 1237 c 1,13,14
 -86 1297 -86 1297 -53 1321.5 c 128,-1,15
 -20 1346 -20 1346 49 1346 c 1,16,-1
 84 1343 l 1,17,18
 167 1426 167 1426 253 1473 c 128,-1,19
 339 1520 339 1520 399 1520 c 0,20,21
 447 1520 447 1520 472 1495.5 c 128,-1,22
 497 1471 497 1471 497 1432 c 1,23,-1
 496 1415 l 1,24,25
 335 1388 335 1388 207 1303 c 1,0,1
219 1100 m 0,26,27
 219 1165 219 1165 109 1206 c 1,28,29
 98 1184 98 1184 98 1161 c 0,30,31
 98 1114 98 1114 115 1086.5 c 128,-1,32
 132 1059 132 1059 158 1059 c 0,33,34
 182 1059 182 1059 200.5 1073 c 128,-1,35
 219 1087 219 1087 219 1100 c 0,26,27
EndSplineSet
EndChar
StartChar: uni0662
Encoding: 1634 1634 67
Width: 1092
GlyphClass: 2
Flags: W
LayerCount: 2
Fore
SplineSet
186 1161 m 0,0,1
 186 1241 186 1241 236.5 1302 c 128,-1,2
 287 1363 287 1363 379 1399 c 1,3,4
 455 1255 455 1255 514 1092 c 1,5,6
 538 1074 538 1074 566 1066.5 c 128,-1,7
 594 1059 594 1059 657 1059 c 0,8,9
 764 1059 764 1059 830 1148 c 128,-1,10
 896 1237 896 1237 913 1395 c 1,11,-1
 1030 1372 l 1,12,13
 1013 1049 1013 1049 922 901.5 c 128,-1,14
 831 754 831 754 659 754 c 0,15,16
 634 754 634 754 606 764 c 1,17,18
 645 571 645 571 645 432 c 0,19,20
 645 306 645 306 634.5 204.5 c 128,-1,21
 624 103 624 103 592 -41 c 1,22,-1
 457 -18 l 1,23,24
 453 198 453 198 432 355 c 128,-1,25
 411 512 411 512 370.5 660.5 c 128,-1,26
 330 809 330 809 217 1040 c 0,27,28
 186 1103 186 1103 186 1161 c 0,0,1
EndSplineSet
EndChar
StartChar: uni0665
Encoding: 1637 1637 70
Width: 969
GlyphClass: 2
Flags: W
LayerCount: 2
Fore
SplineSet
113 453 m 0,0,1
 113 632 113 632 178.5 826.5 c 128,-1,2
 244 1021 244 1021 342.5 1150.5 c 128,-1,3
 441 1280 441 1280 530 1280 c 0,4,5
 626 1280 626 1280 697.5 1207 c 128,-1,6
 769 1134 769 1134 812.5 984 c 128,-1,7
 856 834 856 834 856 657 c 0,8,9
 856 432 856 432 803 326 c 0,10,11
 741 202 741 202 645 130.5 c 128,-1,12
 549 59 549 59 442 59 c 0,13,14
 270 59 270 59 191.5 156.5 c 128,-1,15
 113 254 113 254 113 453 c 0,0,1
477 373 m 0,16,17
 525 373 525 373 565.5 388.5 c 128,-1,18
 606 404 606 404 638.5 432.5 c 128,-1,19
 671 461 671 461 694 502 c 128,-1,20
 717 543 717 543 717 565 c 0,21,22
 717 671 717 671 685 758.5 c 128,-1,23
 653 846 653 846 597.5 895 c 128,-1,24
 542 944 542 944 477 944 c 0,25,26
 430 944 430 944 377 876 c 128,-1,27
 324 808 324 808 290 712 c 128,-1,28
 256 616 256 616 256 545 c 0,29,30
 256 466 256 466 308.5 419.5 c 128,-1,31
 361 373 361 373 477 373 c 0,16,17
EndSplineSet
EndChar
StartChar: uni0666
Encoding: 1638 1638 71
Width: 1147
GlyphClass: 2
Flags: W
LayerCount: 2
Fore
SplineSet
782 -41 m 1,0,1
 699 168 699 168 662 348 c 128,-1,2
 625 528 625 528 625 748 c 0,3,4
 625 905 625 905 659 1075 c 1,5,6
 545 1044 545 1044 414 1044 c 0,7,8
 315 1044 315 1044 216 1067.5 c 128,-1,9
 117 1091 117 1091 61 1126 c 1,10,-1
 137 1409 l 1,11,12
 222 1379 222 1379 309.5 1363.5 c 128,-1,13
 397 1348 397 1348 453 1348 c 0,14,15
 610 1348 610 1348 776 1374 c 1,16,-1
 834 1294 l 1,17,18
 791 1135 791 1135 791 958 c 0,19,20
 791 742 791 742 838 566.5 c 128,-1,21
 885 391 885 391 993 180 c 1,22,-1
 782 -41 l 1,0,1
EndSplineSet
EndChar
StartChar: uni066C
Encoding: 1644 1644 96
Width: 573
GlyphClass: 2
Flags: W
LayerCount: 2
Fore
SplineSet
115 182 m 0,0,1
 115 329 115 329 207.5 432 c 128,-1,2
 300 535 300 535 481 584 c 1,3,-1
 481 477 l 1,4,5
 380 441 380 441 340.5 405.5 c 128,-1,6
 301 370 301 370 301 317 c 0,7,8
 301 287 301 287 340 263 c 2,9,-1
 376 240 l 2,10,11
 451 193 451 193 451 98 c 0,12,13
 451 29 451 29 408.5 -7 c 128,-1,14
 366 -43 366 -43 303 -43 c 0,15,16
 216 -43 216 -43 165.5 17 c 128,-1,17
 115 77 115 77 115 182 c 0,0,1
EndSplineSet
EndChar
